<svg xmlns="http://www.w3.org/2000/svg" xmlns:xlink="http://www.w3.org/1999/xlink" width="130" height="78" viewBox="0 0 130 78">
  <defs>
    <clipPath id="clip-path">
      <rect id="Rectángulo_3416" data-name="Rectángulo 3416" width="69.548" height="78" fill="#f0f0f0"/>
    </clipPath>
  </defs>
  <g id="Grupo_9018" data-name="Grupo 9018" transform="translate(-140 -7037)">
    <g id="Grupo_9012" data-name="Grupo 9012">
      <rect id="Bandera-Alemania" width="130" height="78" transform="translate(140 7037)" fill="none"/>
      <g id="Grupo_9005" data-name="Grupo 9005" transform="translate(170.227 7037)">
        <g id="Grupo_9005-2" data-name="Grupo 9005" clip-path="url(#clip-path)">
          <path id="Trazado_7334" data-name="Trazado 7334" d="M62.994,126.655c0-.212.364-.605.576-.3s.121.728.545.728,1.182.151,1.3-.031.666-.333.666-.666v-6.757c0-.243,1.031,0,1.031-.394v-3.515a9.109,9.109,0,0,0,.97-.121c.213-.061.971-.455,1.152-.334s.424.546.545.394a1.13,1.13,0,0,1,.728-.455,3.765,3.765,0,0,0,.689-.132.526.526,0,0,1-.082-.235c0-.257-1.845.05-2.153.152a3.347,3.347,0,0,1-1.588.1,10.962,10.962,0,0,0-2.255,0l-.359-.359H61.225a1.49,1.49,0,0,1-.922-.255.947.947,0,0,0-.974-.052c-.359.154-.2-.2-.461-.2a.416.416,0,0,0-.359.256l-.32.084a2.509,2.509,0,0,0,.577,1.34,7.885,7.885,0,0,1,1,2.091c.227.742.88,1.575,1.045,2.136s-.121,1.364.046,1.727a6.877,6.877,0,0,1,.363,1.607c.091.621.136,1.938.7,2.484a4.59,4.59,0,0,1,.637.818c.249.024.439.054.439-.107" transform="translate(-28.527 -55.998)" fill="#f0f0f0"/>
          <path id="Trazado_7335" data-name="Trazado 7335" d="M62.994,126.655c0-.212.364-.605.576-.3s.121.728.545.728,1.182.151,1.3-.031.666-.333.666-.666v-6.757c0-.243,1.031,0,1.031-.394v-3.515a9.109,9.109,0,0,0,.97-.121c.213-.061.971-.455,1.152-.334s.424.546.545.394a1.13,1.13,0,0,1,.728-.455,3.765,3.765,0,0,0,.689-.132.526.526,0,0,1-.082-.235c0-.257-1.845.05-2.153.152a3.347,3.347,0,0,1-1.588.1,10.962,10.962,0,0,0-2.255,0l-.359-.359H61.225a1.49,1.49,0,0,1-.922-.255.947.947,0,0,0-.974-.052c-.359.154-.2-.2-.461-.2a.416.416,0,0,0-.359.256l-.32.084a2.509,2.509,0,0,0,.577,1.34,7.885,7.885,0,0,1,1,2.091c.227.742.88,1.575,1.045,2.136s-.121,1.364.046,1.727a6.877,6.877,0,0,1,.363,1.607c.091.621.136,1.938.7,2.484a4.59,4.59,0,0,1,.637.818C62.8,126.785,62.994,126.815,62.994,126.655Z" transform="translate(-28.527 -55.998)" fill="#f0f0f0"/>
          <path id="Trazado_7336" data-name="Trazado 7336" d="M89.144,111.725l-.151-.331-.879.029c-.575.151-.575.333-.575.515s-.546.605-.94.727-.819,1.031-1.06,1.151-1.06-.182-1.3-.212a1.888,1.888,0,0,0-.523.081c.152.266.468.583.584.583.153,0,.2,1.077.563,1.23s1.025.512,1.025.717.411.461.411.769a.853.853,0,0,0,.717.717c.656-.021.723.251.723.433s.864,0,.977.182.957.1,1.165.217a14.511,14.511,0,0,0,1.04-1.035c.273-.363.045-.863.273-1s.727-.727.546-.773-.046-.5-.319-.773.319-.409.273-.909.091-1.5-.045-1.591a6.129,6.129,0,0,1-1.182-.409,3.424,3.424,0,0,0-1.318-.318" transform="translate(-41.042 -54.613)" fill="#f0f0f0"/>
          <path id="Trazado_7337" data-name="Trazado 7337" d="M89.144,111.725l-.151-.331-.879.029c-.575.151-.575.333-.575.515s-.546.605-.94.727-.819,1.031-1.06,1.151-1.06-.182-1.3-.212a1.888,1.888,0,0,0-.523.081c.152.266.468.583.584.583.153,0,.2,1.077.563,1.23s1.025.512,1.025.717.411.461.411.769a.853.853,0,0,0,.717.717c.656-.021.723.251.723.433s.864,0,.977.182.957.1,1.165.217a14.511,14.511,0,0,0,1.04-1.035c.273-.363.045-.863.273-1s.727-.727.546-.773-.046-.5-.319-.773.319-.409.273-.909.091-1.5-.045-1.591a6.129,6.129,0,0,1-1.182-.409A3.424,3.424,0,0,0,89.144,111.725Z" transform="translate(-41.042 -54.613)" fill="#f0f0f0"/>
          <path id="Trazado_7338" data-name="Trazado 7338" d="M82.093,119.9a.853.853,0,0,1-.717-.717c0-.308-.411-.564-.411-.769s-.666-.564-1.025-.717-.409-1.23-.563-1.23c-.116,0-.433-.317-.585-.583a3.805,3.805,0,0,1-.688.132,1.13,1.13,0,0,0-.728.454c-.121.152-.363-.273-.545-.393s-.939.273-1.152.333a9.142,9.142,0,0,1-.969.121v3.515c0,.394-1.031.151-1.031.394v3.014c.223.081.434.189.485.32a3.372,3.372,0,0,1,.333,1.151c-.061.182-.212.061-.212.243s-.122.454.181.454.818.182,1.03-.061.91-.788.94-1.06.181-.878.7-.545a1.562,1.562,0,0,0,1.213.394c.667,0,.848-.031.97-.455s0-.758.394-.758.879-.363.879-.636.181-.7.425-.7a1.05,1.05,0,0,0,.818-.607c.06-.3.484-.182.636-.364.074-.089.221-.3.352-.495,0,0,0,0,0,0,0-.184-.068-.456-.723-.435" transform="translate(-36.123 -56.817)" fill="#f0f0f0"/>
          <path id="Trazado_7339" data-name="Trazado 7339" d="M82.093,119.9a.853.853,0,0,1-.717-.717c0-.308-.411-.564-.411-.769s-.666-.564-1.025-.717-.409-1.23-.563-1.23c-.116,0-.433-.317-.585-.583a3.805,3.805,0,0,1-.688.132,1.13,1.13,0,0,0-.728.454c-.121.152-.363-.273-.545-.393s-.939.273-1.152.333a9.142,9.142,0,0,1-.969.121v3.515c0,.394-1.031.151-1.031.394v3.014c.223.081.434.189.485.32a3.372,3.372,0,0,1,.333,1.151c-.061.182-.212.061-.212.243s-.122.454.181.454.818.182,1.03-.061.91-.788.94-1.06.181-.878.7-.545a1.562,1.562,0,0,0,1.213.394c.667,0,.848-.031.97-.455s0-.758.394-.758.879-.363.879-.636.181-.7.425-.7a1.05,1.05,0,0,0,.818-.607c.06-.3.484-.182.636-.364.074-.089.221-.3.352-.495,0,0,0,0,0,0C82.816,120.155,82.748,119.883,82.093,119.9Z" transform="translate(-36.123 -56.817)" fill="#f0f0f0"/>
          <path id="Trazado_7340" data-name="Trazado 7340" d="M95.5,132.653c-.253,0-.7.612-.7.739s.317.93.633.951.549,0,.571-.232a.424.424,0,0,1,.173-.274c-.025-.2-.077-.625-.1-.882a1.438,1.438,0,0,0-.584-.3" transform="translate(-46.481 -65.036)" fill="#f0f0f0"/>
          <path id="Trazado_7341" data-name="Trazado 7341" d="M95.5,132.653c-.253,0-.7.612-.7.739s.317.93.633.951.549,0,.571-.232a.424.424,0,0,1,.173-.274c-.025-.2-.077-.625-.1-.882A1.438,1.438,0,0,0,95.5,132.653Z" transform="translate(-46.481 -65.036)" fill="#f0f0f0"/>
          <path id="Trazado_7342" data-name="Trazado 7342" d="M89.169,138.786c-.121-.243-.909.182-1.03.424s-.606.909-.606.909l.606.849.424.06s.122-.3.243-.545.666.062.666-.181.363-.485.363-.728-.545-.545-.666-.788" transform="translate(-42.915 -68.008)" fill="#f0f0f0"/>
          <path id="Trazado_7343" data-name="Trazado 7343" d="M89.169,138.786c-.121-.243-.909.182-1.03.424s-.606.909-.606.909l.606.849.424.06s.122-.3.243-.545.666.062.666-.181.363-.485.363-.728S89.29,139.029,89.169,138.786Z" transform="translate(-42.915 -68.008)" fill="#f0f0f0"/>
          <path id="Trazado_7344" data-name="Trazado 7344" d="M82.444,130.008s-.006-.041-.013-.107a.422.422,0,0,0-.173.274c-.022.232-.253.253-.571.232s-.633-.824-.633-.951.443-.739.7-.739a1.438,1.438,0,0,1,.584.3,1.194,1.194,0,0,1,0-.192c.023-.137.182-1.705-.091-1.864s-.545-1.75-.636-1.909-1.091-.068-1.2-.25-.955-.005-.974-.177c-.13.194-.277.406-.351.495-.152.182-.576.061-.636.363a1.051,1.051,0,0,1-.818.607c-.243,0-.425.424-.425.7s-.485.637-.878.637-.273.333-.395.757-.3.455-.969.455a1.561,1.561,0,0,1-1.213-.394c-.515-.334-.666.272-.7.545s-.728.818-.94,1.06-.727.061-1.03.061-.182-.273-.182-.455.151-.061.212-.243a3.384,3.384,0,0,0-.333-1.151c-.052-.131-.263-.239-.485-.32v3.744c0,.333-.546.484-.666.666s-.879.031-1.3.031-.333-.425-.545-.728-.576.091-.576.3c0,.161-.19.13-.439.107a7.166,7.166,0,0,1,.773,1.637c.242.8.832,1.56.984,2.029s.318.91,0,.954-.318.319.015.834.045.819.334.879.2.242.424.258.394.242.545.438a.421.421,0,0,0,.667-.045c.167-.242.682-.318,1.212-.318s.425-.227.939-.379a2.79,2.79,0,0,1,1.576-.014,1.09,1.09,0,0,0,.985-.122c.212-.136.621.212.651-.136s.455-.288.848-.288a4.949,4.949,0,0,0,2.106-1.333,19.2,19.2,0,0,0,2.44-2.984,7.708,7.708,0,0,1,1.47-1.637,3.61,3.61,0,0,0,.483-1.687,5.448,5.448,0,0,0-.764.058m-3.159,3.387c0,.243-.545-.061-.666.181s-.243.546-.243.546l-.424-.06-.606-.849s.485-.666.606-.909.909-.666,1.03-.424.666.546.666.788-.363.485-.363.728" transform="translate(-32.728 -61.101)" fill="#f0f0f0"/>
          <path id="Trazado_7345" data-name="Trazado 7345" d="M82.444,130.008s-.006-.041-.013-.107a.422.422,0,0,0-.173.274c-.022.232-.253.253-.571.232s-.633-.824-.633-.951.443-.739.7-.739a1.438,1.438,0,0,1,.584.3,1.194,1.194,0,0,1,0-.192c.023-.137.182-1.705-.091-1.864s-.545-1.75-.636-1.909-1.091-.068-1.2-.25-.955-.005-.974-.177c-.13.194-.277.406-.351.495-.152.182-.576.061-.636.363a1.051,1.051,0,0,1-.818.607c-.243,0-.425.424-.425.7s-.485.637-.878.637-.273.333-.395.757-.3.455-.969.455a1.561,1.561,0,0,1-1.213-.394c-.515-.334-.666.272-.7.545s-.728.818-.94,1.06-.727.061-1.03.061-.182-.273-.182-.455.151-.061.212-.243a3.384,3.384,0,0,0-.333-1.151c-.052-.131-.263-.239-.485-.32v3.744c0,.333-.546.484-.666.666s-.879.031-1.3.031-.333-.425-.545-.728-.576.091-.576.3c0,.161-.19.13-.439.107a7.166,7.166,0,0,1,.773,1.637c.242.8.832,1.56.984,2.029s.318.91,0,.954-.318.319.015.834.045.819.334.879.2.242.424.258.394.242.545.438a.421.421,0,0,0,.667-.045c.167-.242.682-.318,1.212-.318s.425-.227.939-.379a2.79,2.79,0,0,1,1.576-.014,1.09,1.09,0,0,0,.985-.122c.212-.136.621.212.651-.136s.455-.288.848-.288a4.949,4.949,0,0,0,2.106-1.333,19.2,19.2,0,0,0,2.44-2.984,7.708,7.708,0,0,1,1.47-1.637,3.61,3.61,0,0,0,.483-1.687A5.448,5.448,0,0,0,82.444,130.008Zm-3.159,3.387c0,.243-.545-.061-.666.181s-.243.546-.243.546l-.424-.06-.606-.849s.485-.666.606-.909.909-.666,1.03-.424.666.546.666.788S79.285,133.152,79.285,133.395Z" transform="translate(-32.728 -61.101)" fill="#f0f0f0"/>
          <path id="Trazado_7346" data-name="Trazado 7346" d="M58.871,102.99c.256,0,.1.358.46.2a.949.949,0,0,1,.974.053,1.492,1.492,0,0,0,.923.255h3.536l.359.359a10.962,10.962,0,0,1,2.255,0,3.346,3.346,0,0,0,1.588-.1,2.853,2.853,0,0,1,.281-.067l-1.169-1.6.105-3.409,1.521.053.263-.262.217-2.036a.323.323,0,0,0-.278-.01,2.07,2.07,0,0,1-.909.091c-.318,0-.363.319-.545.273s-.045-.591,0-.819-.272-.636-.5-.818.273-1.318.137-1.455a1.363,1.363,0,0,1-.181-.818c0-.319-.228-.137-.682-.137s-.5-.227-.5-.227a1.56,1.56,0,0,0-.818,0c-.273.137-.227.955-.409.909a3.341,3.341,0,0,0-1.182.182c-.455.136-.636-.091-.864-.636s-.5-.364-.409-.773a1.382,1.382,0,0,0-.182-.864s-3-.045-3.318,0a1.815,1.815,0,0,0-.579.316,15.491,15.491,0,0,0,.9,2.139c.136.288-.167.545-.167,1.076s.576,1.5.636,2.152A1.982,1.982,0,0,1,59.6,98.5a3.771,3.771,0,0,0-.742,1.969c0,.591-.546,1.168-.531,1.44a8.748,8.748,0,0,1-.136,1.378.256.256,0,0,0,0,.039l.32-.084a.416.416,0,0,1,.359-.256" transform="translate(-28.53 -44.77)" fill="#f0f0f0"/>
          <path id="Trazado_7347" data-name="Trazado 7347" d="M58.871,102.99c.256,0,.1.358.46.2a.949.949,0,0,1,.974.053,1.492,1.492,0,0,0,.923.255h3.536l.359.359a10.962,10.962,0,0,1,2.255,0,3.346,3.346,0,0,0,1.588-.1,2.853,2.853,0,0,1,.281-.067l-1.169-1.6.105-3.409,1.521.053.263-.262.217-2.036a.323.323,0,0,0-.278-.01,2.07,2.07,0,0,1-.909.091c-.318,0-.363.319-.545.273s-.045-.591,0-.819-.272-.636-.5-.818.273-1.318.137-1.455a1.363,1.363,0,0,1-.181-.818c0-.319-.228-.137-.682-.137s-.5-.227-.5-.227a1.56,1.56,0,0,0-.818,0c-.273.137-.227.955-.409.909a3.341,3.341,0,0,0-1.182.182c-.455.136-.636-.091-.864-.636s-.5-.364-.409-.773a1.382,1.382,0,0,0-.182-.864s-3-.045-3.318,0a1.815,1.815,0,0,0-.579.316,15.491,15.491,0,0,0,.9,2.139c.136.288-.167.545-.167,1.076s.576,1.5.636,2.152A1.982,1.982,0,0,1,59.6,98.5a3.771,3.771,0,0,0-.742,1.969c0,.591-.546,1.168-.531,1.44a8.748,8.748,0,0,1-.136,1.378.256.256,0,0,0,0,.039l.32-.084A.416.416,0,0,1,58.871,102.99Z" transform="translate(-28.53 -44.77)" fill="#f0f0f0"/>
          <path id="Trazado_7348" data-name="Trazado 7348" d="M86.659,96.413a2.166,2.166,0,0,1-.74-.422c-.2.22-.892.183-1.234.183-.364,0-.045.5-.273.682s-.318.455-.137.545-.045.864-.045,1.137-.363.863-.227.954.363.728.682.818.545-.227.682-.227.136.409.136.727a.57.57,0,0,1-.181.454s-.5.182-.727,0a1.509,1.509,0,0,1-.409-.863c0-.181-.545-.181-.772-.181s-.455-.41-.545-.591-.364.045-.364.181-.228.137-.455.137-.682-.364-.863-.273-.364-.318-.319-.5-.455-.045-.636.046-.272-.227-.272-.227a.738.738,0,0,0-.269-.263l-.217,2.036-.262.263-1.521-.053-.1,3.41,1.169,1.6c.609-.124,1.872-.3,1.872-.086a.534.534,0,0,0,.082.236,1.906,1.906,0,0,1,.523-.08c.243.03,1.061.333,1.3.212s.667-1.03,1.06-1.151.94-.545.94-.726,0-.364.576-.515l.879-.029.06,0-.212-.758s2.685-1,2.839-1.028c-.118-.242-.24-.421-.181-.45.105-.053.156-.787.156-1s.63-.053.42-.263a3.041,3.041,0,0,1-.052-1.678c.1-.262.368,0,.368-.209a3.344,3.344,0,0,0-.472-1.1A4.558,4.558,0,0,0,87.6,96.78c-.262-.053-.682-.367-.944-.367" transform="translate(-38.038 -47.062)" fill="#f0f0f0"/>
          <path id="Trazado_7349" data-name="Trazado 7349" d="M86.659,96.413a2.166,2.166,0,0,1-.74-.422c-.2.22-.892.183-1.234.183-.364,0-.045.5-.273.682s-.318.455-.137.545-.045.864-.045,1.137-.363.863-.227.954.363.728.682.818.545-.227.682-.227.136.409.136.727a.57.57,0,0,1-.181.454s-.5.182-.727,0a1.509,1.509,0,0,1-.409-.863c0-.181-.545-.181-.772-.181s-.455-.41-.545-.591-.364.045-.364.181-.228.137-.455.137-.682-.364-.863-.273-.364-.318-.319-.5-.455-.045-.636.046-.272-.227-.272-.227a.738.738,0,0,0-.269-.263l-.217,2.036-.262.263-1.521-.053-.1,3.41,1.169,1.6c.609-.124,1.872-.3,1.872-.086a.534.534,0,0,0,.082.236,1.906,1.906,0,0,1,.523-.08c.243.03,1.061.333,1.3.212s.667-1.03,1.06-1.151.94-.545.94-.726,0-.364.576-.515l.879-.029.06,0-.212-.758s2.685-1,2.839-1.028c-.118-.242-.24-.421-.181-.45.105-.053.156-.787.156-1s.63-.053.42-.263a3.041,3.041,0,0,1-.052-1.678c.1-.262.368,0,.368-.209a3.344,3.344,0,0,0-.472-1.1A4.558,4.558,0,0,0,87.6,96.78C87.341,96.727,86.921,96.413,86.659,96.413Z" transform="translate(-38.038 -47.062)" fill="#f0f0f0"/>
          <path id="Trazado_7350" data-name="Trazado 7350" d="M92.97,81.532a4.5,4.5,0,0,0-.566.186.711.711,0,0,1-.511.09.3.3,0,0,1-.125.1c-.25.091-.205.659-.205.659a.27.27,0,0,0-.227.3.306.306,0,0,0,.2.3,2.542,2.542,0,0,1,.338.032c.577.105.525-.314.525-.314s.84.052.892-.21a1.4,1.4,0,0,0-.157-.682Z" transform="translate(-44.78 -39.973)" fill="#f0f0f0"/>
          <path id="Trazado_7351" data-name="Trazado 7351" d="M92.97,81.532a4.5,4.5,0,0,0-.566.186.711.711,0,0,1-.511.09.3.3,0,0,1-.125.1c-.25.091-.205.659-.205.659a.27.27,0,0,0-.227.3.306.306,0,0,0,.2.3,2.542,2.542,0,0,1,.338.032c.577.105.525-.314.525-.314s.84.052.892-.21a1.4,1.4,0,0,0-.157-.682Z" transform="translate(-44.78 -39.973)" fill="#f0f0f0"/>
          <path id="Trazado_7352" data-name="Trazado 7352" d="M118.028,57.368c.182.091.478.568.682.614s1.341.432,2.068.727a3.625,3.625,0,0,0,1.408.318c.227,0,.569.068.364.227s-2.431,2.409-2.727,2.728-.478.2-1.137.2-1.159.727-1.341.7a4.186,4.186,0,0,0-.83.129l-.489.717-.472.734.053,3.673.508.8c.4-.536,1.479-1.566,2.275-2.4a5.375,5.375,0,0,1,1.788-1.364,12.224,12.224,0,0,0,2.546-2.5,5.808,5.808,0,0,0,1.182-1.894,4.425,4.425,0,0,1,.924-1.591,5.652,5.652,0,0,0,.955-2.03c-.015-.363.3-1.137.349-1.788s-.5-.713-.667-.349-1.47.606-2.3.621a2.424,2.424,0,0,0-1.636.379c-.3.288-1.061-.075-1.333.243s-1.349.591-1.7-.137a1.3,1.3,0,0,0-.526-.584c-.294.3-.645.744-.581.887a3.1,3.1,0,0,0,.637.932" transform="translate(-56.653 -26.87)" fill="#f0f0f0"/>
          <path id="Trazado_7353" data-name="Trazado 7353" d="M118.028,57.368c.182.091.478.568.682.614s1.341.432,2.068.727a3.625,3.625,0,0,0,1.408.318c.227,0,.569.068.364.227s-2.431,2.409-2.727,2.728-.478.2-1.137.2-1.159.727-1.341.7a4.186,4.186,0,0,0-.83.129l-.489.717-.472.734.053,3.673.508.8c.4-.536,1.479-1.566,2.275-2.4a5.375,5.375,0,0,1,1.788-1.364,12.224,12.224,0,0,0,2.546-2.5,5.808,5.808,0,0,0,1.182-1.894,4.425,4.425,0,0,1,.924-1.591,5.652,5.652,0,0,0,.955-2.03c-.015-.363.3-1.137.349-1.788s-.5-.713-.667-.349-1.47.606-2.3.621a2.424,2.424,0,0,0-1.636.379c-.3.288-1.061-.075-1.333.243s-1.349.591-1.7-.137a1.3,1.3,0,0,0-.526-.584c-.294.3-.645.744-.581.887A3.1,3.1,0,0,0,118.028,57.368Z" transform="translate(-56.653 -26.87)" fill="#f0f0f0"/>
          <path id="Trazado_7354" data-name="Trazado 7354" d="M12.686,13.256c-.017-.671-.04-1.333-.023-1.4A11.462,11.462,0,0,1,14.3,10.789c.232-.134.667.067.667-.2s.568-.134.9-.2a.608.608,0,0,0,.533-.6c0-.3.468-.234.769-.268s.267-.3.467-.3.1-.3.134-.635.033-.267.333-.267.6-.168.6-.368,1.3-.067,1.5-.067.266-.233.233-.4-.2-.668-.4-.7-.067-.534-.067-.935a1.68,1.68,0,0,0-.3-1.069,1.786,1.786,0,0,1-.169-.316c-.365.007-.807-.268-1.188-.279-.531-.015-1.349.258-1.743-.181s-.667-.576-.954-.439-.818,1.652-1.122,2.09a2.326,2.326,0,0,1-1.56.743c-.409,0-.454.621-.772.879s-.2.667-.577.969-.2,1.227,0,1.561-.7,1.379-1.212,1.682-.682.878-1.5,1.015a1.393,1.393,0,0,0-.743.363h3.81c.79,0,.609.177.736.392" transform="translate(-3.991 -1.721)" fill="#f0f0f0"/>
          <path id="Trazado_7355" data-name="Trazado 7355" d="M12.686,13.256c-.017-.671-.04-1.333-.023-1.4A11.462,11.462,0,0,1,14.3,10.789c.232-.134.667.067.667-.2s.568-.134.9-.2a.608.608,0,0,0,.533-.6c0-.3.468-.234.769-.268s.267-.3.467-.3.1-.3.134-.635.033-.267.333-.267.6-.168.6-.368,1.3-.067,1.5-.067.266-.233.233-.4-.2-.668-.4-.7-.067-.534-.067-.935a1.68,1.68,0,0,0-.3-1.069,1.786,1.786,0,0,1-.169-.316c-.365.007-.807-.268-1.188-.279-.531-.015-1.349.258-1.743-.181s-.667-.576-.954-.439-.818,1.652-1.122,2.09a2.326,2.326,0,0,1-1.56.743c-.409,0-.454.621-.772.879s-.2.667-.577.969-.2,1.227,0,1.561-.7,1.379-1.212,1.682-.682.878-1.5,1.015a1.393,1.393,0,0,0-.743.363h3.81C12.74,12.864,12.559,13.041,12.686,13.256Z" transform="translate(-3.991 -1.721)" fill="#f0f0f0"/>
          <path id="Trazado_7356" data-name="Trazado 7356" d="M50.719,2.114a.9.9,0,0,1-.3,1.091c-.242.121-.424.667-.666.667s0,.909.424,1.091a.626.626,0,0,1,.424.666c0,.181.607.363.789.606a5.328,5.328,0,0,1,.484,1.818.441.441,0,0,0,.091.27,1.313,1.313,0,0,0,.425-.376,1.435,1.435,0,0,0,.181-.818.405.405,0,0,1,.091-.455c.136-.121.682-.7.788-.742s.454.016.439-.318a4.172,4.172,0,0,1,.031-.534c-.246-.158-.394-.344-.394-.435,0-.2-.273-.531-.424-.349s-.727.031-.8-.348.379-.364.8-.712a.887.887,0,0,0,.03-1.379c-.454-.364-.136-.56.182-.894S53.341.447,53.174.6s-.439.2-.485-.167S51.659.008,51.28.356a.8.8,0,0,1-.551.158,3.372,3.372,0,0,0-.01,1.6" transform="translate(-24.344 -0.061)" fill="#f0f0f0"/>
          <path id="Trazado_7357" data-name="Trazado 7357" d="M50.719,2.114a.9.9,0,0,1-.3,1.091c-.242.121-.424.667-.666.667s0,.909.424,1.091a.626.626,0,0,1,.424.666c0,.181.607.363.789.606a5.328,5.328,0,0,1,.484,1.818.441.441,0,0,0,.091.27,1.313,1.313,0,0,0,.425-.376,1.435,1.435,0,0,0,.181-.818.405.405,0,0,1,.091-.455c.136-.121.682-.7.788-.742s.454.016.439-.318a4.172,4.172,0,0,1,.031-.534c-.246-.158-.394-.344-.394-.435,0-.2-.273-.531-.424-.349s-.727.031-.8-.348.379-.364.8-.712a.887.887,0,0,0,.03-1.379c-.454-.364-.136-.56.182-.894S53.341.447,53.174.6s-.439.2-.485-.167S51.659.008,51.28.356a.8.8,0,0,1-.551.158A3.372,3.372,0,0,0,50.719,2.114Z" transform="translate(-24.344 -0.061)" fill="#f0f0f0"/>
          <path id="Trazado_7358" data-name="Trazado 7358" d="M24.324,4.365c0,.4-.134.9.067.935s.368.535.4.7-.033.4-.233.4-1.5-.134-1.5.067-.3.368-.6.368-.3-.067-.334.267.067.635-.134.635-.167.268-.468.3-.769-.033-.769.268a.608.608,0,0,1-.534.6c-.334.067-.9-.067-.9.2s-.434.067-.668.2a11.542,11.542,0,0,0-1.637,1.069c-.017.065.006.727.023,1.4a.516.516,0,0,0,.2.184c.5.288,9.655,6.341,9.943,6.629a5.508,5.508,0,0,1,.648.936,3.453,3.453,0,0,1,1.153.36c.505.289.5,1.081.5,1.081s.648-.144,1.009-.216,1.585-.505,1.585-.505l1.873-1.512,4.4-2.739h.011c-.135-.484-.281-.873-.516-.873-.265,0-.453-.227-.756-.227s-.68-.151-.718-.416.113-.454-.114-.793-.453-.492-.453-.643.384-.446.444-.507-.152-.3-.152-.469-.151-.454,0-.636a.548.548,0,0,0,.076-.7c-.167-.333.227-.637.031-1.076s-.5-.788-.47-.939c.013-.065.111-.136.227-.215a.439.439,0,0,1-.091-.269,5.324,5.324,0,0,0-.484-1.818c-.181-.243-.788-.425-.788-.607a.627.627,0,0,0-.424-.666c-.424-.182-.666-1.091-.424-1.091s.424-.546.666-.667a.9.9,0,0,0,.3-1.09,3.379,3.379,0,0,1,.01-1.6,3.482,3.482,0,0,1-.964-.188,6.035,6.035,0,0,0-1.045.106c-.333.015-1.151.545-1.424.287s-3.061.2-3.849.227-1.121.849-1.591.849a2.641,2.641,0,0,0-1.606.832.5.5,0,0,1-.387.173,1.725,1.725,0,0,0,.169.316,1.678,1.678,0,0,1,.3,1.069" transform="translate(-8.336 -0.241)" fill="#f0f0f0"/>
          <path id="Trazado_7359" data-name="Trazado 7359" d="M24.324,4.365c0,.4-.134.9.067.935s.368.535.4.7-.033.4-.233.4-1.5-.134-1.5.067-.3.368-.6.368-.3-.067-.334.267.067.635-.134.635-.167.268-.468.3-.769-.033-.769.268a.608.608,0,0,1-.534.6c-.334.067-.9-.067-.9.2s-.434.067-.668.2a11.542,11.542,0,0,0-1.637,1.069c-.017.065.006.727.023,1.4a.516.516,0,0,0,.2.184c.5.288,9.655,6.341,9.943,6.629a5.508,5.508,0,0,1,.648.936,3.453,3.453,0,0,1,1.153.36c.505.289.5,1.081.5,1.081s.648-.144,1.009-.216,1.585-.505,1.585-.505l1.873-1.512,4.4-2.739h.011c-.135-.484-.281-.873-.516-.873-.265,0-.453-.227-.756-.227s-.68-.151-.718-.416.113-.454-.114-.793-.453-.492-.453-.643.384-.446.444-.507-.152-.3-.152-.469-.151-.454,0-.636a.548.548,0,0,0,.076-.7c-.167-.333.227-.637.031-1.076s-.5-.788-.47-.939c.013-.065.111-.136.227-.215a.439.439,0,0,1-.091-.269,5.324,5.324,0,0,0-.484-1.818c-.181-.243-.788-.425-.788-.607a.627.627,0,0,0-.424-.666c-.424-.182-.666-1.091-.424-1.091s.424-.546.666-.667a.9.9,0,0,0,.3-1.09,3.379,3.379,0,0,1,.01-1.6,3.482,3.482,0,0,1-.964-.188,6.035,6.035,0,0,0-1.045.106c-.333.015-1.151.545-1.424.287s-3.061.2-3.849.227-1.121.849-1.591.849a2.641,2.641,0,0,0-1.606.832.5.5,0,0,1-.387.173,1.725,1.725,0,0,0,.169.316A1.678,1.678,0,0,1,24.324,4.365Z" transform="translate(-8.336 -0.241)" fill="#f0f0f0"/>
          <path id="Trazado_7360" data-name="Trazado 7360" d="M55.446,10.7c-.106.045-.651.621-.788.742a.407.407,0,0,0-.091.455,1.432,1.432,0,0,1-.181.818c-.137.258-.621.439-.652.591s.273.5.47.939-.2.743-.031,1.076a.548.548,0,0,1-.076.7c-.151.181,0,.469,0,.636s.213.409.152.469-.444.356-.444.508.227.3.453.642.076.529.114.793.416.416.718.416.491.227.756.227c.235,0,.381.389.516.874a3.65,3.65,0,0,1,1.5.288,2.305,2.305,0,0,1,.648.648l1.729-.936,7.823,4.207v-.542h.949V14.2c0-.694-.316-1.137,0-1.516s-.126-.569.126-1.264c.03-.082.061-.167.093-.255a.186.186,0,0,1-.029-.04c-.076-.212-.485-.227-1.379-.364s-.561-.742-1.561-.8-2.272.742-2.287,1.166.469.894.136,1.333a1.076,1.076,0,0,1-1.576.015,2.916,2.916,0,0,0-1.893-.682c-.621,0-1.061-.394-1.016-.727s-.151-.485-.666-.591-.954-.531-1.863-.379a1.673,1.673,0,0,1-1.183-.246,4.071,4.071,0,0,0-.031.534c.015.334-.333.272-.439.318" transform="translate(-26.343 -4.827)" fill="#f0f0f0"/>
          <path id="Trazado_7361" data-name="Trazado 7361" d="M55.446,10.7c-.106.045-.651.621-.788.742a.407.407,0,0,0-.091.455,1.432,1.432,0,0,1-.181.818c-.137.258-.621.439-.652.591s.273.5.47.939-.2.743-.031,1.076a.548.548,0,0,1-.076.7c-.151.181,0,.469,0,.636s.213.409.152.469-.444.356-.444.508.227.3.453.642.076.529.114.793.416.416.718.416.491.227.756.227c.235,0,.381.389.516.874a3.65,3.65,0,0,1,1.5.288,2.305,2.305,0,0,1,.648.648l1.729-.936,7.823,4.207v-.542h.949V14.2c0-.694-.316-1.137,0-1.516s-.126-.569.126-1.264c.03-.082.061-.167.093-.255a.186.186,0,0,1-.029-.04c-.076-.212-.485-.227-1.379-.364s-.561-.742-1.561-.8-2.272.742-2.287,1.166.469.894.136,1.333a1.076,1.076,0,0,1-1.576.015,2.916,2.916,0,0,0-1.893-.682c-.621,0-1.061-.394-1.016-.727s-.151-.485-.666-.591-.954-.531-1.863-.379a1.673,1.673,0,0,1-1.183-.246,4.071,4.071,0,0,0-.031.534C55.9,10.713,55.552,10.651,55.446,10.7Z" transform="translate(-26.343 -4.827)" fill="#f0f0f0"/>
          <path id="Trazado_7362" data-name="Trazado 7362" d="M2.423,51.589c.211-.192.556.192.862.23a1.118,1.118,0,0,0,.633-.172,1.957,1.957,0,0,0-.556-.076c-.5-.038-.537-.633-.977-.422a2.1,2.1,0,0,1-1.3.212c-.008.168-.1.394-.133.617a2.147,2.147,0,0,1,.3-.063,2.594,2.594,0,0,0,1.169-.326" transform="translate(-0.468 -25.055)" fill="#f0f0f0"/>
          <path id="Trazado_7363" data-name="Trazado 7363" d="M2.423,51.589c.211-.192.556.192.862.23a1.118,1.118,0,0,0,.633-.172,1.957,1.957,0,0,0-.556-.076c-.5-.038-.537-.633-.977-.422a2.1,2.1,0,0,1-1.3.212c-.008.168-.1.394-.133.617a2.147,2.147,0,0,1,.3-.063A2.594,2.594,0,0,0,2.423,51.589Z" transform="translate(-0.468 -25.055)" fill="#f0f0f0"/>
          <path id="Trazado_7364" data-name="Trazado 7364" d="M1.287,49.979a1.4,1.4,0,0,0,.575-.23s1.284-.1,1.5-.115a.549.549,0,0,1,.258.068c0-.054,0-.095,0-.095s.682.136.727.3.977.273,1.5.091l.113-.04a5.021,5.021,0,0,0-.007-.649,2.538,2.538,0,0,0-.545-.667C5.225,48.456,5.255,48,5.255,48l-.188-.279S4.922,47.145,4.49,47s-.721-.937-.721-.937h-.36a2.2,2.2,0,0,0-.576-.5,1.2,1.2,0,0,0-.792.072,3.749,3.749,0,0,1-.937,0c-.36-.072-.289.432-.577.5l-.053.013a1.846,1.846,0,0,1-.234.821c-.333.5.137,1.227.379,1.454a.235.235,0,0,1,.061.194,2.1,2.1,0,0,0,1.3-.212c.44-.211.479.384.977.422a1.933,1.933,0,0,1,.557.077,1.115,1.115,0,0,1-.633.172c-.306-.038-.651-.422-.862-.23a2.6,2.6,0,0,1-1.169.326,2.336,2.336,0,0,0-.3.063.568.568,0,0,0,.117.478c.039.044.071.084.1.123.519-.132.359.126.52.142" transform="translate(-0.061 -22.313)" fill="#f0f0f0"/>
          <path id="Trazado_7365" data-name="Trazado 7365" d="M1.287,49.979a1.4,1.4,0,0,0,.575-.23s1.284-.1,1.5-.115a.549.549,0,0,1,.258.068c0-.054,0-.095,0-.095s.682.136.727.3.977.273,1.5.091l.113-.04a5.021,5.021,0,0,0-.007-.649,2.538,2.538,0,0,0-.545-.667C5.225,48.456,5.255,48,5.255,48l-.188-.279S4.922,47.145,4.49,47s-.721-.937-.721-.937h-.36a2.2,2.2,0,0,0-.576-.5,1.2,1.2,0,0,0-.792.072,3.749,3.749,0,0,1-.937,0c-.36-.072-.289.432-.577.5l-.053.013a1.846,1.846,0,0,1-.234.821c-.333.5.137,1.227.379,1.454a.235.235,0,0,1,.061.194,2.1,2.1,0,0,0,1.3-.212c.44-.211.479.384.977.422a1.933,1.933,0,0,1,.557.077,1.115,1.115,0,0,1-.633.172c-.306-.038-.651-.422-.862-.23a2.6,2.6,0,0,1-1.169.326,2.336,2.336,0,0,0-.3.063.568.568,0,0,0,.117.478c.039.044.071.084.1.123C1.287,49.705,1.127,49.963,1.287,49.979Z" transform="translate(-0.061 -22.313)" fill="#f0f0f0"/>
          <path id="Trazado_7366" data-name="Trazado 7366" d="M2.874,55.185c.227-.159.682-.568.841-.5s.364-.068.364-.159-.318-.386-.068-.478a.418.418,0,0,0,.224-.382.539.539,0,0,0-.258-.068c-.211.019-1.495.114-1.495.114a1.393,1.393,0,0,1-.575.23c-.161-.016,0-.274-.52-.142.26.324.294.486.822.635.591.166-.045.47.439.773a1.208,1.208,0,0,1,.117.087.824.824,0,0,1,.11-.11" transform="translate(-0.68 -26.277)" fill="#f0f0f0"/>
          <path id="Trazado_7367" data-name="Trazado 7367" d="M2.874,55.185c.227-.159.682-.568.841-.5s.364-.068.364-.159-.318-.386-.068-.478a.418.418,0,0,0,.224-.382.539.539,0,0,0-.258-.068c-.211.019-1.495.114-1.495.114a1.393,1.393,0,0,1-.575.23c-.161-.016,0-.274-.52-.142.26.324.294.486.822.635.591.166-.045.47.439.773a1.208,1.208,0,0,1,.117.087A.824.824,0,0,1,2.874,55.185Z" transform="translate(-0.68 -26.277)" fill="#f0f0f0"/>
          <path id="Trazado_7368" data-name="Trazado 7368" d="M75.243,61.716c0-.19,0-.379-.378-.7s-.632-.379-.632-.569-.126-.253-.443-.632a1.164,1.164,0,0,0-.821-.379l-.127-.316-.442-.063s-.253-.19.127-.379,0-.7-.063-.885a7.328,7.328,0,0,0-.726-.973.4.4,0,0,1-.178-.04c-.212-.121-.636.121-.848.333s-.061.334-.212.486a11.052,11.052,0,0,0-1,1.03c-.333.424-1.182.151-1.454.3s.121.394-.061.545a6.645,6.645,0,0,1-.909.485c-.182.091-.91.06-1.122.334s-.454-.3-.667,0-.455.333-.575.242a.4.4,0,0,1-.09-.108,1.691,1.691,0,0,0-.516.638c-.136.432-.5.818-.5,1.023s.137.478.137.841a1.17,1.17,0,0,0,.3.818.923.923,0,0,1,.159.614,2.249,2.249,0,0,0,.227.34c.159.2.614.5.659.66a.339.339,0,0,0,.177.172.956.956,0,0,1,.062-.1,1.1,1.1,0,0,0,.19-.758l.568-.126.442-.126.885.126v-.694s.632-.822,1.075-.822.822.569.822.569l1.958.379s.127-.568.317-.7.568.127.821,0a2.4,2.4,0,0,1,1.075-.316c.442,0,.633.253.822-.127s1.137.127,1.137.127l.758-.127-.253-.632s-.7-.317-.7-.506" transform="translate(-31.184 -27.825)" fill="#f0f0f0"/>
          <path id="Trazado_7369" data-name="Trazado 7369" d="M75.243,61.716c0-.19,0-.379-.378-.7s-.632-.379-.632-.569-.126-.253-.443-.632a1.164,1.164,0,0,0-.821-.379l-.127-.316-.442-.063s-.253-.19.127-.379,0-.7-.063-.885a7.328,7.328,0,0,0-.726-.973.4.4,0,0,1-.178-.04c-.212-.121-.636.121-.848.333s-.061.334-.212.486a11.052,11.052,0,0,0-1,1.03c-.333.424-1.182.151-1.454.3s.121.394-.061.545a6.645,6.645,0,0,1-.909.485c-.182.091-.91.06-1.122.334s-.454-.3-.667,0-.455.333-.575.242a.4.4,0,0,1-.09-.108,1.691,1.691,0,0,0-.516.638c-.136.432-.5.818-.5,1.023s.137.478.137.841a1.17,1.17,0,0,0,.3.818.923.923,0,0,1,.159.614,2.249,2.249,0,0,0,.227.34c.159.2.614.5.659.66a.339.339,0,0,0,.177.172.956.956,0,0,1,.062-.1,1.1,1.1,0,0,0,.19-.758l.568-.126.442-.126.885.126v-.694s.632-.822,1.075-.822.822.569.822.569l1.958.379s.127-.568.317-.7.568.127.821,0a2.4,2.4,0,0,1,1.075-.316c.442,0,.633.253.822-.127s1.137.127,1.137.127l.758-.127-.253-.632S75.243,61.906,75.243,61.716Z" transform="translate(-31.184 -27.825)" fill="#f0f0f0"/>
          <path id="Trazado_7370" data-name="Trazado 7370" d="M47.656,58.415c.122-.031.394.061.606-.091s.667.212.727.515.243-.121.425-.455a8.191,8.191,0,0,0,.757-1.575c0-.243.485-.455.485-.607s-.031-.484.122-.545.272-.515.242-.667a4.505,4.505,0,0,1,.606-1.121c.091-.121.575-.06.607-.333s.12-.576-.062-.636-.424-.273-.424-.425a2.683,2.683,0,0,1,.063-.552c-.243-.035-.255-.277-.4-.418s-.151-.272-.363-.212-.455.576-.727.667-.667-.121-.849-.212a8.943,8.943,0,0,0-1.3-.03c-.272-.03-.545.363-.757.484a1.848,1.848,0,0,1-1,0c-.182-.06-.607-.424-.789-.424a1.82,1.82,0,0,0-.848.242c-.3.181-.394-.333-.575-.545s-.577-.031-.819-.243-.394.243-.606.212-.758-.152-.939,0-.152.727-.243.819-.455.514-.455.727a.222.222,0,0,1-.1.2c.04.251.091.572.1.69.023.2.114,1.227-.114,1.454a2.247,2.247,0,0,0-.386.591,1.145,1.145,0,0,0-.432.75,6.847,6.847,0,0,0,.023,1.2c0,.273.2.469.314.808,0,0,.009.005.012.01.182.243,1.046.289,1.53.395a1.514,1.514,0,0,1,.971,1.045,1.333,1.333,0,0,0,.545.878c.227.122.788-.227,1.045-.227a3.623,3.623,0,0,0,1.364-.152.123.123,0,0,1,.164-.008,6.187,6.187,0,0,0,.3-1.1,14.3,14.3,0,0,1,1.174-1.12" transform="translate(-19.705 -25.091)" fill="#f0f0f0"/>
          <path id="Trazado_7371" data-name="Trazado 7371" d="M47.656,58.415c.122-.031.394.061.606-.091s.667.212.727.515.243-.121.425-.455a8.191,8.191,0,0,0,.757-1.575c0-.243.485-.455.485-.607s-.031-.484.122-.545.272-.515.242-.667a4.505,4.505,0,0,1,.606-1.121c.091-.121.575-.06.607-.333s.12-.576-.062-.636-.424-.273-.424-.425a2.683,2.683,0,0,1,.063-.552c-.243-.035-.255-.277-.4-.418s-.151-.272-.363-.212-.455.576-.727.667-.667-.121-.849-.212a8.943,8.943,0,0,0-1.3-.03c-.272-.03-.545.363-.757.484a1.848,1.848,0,0,1-1,0c-.182-.06-.607-.424-.789-.424a1.82,1.82,0,0,0-.848.242c-.3.181-.394-.333-.575-.545s-.577-.031-.819-.243-.394.243-.606.212-.758-.152-.939,0-.152.727-.243.819-.455.514-.455.727a.222.222,0,0,1-.1.2c.04.251.091.572.1.69.023.2.114,1.227-.114,1.454a2.247,2.247,0,0,0-.386.591,1.145,1.145,0,0,0-.432.75,6.847,6.847,0,0,0,.023,1.2c0,.273.2.469.314.808,0,0,.009.005.012.01.182.243,1.046.289,1.53.395a1.514,1.514,0,0,1,.971,1.045,1.333,1.333,0,0,0,.545.878c.227.122.788-.227,1.045-.227a3.623,3.623,0,0,0,1.364-.152.123.123,0,0,1,.164-.008,6.187,6.187,0,0,0,.3-1.1A14.3,14.3,0,0,1,47.656,58.415Z" transform="translate(-19.705 -25.091)" fill="#f0f0f0"/>
          <path id="Trazado_7372" data-name="Trazado 7372" d="M38.263,58.119a1.147,1.147,0,0,1,.432-.75,2.262,2.262,0,0,1,.386-.591c.227-.227.137-1.249.114-1.454-.013-.118-.064-.439-.1-.691a.355.355,0,0,1-.327-.021c-.273-.121-.03-.395-.333-.485s-.424.242-.363.485-.151.242-.273.394-.667.181-.849.181-.394.334-.575.395a.446.446,0,0,1-.163.011c.042.8.175.738.557.958.432.25.023.591.2.773s.114.637.159,1.2c.028.344.063,1.236.087,1.888a3.777,3.777,0,0,1,.686-.062c.326,0,.522-.431.7-.223-.112-.338-.314-.535-.314-.808a6.9,6.9,0,0,1-.023-1.2" transform="translate(-17.751 -26.53)" fill="#f0f0f0"/>
          <path id="Trazado_7373" data-name="Trazado 7373" d="M38.263,58.119a1.147,1.147,0,0,1,.432-.75,2.262,2.262,0,0,1,.386-.591c.227-.227.137-1.249.114-1.454-.013-.118-.064-.439-.1-.691a.355.355,0,0,1-.327-.021c-.273-.121-.03-.395-.333-.485s-.424.242-.363.485-.151.242-.273.394-.667.181-.849.181-.394.334-.575.395a.446.446,0,0,1-.163.011c.042.8.175.738.557.958.432.25.023.591.2.773s.114.637.159,1.2c.028.344.063,1.236.087,1.888a3.777,3.777,0,0,1,.686-.062c.326,0,.522-.431.7-.223-.112-.338-.314-.535-.314-.808A6.9,6.9,0,0,1,38.263,58.119Z" transform="translate(-17.751 -26.53)" fill="#f0f0f0"/>
          <path id="Trazado_7374" data-name="Trazado 7374" d="M36.1,58.619c-.181-.181.227-.522-.2-.773-.381-.22-.514-.159-.557-.958-.219-.014-.542-.109-.777-.133a.229.229,0,0,0-.123.022c.049.29.121.612.206.66a.589.589,0,0,1,.25.614,4.315,4.315,0,0,0,.023,1.432,4.087,4.087,0,0,1,.273,1.409,3.059,3.059,0,0,0,.375,1.18,1.143,1.143,0,0,0,.208-.134,1.3,1.3,0,0,1,.572-.226c-.024-.651-.06-1.543-.087-1.888-.045-.568.023-1.023-.159-1.2" transform="translate(-16.886 -27.825)" fill="#f0f0f0"/>
          <path id="Trazado_7375" data-name="Trazado 7375" d="M36.1,58.619c-.181-.181.227-.522-.2-.773-.381-.22-.514-.159-.557-.958-.219-.014-.542-.109-.777-.133a.229.229,0,0,0-.123.022c.049.29.121.612.206.66a.589.589,0,0,1,.25.614,4.315,4.315,0,0,0,.023,1.432,4.087,4.087,0,0,1,.273,1.409,3.059,3.059,0,0,0,.375,1.18,1.143,1.143,0,0,0,.208-.134,1.3,1.3,0,0,1,.572-.226c-.024-.651-.06-1.543-.087-1.888C36.216,59.256,36.285,58.8,36.1,58.619Z" transform="translate(-16.886 -27.825)" fill="#f0f0f0"/>
          <path id="Trazado_7376" data-name="Trazado 7376" d="M55.118,63.871s2.4.126,2.718.063a4.774,4.774,0,0,1,1.453.506,2.723,2.723,0,0,1,.254-.915.337.337,0,0,1-.177-.172c-.045-.159-.5-.455-.659-.66a2.249,2.249,0,0,1-.227-.34.921.921,0,0,0-.16-.614,1.171,1.171,0,0,1-.3-.818c0-.363-.136-.636-.136-.841s.363-.591.5-1.023a1.679,1.679,0,0,1,.516-.638,3.415,3.415,0,0,1-.3-.741c-.121-.395-.454-.515-.849-.878a.644.644,0,0,1-.242-.728c0-.151.515-.152.879-.121s.575-.06.425-.151a2.012,2.012,0,0,1-.425-1.273c.031-.485-.151-.636-.121-.909s-.334-.97-.637-.97a.414.414,0,0,1-.058-.007,2.72,2.72,0,0,0-.063.552c0,.152.242.364.424.425s.092.364.062.636-.516.212-.607.333a4.487,4.487,0,0,0-.606,1.121c.03.152-.091.607-.242.667s-.121.394-.121.545-.485.363-.485.607a8.166,8.166,0,0,1-.757,1.575c-.181.334-.363.758-.425.455s-.515-.666-.727-.515-.484.06-.606.091a14.289,14.289,0,0,0-1.173,1.12,6.165,6.165,0,0,1-.3,1.1,2.534,2.534,0,0,1,.427.568c.212.3.62.076.788.167a1.5,1.5,0,0,1,.288,1c-.059.19-.309.671-.193.909h1.419Z" transform="translate(-25.468 -25.809)" fill="#f0f0f0"/>
          <path id="Trazado_7377" data-name="Trazado 7377" d="M55.118,63.871s2.4.126,2.718.063a4.774,4.774,0,0,1,1.453.506,2.723,2.723,0,0,1,.254-.915.337.337,0,0,1-.177-.172c-.045-.159-.5-.455-.659-.66a2.249,2.249,0,0,1-.227-.34.921.921,0,0,0-.16-.614,1.171,1.171,0,0,1-.3-.818c0-.363-.136-.636-.136-.841s.363-.591.5-1.023a1.679,1.679,0,0,1,.516-.638,3.415,3.415,0,0,1-.3-.741c-.121-.395-.454-.515-.849-.878a.644.644,0,0,1-.242-.728c0-.151.515-.152.879-.121s.575-.06.425-.151a2.012,2.012,0,0,1-.425-1.273c.031-.485-.151-.636-.121-.909s-.334-.97-.637-.97a.414.414,0,0,1-.058-.007,2.72,2.72,0,0,0-.063.552c0,.152.242.364.424.425s.092.364.062.636-.516.212-.607.333a4.487,4.487,0,0,0-.606,1.121c.03.152-.091.607-.242.667s-.121.394-.121.545-.485.363-.485.607a8.166,8.166,0,0,1-.757,1.575c-.181.334-.363.758-.425.455s-.515-.666-.727-.515-.484.06-.606.091a14.289,14.289,0,0,0-1.173,1.12,6.165,6.165,0,0,1-.3,1.1,2.534,2.534,0,0,1,.427.568c.212.3.62.076.788.167a1.5,1.5,0,0,1,.288,1c-.059.19-.309.671-.193.909h1.419Z" transform="translate(-25.468 -25.809)" fill="#f0f0f0"/>
          <path id="Trazado_7378" data-name="Trazado 7378" d="M23.274,63.078a3.342,3.342,0,0,1-.432-1.136c.023-.182.409-.728.387-1s.386-.455.386-.682a5.335,5.335,0,0,0-.357-1.591.258.258,0,0,1-.188-.1,1.138,1.138,0,0,0-1.212.151c-.273.3-.819-.273-.909-.424s-.485-.485-.788-.273-.394.152-.364-.121-.454-.182-.515.061-.455.454-.576.273-.394-.424-.515-.151a.2.2,0,0,1-.347.084c-.076.337-.17.724,0,.818a.4.4,0,0,1,.181.477c-.045.137.341.478.182.637s-.363-.159-.477.068.227.432.091.614-.341.2-.3.568.022.613-.114.727.022.114.341.318.841.432.8.773c-.041.31-.177.382-.3.956.616.013,1.722-.437,3.023-.66a4.421,4.421,0,0,1,1.989.116c.052-.194.087-.411.018-.5" transform="translate(-8.512 -28.307)" fill="#f0f0f0"/>
          <path id="Trazado_7379" data-name="Trazado 7379" d="M23.274,63.078a3.342,3.342,0,0,1-.432-1.136c.023-.182.409-.728.387-1s.386-.455.386-.682a5.335,5.335,0,0,0-.357-1.591.258.258,0,0,1-.188-.1,1.138,1.138,0,0,0-1.212.151c-.273.3-.819-.273-.909-.424s-.485-.485-.788-.273-.394.152-.364-.121-.454-.182-.515.061-.455.454-.576.273-.394-.424-.515-.151a.2.2,0,0,1-.347.084c-.076.337-.17.724,0,.818a.4.4,0,0,1,.181.477c-.045.137.341.478.182.637s-.363-.159-.477.068.227.432.091.614-.341.2-.3.568.022.613-.114.727.022.114.341.318.841.432.8.773c-.041.31-.177.382-.3.956.616.013,1.722-.437,3.023-.66a4.421,4.421,0,0,1,1.989.116C23.308,63.387,23.343,63.17,23.274,63.078Z" transform="translate(-8.512 -28.307)" fill="#f0f0f0"/>
          <path id="Trazado_7380" data-name="Trazado 7380" d="M31.817,59.506a4.318,4.318,0,0,1-.022-1.432.592.592,0,0,0-.25-.614c-.085-.047-.157-.37-.206-.66-.181.082-.2.378-.271.251a6.7,6.7,0,0,0-2.575-.061c-.122.182.212.849.181,1.031-.018.109-.069.182-.146.188a5.343,5.343,0,0,1,.358,1.591c0,.227-.409.409-.387.682s-.363.818-.386,1a3.351,3.351,0,0,0,.432,1.136c.069.092.034.309-.018.5.413.119.685.257.768.277a9.579,9.579,0,0,0,1.985-.8c.412-.206.87-.335,1.186-.5a3.057,3.057,0,0,1-.375-1.18,4.073,4.073,0,0,0-.273-1.409" transform="translate(-13.782 -27.847)" fill="#f0f0f0"/>
          <path id="Trazado_7381" data-name="Trazado 7381" d="M31.817,59.506a4.318,4.318,0,0,1-.022-1.432.592.592,0,0,0-.25-.614c-.085-.047-.157-.37-.206-.66-.181.082-.2.378-.271.251a6.7,6.7,0,0,0-2.575-.061c-.122.182.212.849.181,1.031-.018.109-.069.182-.146.188a5.343,5.343,0,0,1,.358,1.591c0,.227-.409.409-.387.682s-.363.818-.386,1a3.351,3.351,0,0,0,.432,1.136c.069.092.034.309-.018.5.413.119.685.257.768.277a9.579,9.579,0,0,0,1.985-.8c.412-.206.87-.335,1.186-.5a3.057,3.057,0,0,1-.375-1.18A4.073,4.073,0,0,0,31.817,59.506Z" transform="translate(-13.782 -27.847)" fill="#f0f0f0"/>
          <path id="Trazado_7382" data-name="Trazado 7382" d="M6.676,56.661c.022-.25.227-.159.477-.114s.545-.159.772-.159.819.795.819,1.023a1.114,1.114,0,0,0,.137.614.292.292,0,0,1,.032.071,5.288,5.288,0,0,1,.741-.128c.112,0,.335.536.291.871s.335.582.492.359.357-.515.4-.314c.013.06.1.111.2.154.057-.133.178-.185.271-.308.137-.182-.2-.387-.091-.614s.318.091.478-.068-.227-.5-.182-.637a.4.4,0,0,0-.181-.478c-.169-.093-.074-.48,0-.817a.6.6,0,0,1-.138-.145c-.121-.181-.029-.575-.242-.575s-.182-.3,0-.364-.364-.272-.364-.484a1.3,1.3,0,0,0-.394-.758c-.121-.03-.545.515-.727.515s-.576-.364-.7-.061-.394-.152-.576.091-.3-.273-.3-.273,0-.071.007-.169l-.113.04c-.523.182-1.455.068-1.5-.091s-.727-.3-.727-.3.022.386-.227.477.068.387.068.478-.2.227-.363.159-.614.342-.841.5a.824.824,0,0,0-.11.11c.351.281.32.6.731.9a3.442,3.442,0,0,1,1.154,1.259c.294-.248.687-.6.7-.767" transform="translate(-2.005 -26.253)" fill="#f0f0f0"/>
          <path id="Trazado_7383" data-name="Trazado 7383" d="M6.676,56.661c.022-.25.227-.159.477-.114s.545-.159.772-.159.819.795.819,1.023a1.114,1.114,0,0,0,.137.614.292.292,0,0,1,.032.071,5.288,5.288,0,0,1,.741-.128c.112,0,.335.536.291.871s.335.582.492.359.357-.515.4-.314c.013.06.1.111.2.154.057-.133.178-.185.271-.308.137-.182-.2-.387-.091-.614s.318.091.478-.068-.227-.5-.182-.637a.4.4,0,0,0-.181-.478c-.169-.093-.074-.48,0-.817a.6.6,0,0,1-.138-.145c-.121-.181-.029-.575-.242-.575s-.182-.3,0-.364-.364-.272-.364-.484a1.3,1.3,0,0,0-.394-.758c-.121-.03-.545.515-.727.515s-.576-.364-.7-.061-.394-.152-.576.091-.3-.273-.3-.273,0-.071.007-.169l-.113.04c-.523.182-1.455.068-1.5-.091s-.727-.3-.727-.3.022.386-.227.477.068.387.068.478-.2.227-.363.159-.614.342-.841.5a.824.824,0,0,0-.11.11c.351.281.32.6.731.9a3.442,3.442,0,0,1,1.154,1.259C6.268,57.179,6.661,56.832,6.676,56.661Z" transform="translate(-2.005 -26.253)" fill="#f0f0f0"/>
          <path id="Trazado_7384" data-name="Trazado 7384" d="M14.776,64.593c-.318-.2-.478-.2-.341-.318s.159-.364.114-.727a.5.5,0,0,1,.025-.26c-.107-.043-.19-.094-.2-.153-.045-.2-.246.089-.4.313s-.537-.023-.493-.358-.179-.872-.29-.872a5.337,5.337,0,0,0-.741.129c.049.163-.06.34-.1.519-.045.2-.591.5-.818.682a1.286,1.286,0,0,0-.233.345c.427.27.926.583,1.331.89a13.455,13.455,0,0,0,2.394,1.5.75.75,0,0,0,.249.039c.126-.574.263-.645.3-.956.045-.341-.478-.569-.8-.773" transform="translate(-5.537 -30.504)" fill="#f0f0f0"/>
          <path id="Trazado_7385" data-name="Trazado 7385" d="M14.776,64.593c-.318-.2-.478-.2-.341-.318s.159-.364.114-.727a.5.5,0,0,1,.025-.26c-.107-.043-.19-.094-.2-.153-.045-.2-.246.089-.4.313s-.537-.023-.493-.358-.179-.872-.29-.872a5.337,5.337,0,0,0-.741.129c.049.163-.06.34-.1.519-.045.2-.591.5-.818.682a1.286,1.286,0,0,0-.233.345c.427.27.926.583,1.331.89a13.455,13.455,0,0,0,2.394,1.5.75.75,0,0,0,.249.039c.126-.574.263-.645.3-.956C15.617,65.025,15.094,64.8,14.776,64.593Z" transform="translate(-5.537 -30.504)" fill="#f0f0f0"/>
          <path id="Trazado_7386" data-name="Trazado 7386" d="M10.625,61.348c.045-.2.182-.409.068-.591a1.114,1.114,0,0,1-.137-.614c0-.228-.591-1.023-.818-1.023s-.522.2-.772.159-.455-.136-.478.114c-.016.171-.408.518-.7.767a2.459,2.459,0,0,1,.149.378,2.026,2.026,0,0,0,.818,1.288c.158.13.465.325.82.55a1.268,1.268,0,0,1,.233-.345c.227-.182.773-.478.818-.682" transform="translate(-3.818 -28.985)" fill="#f0f0f0"/>
          <path id="Trazado_7387" data-name="Trazado 7387" d="M10.625,61.348c.045-.2.182-.409.068-.591a1.114,1.114,0,0,1-.137-.614c0-.228-.591-1.023-.818-1.023s-.522.2-.772.159-.455-.136-.478.114c-.016.171-.408.518-.7.767a2.459,2.459,0,0,1,.149.378,2.026,2.026,0,0,0,.818,1.288c.158.13.465.325.82.55a1.268,1.268,0,0,1,.233-.345C10.034,61.848,10.58,61.552,10.625,61.348Z" transform="translate(-3.818 -28.985)" fill="#f0f0f0"/>
          <path id="Trazado_7388" data-name="Trazado 7388" d="M4.276,27.237c0-.234,1.07-.534,1.07-.768V23.729s3.341.067,3.442,0a8.029,8.029,0,0,0,.023-1.476c-.127-.215.054-.392-.736-.392H4.264a2.422,2.422,0,0,0-.561.94c-.182.484-1.318,1.2-1.364,1.878s-1.106,1.742-1.8,3.2a2.888,2.888,0,0,0-.3.964H4.276Z" transform="translate(-0.115 -10.718)" fill="#f0f0f0"/>
          <path id="Trazado_7389" data-name="Trazado 7389" d="M4.276,27.237c0-.234,1.07-.534,1.07-.768V23.729s3.341.067,3.442,0a8.029,8.029,0,0,0,.023-1.476c-.127-.215.054-.392-.736-.392H4.264a2.422,2.422,0,0,0-.561.94c-.182.484-1.318,1.2-1.364,1.878s-1.106,1.742-1.8,3.2a2.888,2.888,0,0,0-.3.964H4.276Z" transform="translate(-0.115 -10.718)" fill="#f0f0f0"/>
          <path id="Trazado_7390" data-name="Trazado 7390" d="M1.153,34.414a3.723,3.723,0,0,0,.937,0,1.2,1.2,0,0,1,.793-.072,2.213,2.213,0,0,1,.575.5h.36s.289.793.721.937a.894.894,0,0,1,.485.484c.308-.008.547-.109.547-.331,0-.276.138-.643.6-.229s.459.045.551-.092.414.046.69.046a1.819,1.819,0,0,0,.644-.184s3.815.046,4-.046.138-.873.138-.873l-.322-.321L10.9,25.181H12.63c-1.843-1.218-3.422-2.252-3.624-2.367a.512.512,0,0,1-.2-.184,7.955,7.955,0,0,1-.023,1.476c-.1.067-3.441,0-3.441,0v2.739c0,.234-1.069.534-1.069.768v1.6H.229c-.059.66.344.894.574,1.157.318.363-.242,1,.227,1.652S.925,33.677.7,34.041a2.426,2.426,0,0,0-.174.891l.053-.014c.289-.072.217-.577.577-.5" transform="translate(-0.11 -11.095)" fill="#f0f0f0"/>
          <path id="Trazado_7391" data-name="Trazado 7391" d="M1.153,34.414a3.723,3.723,0,0,0,.937,0,1.2,1.2,0,0,1,.793-.072,2.213,2.213,0,0,1,.575.5h.36s.289.793.721.937a.894.894,0,0,1,.485.484c.308-.008.547-.109.547-.331,0-.276.138-.643.6-.229s.459.045.551-.092.414.046.69.046a1.819,1.819,0,0,0,.644-.184s3.815.046,4-.046.138-.873.138-.873l-.322-.321L10.9,25.181H12.63c-1.843-1.218-3.422-2.252-3.624-2.367a.512.512,0,0,1-.2-.184,7.955,7.955,0,0,1-.023,1.476c-.1.067-3.441,0-3.441,0v2.739c0,.234-1.069.534-1.069.768v1.6H.229c-.059.66.344.894.574,1.157.318.363-.242,1,.227,1.652S.925,33.677.7,34.041a2.426,2.426,0,0,0-.174.891l.053-.014C.865,34.847.793,34.342,1.153,34.414Z" transform="translate(-0.11 -11.095)" fill="#f0f0f0"/>
          <path id="Trazado_7392" data-name="Trazado 7392" d="M25.872,34.274s0-.792-.5-1.081a3.438,3.438,0,0,0-1.152-.36,5.487,5.487,0,0,0-.648-.936c-.173-.173-3.546-2.428-6.32-4.262H15.52l.965,9.055.322.321s.045.781-.138.873-4,.046-4,.046a1.819,1.819,0,0,1-.644.183c-.275,0-.6-.183-.69-.046s-.092.506-.551.093-.6-.046-.6.229c0,.222-.239.323-.547.331a1.519,1.519,0,0,1,.092.237l.188.279s-.03.455.152.636a2.518,2.518,0,0,1,.545.667,7.28,7.28,0,0,1,0,.818s.121.515.3.274.455.212.576-.092.515.061.7.061.606-.545.727-.515a1.3,1.3,0,0,1,.395.758c0,.212.545.425.363.484s-.212.364,0,.364.121.395.242.576.364.333.485.061.394-.031.515.151.516-.031.576-.273.545-.333.515-.061.06.334.364.122a.387.387,0,0,1,.29-.06,6.645,6.645,0,0,1,.285-.788c.091-.182-.212-.606-.061-.667s.667.061.818-.364a2.189,2.189,0,0,1,.334-.637s.06-.908.333-.756.606.394.637.03.363-.151.454-.484.273-.3.485-.243.394-.03.394-.212.485-.09.879-.363.606-.485.757-.334a2.707,2.707,0,0,0,1.3.061c.151-.061.454-.333.818-.273a14.368,14.368,0,0,0,1.606-.152c.364,0,.516-.333.637-.454s.212-.666.334-.757a19.273,19.273,0,0,0,.066-2.727c-.366.075-.873.188-.873.188" transform="translate(-4.727 -13.549)" fill="#f0f0f0"/>
          <path id="Trazado_7393" data-name="Trazado 7393" d="M25.872,34.274s0-.792-.5-1.081a3.438,3.438,0,0,0-1.152-.36,5.487,5.487,0,0,0-.648-.936c-.173-.173-3.546-2.428-6.32-4.262H15.52l.965,9.055.322.321s.045.781-.138.873-4,.046-4,.046a1.819,1.819,0,0,1-.644.183c-.275,0-.6-.183-.69-.046s-.092.506-.551.093-.6-.046-.6.229c0,.222-.239.323-.547.331a1.519,1.519,0,0,1,.092.237l.188.279s-.03.455.152.636a2.518,2.518,0,0,1,.545.667,7.28,7.28,0,0,1,0,.818s.121.515.3.274.455.212.576-.092.515.061.7.061.606-.545.727-.515a1.3,1.3,0,0,1,.395.758c0,.212.545.425.363.484s-.212.364,0,.364.121.395.242.576.364.333.485.061.394-.031.515.151.516-.031.576-.273.545-.333.515-.061.06.334.364.122a.387.387,0,0,1,.29-.06,6.645,6.645,0,0,1,.285-.788c.091-.182-.212-.606-.061-.667s.667.061.818-.364a2.189,2.189,0,0,1,.334-.637s.06-.908.333-.756.606.394.637.03.363-.151.454-.484.273-.3.485-.243.394-.03.394-.212.485-.09.879-.363.606-.485.757-.334a2.707,2.707,0,0,0,1.3.061c.151-.061.454-.333.818-.273a14.368,14.368,0,0,0,1.606-.152c.364,0,.516-.333.637-.454s.212-.666.334-.757a19.273,19.273,0,0,0,.066-2.727C26.378,34.162,25.872,34.274,25.872,34.274Z" transform="translate(-4.727 -13.549)" fill="#f0f0f0"/>
          <path id="Trazado_7394" data-name="Trazado 7394" d="M31.8,51.915a.748.748,0,0,0-.415-.187c-.091,0-.023-.5-.068-.568s-.341.136-.523.068-.25-.363-.409-.363-.182-.181-.182-.386-.3-.409-.477-.545-.227-.522-.341-.591c-.065-.039-.04-.318-.007-.55a1.275,1.275,0,0,1-.637-.11c-.151-.151-.363.061-.757.334s-.879.182-.879.363-.182.273-.394.212-.394-.091-.485.243-.424.12-.455.484-.363.121-.637-.03-.333.756-.333.756a2.2,2.2,0,0,0-.334.637c-.151.425-.666.3-.818.364s.152.485.061.667a6.771,6.771,0,0,0-.286.789.834.834,0,0,1,.5.333c.091.15.637.726.909.424a1.137,1.137,0,0,1,1.212-.151c.182.182.3.09.334-.091s-.3-.849-.182-1.031a6.687,6.687,0,0,1,2.576.061c.09.152.09-.3.394-.273a4.012,4.012,0,0,0,.939.121c.182-.061.394-.4.575-.4s.727-.029.849-.181.333-.152.273-.394l0-.011" transform="translate(-11.483 -23.843)" fill="#f0f0f0"/>
          <path id="Trazado_7395" data-name="Trazado 7395" d="M31.8,51.915a.748.748,0,0,0-.415-.187c-.091,0-.023-.5-.068-.568s-.341.136-.523.068-.25-.363-.409-.363-.182-.181-.182-.386-.3-.409-.477-.545-.227-.522-.341-.591c-.065-.039-.04-.318-.007-.55a1.275,1.275,0,0,1-.637-.11c-.151-.151-.363.061-.757.334s-.879.182-.879.363-.182.273-.394.212-.394-.091-.485.243-.424.12-.455.484-.363.121-.637-.03-.333.756-.333.756a2.2,2.2,0,0,0-.334.637c-.151.425-.666.3-.818.364s.152.485.061.667a6.771,6.771,0,0,0-.286.789.834.834,0,0,1,.5.333c.091.15.637.726.909.424a1.137,1.137,0,0,1,1.212-.151c.182.182.3.09.334-.091s-.3-.849-.182-1.031a6.687,6.687,0,0,1,2.576.061c.09.152.09-.3.394-.273a4.012,4.012,0,0,0,.939.121c.182-.061.394-.4.575-.4s.727-.029.849-.181.333-.152.273-.394Z" transform="translate(-11.483 -23.843)" fill="#f0f0f0"/>
          <path id="Trazado_7396" data-name="Trazado 7396" d="M50.219,32.719c0-.148-.034-.818-.06-1.316l-.814.44a2.305,2.305,0,0,0-.648-.648,3.733,3.733,0,0,0-1.512-.289l-4.4,2.739-1.873,1.512s-1.225.433-1.585.5l-.137.028a19.128,19.128,0,0,1-.066,2.727c-.122.091-.213.637-.334.757s-.273.455-.637.455a14.369,14.369,0,0,1-1.606.152c-.363-.061-.667.212-.818.273a2.783,2.783,0,0,1-.666.048c-.033.232-.058.511.007.551.114.068.159.454.341.591s.477.34.477.545.023.387.181.387.228.3.409.363.477-.137.523-.068-.023.568.068.568a.749.749,0,0,1,.416.187c-.055-.241.066-.563.365-.474s.06.364.333.485.425.03.425-.182.364-.636.455-.727.06-.667.242-.819.727-.03.939,0,.363-.425.606-.212.637.031.819.243.272.727.575.545a1.82,1.82,0,0,1,.848-.242c.182,0,.607.363.789.424a1.858,1.858,0,0,0,1,0c.212-.121.485-.515.757-.485a8.943,8.943,0,0,1,1.3.03c.182.091.576.3.849.212s.515-.606.727-.667a.237.237,0,0,1,.146,0c0-.118.006-.23.006-.33,0-.545.121-.333.213-.879a7.508,7.508,0,0,1,1.636-2.061,16.452,16.452,0,0,0,.12-2.545,4.112,4.112,0,0,1,.181-1.09c.122-.425-.212-.394-.181-.788s-.424-.7-.424-.94" transform="translate(-17.176 -15.152)" fill="#f0f0f0"/>
          <path id="Trazado_7397" data-name="Trazado 7397" d="M50.219,32.719c0-.148-.034-.818-.06-1.316l-.814.44a2.305,2.305,0,0,0-.648-.648,3.733,3.733,0,0,0-1.512-.289l-4.4,2.739-1.873,1.512s-1.225.433-1.585.5l-.137.028a19.128,19.128,0,0,1-.066,2.727c-.122.091-.213.637-.334.757s-.273.455-.637.455a14.369,14.369,0,0,1-1.606.152c-.363-.061-.667.212-.818.273a2.783,2.783,0,0,1-.666.048c-.033.232-.058.511.007.551.114.068.159.454.341.591s.477.34.477.545.023.387.181.387.228.3.409.363.477-.137.523-.068-.023.568.068.568a.749.749,0,0,1,.416.187c-.055-.241.066-.563.365-.474s.06.364.333.485.425.03.425-.182.364-.636.455-.727.06-.667.242-.819.727-.03.939,0,.363-.425.606-.212.637.031.819.243.272.727.575.545a1.82,1.82,0,0,1,.848-.242c.182,0,.607.363.789.424a1.858,1.858,0,0,0,1,0c.212-.121.485-.515.757-.485a8.943,8.943,0,0,1,1.3.03c.182.091.576.3.849.212s.515-.606.727-.667a.237.237,0,0,1,.146,0c0-.118.006-.23.006-.33,0-.545.121-.333.213-.879a7.508,7.508,0,0,1,1.636-2.061,16.452,16.452,0,0,0,.12-2.545,4.112,4.112,0,0,1,.181-1.09c.122-.425-.212-.394-.181-.788S50.219,32.963,50.219,32.719Z" transform="translate(-17.176 -15.152)" fill="#f0f0f0"/>
          <path id="Trazado_7398" data-name="Trazado 7398" d="M72.01,35.113l-7.823-4.207-.915.5c.025.5.06,1.168.06,1.316,0,.243.454.546.424.939s.3.363.181.788a4.113,4.113,0,0,0-.181,1.091,16.388,16.388,0,0,1-.121,2.545A7.526,7.526,0,0,0,62,40.144c-.091.545-.213.333-.213.879,0,.1,0,.212-.005.33.078.027.113.112.217.215.152.151.152.425.455.425s.667.7.637.969.152.424.121.91a2.018,2.018,0,0,0,.425,1.273c.151.09-.062.181-.425.151s-.878-.03-.878.121a.644.644,0,0,0,.242.728c.4.363.728.484.849.878a2.2,2.2,0,0,0,.395.849c.12.091.363.061.575-.242s.455.272.667,0,.94-.243,1.121-.334a6.62,6.62,0,0,0,.909-.485c.181-.151-.212-.394.061-.545s1.121.121,1.454-.3a11.119,11.119,0,0,1,1-1.03c.151-.151,0-.273.212-.485s.636-.455.848-.333a.39.39,0,0,0,.178.04l-.033-.039.127-.442s-.506-.253-.506-.632.126-.758-.19-.758-.38-.317-.127-.569-.379-.759.064-.759.127-.695.443-.758S71,39.88,71,39.563s.7-.506.885-.569.126-1.073.126-1.073Z" transform="translate(-30.29 -15.152)" fill="#f0f0f0"/>
          <path id="Trazado_7399" data-name="Trazado 7399" d="M72.01,35.113l-7.823-4.207-.915.5c.025.5.06,1.168.06,1.316,0,.243.454.546.424.939s.3.363.181.788a4.113,4.113,0,0,0-.181,1.091,16.388,16.388,0,0,1-.121,2.545A7.526,7.526,0,0,0,62,40.144c-.091.545-.213.333-.213.879,0,.1,0,.212-.005.33.078.027.113.112.217.215.152.151.152.425.455.425s.667.7.637.969.152.424.121.91a2.018,2.018,0,0,0,.425,1.273c.151.09-.062.181-.425.151s-.878-.03-.878.121a.644.644,0,0,0,.242.728c.4.363.728.484.849.878a2.2,2.2,0,0,0,.395.849c.12.091.363.061.575-.242s.455.272.667,0,.94-.243,1.121-.334a6.62,6.62,0,0,0,.909-.485c.181-.151-.212-.394.061-.545s1.121.121,1.454-.3a11.119,11.119,0,0,1,1-1.03c.151-.151,0-.273.212-.485s.636-.455.848-.333a.39.39,0,0,0,.178.04l-.033-.039.127-.442s-.506-.253-.506-.632.126-.758-.19-.758-.38-.317-.127-.569-.379-.759.064-.759.127-.695.443-.758S71,39.88,71,39.563s.7-.506.885-.569.126-1.073.126-1.073Z" transform="translate(-30.29 -15.152)" fill="#f0f0f0"/>
          <path id="Trazado_7400" data-name="Trazado 7400" d="M93.737,14.849,93,13.044a1.224,1.224,0,0,1-.115.161c-.121.122-.621-.181-1.091-.061a1.743,1.743,0,0,1-1.288-.272,2.928,2.928,0,0,0-2.136.349c-.2.287-.7.287-1.151.106a6.113,6.113,0,0,0-1.878-.531,3.028,3.028,0,0,1-1.547-.37l-.094.255c-.253.7.19.885-.126,1.264s0,.822,0,1.516v7.895h6.251l.364-.243c.182-.121.485.181.485.181h1.332a.83.83,0,0,0,.546.3c.3,0,.121-.485.607-.485s.363-.728.666-.728.243.062.545-.363c.009-.013.024-.03.034-.043a1.278,1.278,0,0,1,0-.411c.076-.485-.258-.455-.469-1.137s-1.061-1.7-1.091-2.091-.5-.62-.485-1.045-.227-.469-.7-1.137a2.708,2.708,0,0,1-.47-1.878c.136-.045.53.985.682,1.318s.667,1.349,1.031,1.349.5-1.531.621-1.454a.079.079,0,0,1,.025.044l.039-.277Z" transform="translate(-40.905 -6.093)" fill="#f0f0f0"/>
          <path id="Trazado_7401" data-name="Trazado 7401" d="M93.737,14.849,93,13.044a1.224,1.224,0,0,1-.115.161c-.121.122-.621-.181-1.091-.061a1.743,1.743,0,0,1-1.288-.272,2.928,2.928,0,0,0-2.136.349c-.2.287-.7.287-1.151.106a6.113,6.113,0,0,0-1.878-.531,3.028,3.028,0,0,1-1.547-.37l-.094.255c-.253.7.19.885-.126,1.264s0,.822,0,1.516v7.895h6.251l.364-.243c.182-.121.485.181.485.181h1.332a.83.83,0,0,0,.546.3c.3,0,.121-.485.607-.485s.363-.728.666-.728.243.062.545-.363c.009-.013.024-.03.034-.043a1.278,1.278,0,0,1,0-.411c.076-.485-.258-.455-.469-1.137s-1.061-1.7-1.091-2.091-.5-.62-.485-1.045-.227-.469-.7-1.137a2.708,2.708,0,0,1-.47-1.878c.136-.045.53.985.682,1.318s.667,1.349,1.031,1.349.5-1.531.621-1.454a.079.079,0,0,1,.025.044l.039-.277Z" transform="translate(-40.905 -6.093)" fill="#f0f0f0"/>
          <path id="Trazado_7402" data-name="Trazado 7402" d="M55.291,80.8c.507,0,.317-.317.126-.824s.318-.443.634-.443.19-.571.443-.571.317.7.57.634.443.19.761.127.317-.7.317-1.2.063-.887-.253-1.077-.57-.634-.19-.824a.462.462,0,0,0,.126-.823c-.317-.254-1.014.253-1.014,0,0-.139.057-.634.108-1.057-.733-.024-1.523-.065-1.523-.065l-.189.055a7.046,7.046,0,0,1-.042,1.32s-1.141.064-1.394.064c-.055,0-.229.024-.474.062a1.372,1.372,0,0,1-.174.216c-.136.136.318.318.395.514s-.576.137-.562.425a.84.84,0,0,1-.409.651c-.182.136.485.713.5.909s.167.379.743.94c.549.535.287.671,1.014,1.262a.57.57,0,0,1,.488-.292" transform="translate(-25.746 -36.61)" fill="#f0f0f0"/>
          <path id="Trazado_7403" data-name="Trazado 7403" d="M55.291,80.8c.507,0,.317-.317.126-.824s.318-.443.634-.443.19-.571.443-.571.317.7.57.634.443.19.761.127.317-.7.317-1.2.063-.887-.253-1.077-.57-.634-.19-.824a.462.462,0,0,0,.126-.823c-.317-.254-1.014.253-1.014,0,0-.139.057-.634.108-1.057-.733-.024-1.523-.065-1.523-.065l-.189.055a7.046,7.046,0,0,1-.042,1.32s-1.141.064-1.394.064c-.055,0-.229.024-.474.062a1.372,1.372,0,0,1-.174.216c-.136.136.318.318.395.514s-.576.137-.562.425a.84.84,0,0,1-.409.651c-.182.136.485.713.5.909s.167.379.743.94c.549.535.287.671,1.014,1.262A.57.57,0,0,1,55.291,80.8Z" transform="translate(-25.746 -36.61)" fill="#f0f0f0"/>
          <path id="Trazado_7404" data-name="Trazado 7404" d="M55.694,76.1a7.046,7.046,0,0,0,.042-1.32l-.253.072H54.064a.186.186,0,0,0,.011.03.437.437,0,0,1-.242.667c-.318.107-.3.394-.046.409.159.01.122.139.038.269.245-.038.419-.062.474-.062.253,0,1.394-.064,1.394-.064" transform="translate(-26.276 -36.662)" fill="#f0f0f0"/>
          <path id="Trazado_7405" data-name="Trazado 7405" d="M55.694,76.1a7.046,7.046,0,0,0,.042-1.32l-.253.072H54.064a.186.186,0,0,0,.011.03.437.437,0,0,1-.242.667c-.318.107-.3.394-.046.409.159.01.122.139.038.269.245-.038.419-.062.474-.062C54.553,76.163,55.694,76.1,55.694,76.1Z" transform="translate(-26.276 -36.662)" fill="#f0f0f0"/>
          <path id="Trazado_7406" data-name="Trazado 7406" d="M58.949,80.351c.19.064.317.38.7.064s.824-.253.824.064.127.253.443-.064.634.063.634-.571.38-.063.38-.759.063-1.395.063-1.711.887-.633.887-1.14.76-1.521.76-2.154A1.546,1.546,0,0,1,64.017,73a1.671,1.671,0,0,0,.152-1.063v.008l-.885-.126-.442.126-.569.126a1.1,1.1,0,0,1-.19.758,2.4,2.4,0,0,0-.316,1.011,4.77,4.77,0,0,0-1.453-.506,9.886,9.886,0,0,1-1.2,0c-.052.423-.108.918-.108,1.056,0,.253.7-.254,1.014,0a.462.462,0,0,1-.126.824c-.38.19-.127.633.19.824s.253.57.253,1.077,0,1.14-.317,1.2-.507-.19-.76-.127-.317-.634-.57-.634-.126.57-.443.57-.824-.063-.634.443.38.824-.126.824a.572.572,0,0,0-.489.292c.034.028.068.056.108.086a2.987,2.987,0,0,1,.878,1.082,2.67,2.67,0,0,1,.96-.509" transform="translate(-27.947 -35.212)" fill="#f0f0f0"/>
          <path id="Trazado_7407" data-name="Trazado 7407" d="M58.949,80.351c.19.064.317.38.7.064s.824-.253.824.064.127.253.443-.064.634.063.634-.571.38-.063.38-.759.063-1.395.063-1.711.887-.633.887-1.14.76-1.521.76-2.154A1.546,1.546,0,0,1,64.017,73a1.671,1.671,0,0,0,.152-1.063v.008l-.885-.126-.442.126-.569.126a1.1,1.1,0,0,1-.19.758,2.4,2.4,0,0,0-.316,1.011,4.77,4.77,0,0,0-1.453-.506,9.886,9.886,0,0,1-1.2,0c-.052.423-.108.918-.108,1.056,0,.253.7-.254,1.014,0a.462.462,0,0,1-.126.824c-.38.19-.127.633.19.824s.253.57.253,1.077,0,1.14-.317,1.2-.507-.19-.76-.127-.317-.634-.57-.634-.126.57-.443.57-.824-.063-.634.443.38.824-.126.824a.572.572,0,0,0-.489.292c.034.028.068.056.108.086a2.987,2.987,0,0,1,.878,1.082A2.67,2.67,0,0,1,58.949,80.351Z" transform="translate(-27.947 -35.212)" fill="#f0f0f0"/>
          <path id="Trazado_7408" data-name="Trazado 7408" d="M91.075,31.576c-.3,0-.182.728-.666.728s-.3.485-.607.485a.828.828,0,0,1-.545-.3H87.924s-.3-.3-.485-.181l-.364.243H80.824V34.7h-.949v3.35s.064,1.011-.126,1.074-.885.253-.885.569-.063.569-.379.632,0,.758-.442.758.19.506-.064.759-.19.569.127.569.19.378.19.757.506.632.506.632l-.127.443a8.371,8.371,0,0,1,.759,1.011c.063.19.442.7.063.885s-.127.379-.127.379l.442.063.127.317a1.165,1.165,0,0,1,.822.379c.316.379.442.442.442.632s.253.253.632.569.378.506.378.7.7.506.7.506l.237.59a.518.518,0,0,1,.266.268,1.192,1.192,0,0,0,.443.507s.38.253.634,0,.57.064.57.064.318-.254.507-.127c.129.086.695.551,1.185,1a4.666,4.666,0,0,1,.757-.222c.227-.023.545.363.636.227a.9.9,0,0,1,.75-.25c.182.091.613.113.636-.045.015-.108.209-.217.346-.332a.367.367,0,0,0,.131-.167c.045-.182.591-.5.818-.546s.5-.068.614.068a.678.678,0,0,0,.255.155c.077-.582.206-.9.017-.9a1.187,1.187,0,0,1-.95-.76c-.19-.507-.761-.823-.886-1.141s-.825-.253-.951-.507.19-.253.19-.57.761-.127.824-.191a4.317,4.317,0,0,0,.127-1.14c0-.38.507-.759.317-.95s.19-.253.444-.443.063-.761.317-1.015.443-.759.633-.759a.543.543,0,0,0,.443-.507c0-.253.444-.759.381-1.2s-.254-1.014.063-1.394a1.215,1.215,0,0,0,.38-1.013c-.064-.317.38-.38.57-.57a3.341,3.341,0,0,0,.979-.912,2.329,2.329,0,0,0-.637-.588c-.363-.166-.606-.8-.606-1.605A9.036,9.036,0,0,0,93.12,33a1.933,1.933,0,0,0-.893-1.061,1.07,1.07,0,0,1-.573-.77c-.01.013-.025.03-.034.043-.3.425-.242.363-.545.363" transform="translate(-38.154 -15.282)" fill="#f0f0f0"/>
          <path id="Trazado_7409" data-name="Trazado 7409" d="M91.075,31.576c-.3,0-.182.728-.666.728s-.3.485-.607.485a.828.828,0,0,1-.545-.3H87.924s-.3-.3-.485-.181l-.364.243H80.824V34.7h-.949v3.35s.064,1.011-.126,1.074-.885.253-.885.569-.063.569-.379.632,0,.758-.442.758.19.506-.064.759-.19.569.127.569.19.378.19.757.506.632.506.632l-.127.443a8.371,8.371,0,0,1,.759,1.011c.063.19.442.7.063.885s-.127.379-.127.379l.442.063.127.317a1.165,1.165,0,0,1,.822.379c.316.379.442.442.442.632s.253.253.632.569.378.506.378.7.7.506.7.506l.237.59a.518.518,0,0,1,.266.268,1.192,1.192,0,0,0,.443.507s.38.253.634,0,.57.064.57.064.318-.254.507-.127c.129.086.695.551,1.185,1a4.666,4.666,0,0,1,.757-.222c.227-.023.545.363.636.227a.9.9,0,0,1,.75-.25c.182.091.613.113.636-.045.015-.108.209-.217.346-.332a.367.367,0,0,0,.131-.167c.045-.182.591-.5.818-.546s.5-.068.614.068a.678.678,0,0,0,.255.155c.077-.582.206-.9.017-.9a1.187,1.187,0,0,1-.95-.76c-.19-.507-.761-.823-.886-1.141s-.825-.253-.951-.507.19-.253.19-.57.761-.127.824-.191a4.317,4.317,0,0,0,.127-1.14c0-.38.507-.759.317-.95s.19-.253.444-.443.063-.761.317-1.015.443-.759.633-.759a.543.543,0,0,0,.443-.507c0-.253.444-.759.381-1.2s-.254-1.014.063-1.394a1.215,1.215,0,0,0,.38-1.013c-.064-.317.38-.38.57-.57a3.341,3.341,0,0,0,.979-.912,2.329,2.329,0,0,0-.637-.588c-.363-.166-.606-.8-.606-1.605A9.036,9.036,0,0,0,93.12,33a1.933,1.933,0,0,0-.893-1.061,1.07,1.07,0,0,1-.573-.77c-.01.013-.025.03-.034.043C91.318,31.637,91.378,31.576,91.075,31.576Z" transform="translate(-38.154 -15.282)" fill="#f0f0f0"/>
          <path id="Trazado_7410" data-name="Trazado 7410" d="M117.826,53.681a6.262,6.262,0,0,1-.5.713.919.919,0,0,0-.032.862c.064.128.384.1.575-.032.149-.1.26-.042.483.168a4.238,4.238,0,0,1,.424-.506c-.253-.147-.487-.172-.549-.233-.106-.106.3-.408.591-.469s.151-.394-.091-.606c-.04-.035-.086-.078-.136-.124a1.219,1.219,0,0,0-.278.194c-.075.1-.244.063-.49.035" transform="translate(-57.461 -26.206)" fill="#f0f0f0"/>
          <path id="Trazado_7411" data-name="Trazado 7411" d="M117.826,53.681a6.262,6.262,0,0,1-.5.713.919.919,0,0,0-.032.862c.064.128.384.1.575-.032.149-.1.26-.042.483.168a4.238,4.238,0,0,1,.424-.506c-.253-.147-.487-.172-.549-.233-.106-.106.3-.408.591-.469s.151-.394-.091-.606c-.04-.035-.086-.078-.136-.124a1.219,1.219,0,0,0-.278.194C118.241,53.746,118.072,53.709,117.826,53.681Z" transform="translate(-57.461 -26.206)" fill="#f0f0f0"/>
          <path id="Trazado_7412" data-name="Trazado 7412" d="M107.713,43.306c-.191.19-.634.253-.57.57a1.216,1.216,0,0,1-.38,1.014c-.315.378-.129.943-.064,1.385a1.934,1.934,0,0,1,.857.045c.16.16.223,0,.319-.319s.287-.287.48-.127.319.415.638.255.287-.064.448,0,.8-.032,1.022,0a22.981,22.981,0,0,1,2.172,2.108l-.013.022c.246.028.414.065.49-.035a1.219,1.219,0,0,1,.278-.194,11.483,11.483,0,0,1-1.091-1.224,2.676,2.676,0,0,0-1.622-1.121c-.363,0-.424-.621-.651-.651s-.743-.925-.758-1.5a2.3,2.3,0,0,0-.575-1.139,3.341,3.341,0,0,1-.979.912" transform="translate(-52.255 -20.785)" fill="#f0f0f0"/>
          <path id="Trazado_7413" data-name="Trazado 7413" d="M107.713,43.306c-.191.19-.634.253-.57.57a1.216,1.216,0,0,1-.38,1.014c-.315.378-.129.943-.064,1.385a1.934,1.934,0,0,1,.857.045c.16.16.223,0,.319-.319s.287-.287.48-.127.319.415.638.255.287-.064.448,0,.8-.032,1.022,0a22.981,22.981,0,0,1,2.172,2.108l-.013.022c.246.028.414.065.49-.035a1.219,1.219,0,0,1,.278-.194,11.483,11.483,0,0,1-1.091-1.224,2.676,2.676,0,0,0-1.622-1.121c-.363,0-.424-.621-.651-.651s-.743-.925-.758-1.5a2.3,2.3,0,0,0-.575-1.139A3.341,3.341,0,0,1,107.713,43.306Z" transform="translate(-52.255 -20.785)" fill="#f0f0f0"/>
          <path id="Trazado_7414" data-name="Trazado 7414" d="M100.522,56.8c.126.318.7.634.886,1.141a1.188,1.188,0,0,0,.951.761c.189,0,.061.318-.017.9a3.248,3.248,0,0,1,.335.141c.159.09.818,0,1.045.2a3.527,3.527,0,0,0,1.182.682,4.581,4.581,0,0,1,1.182.2c.137.092.318-.341.682-.545s.818-.34.886-.181a.406.406,0,0,0,.5.2,3.006,3.006,0,0,1,.511-.144,4.149,4.149,0,0,1,.83-.129c.182.022.682-.7,1.341-.7s.841.114,1.137-.2,2.523-2.568,2.727-2.727-.136-.227-.363-.227a3.621,3.621,0,0,1-1.409-.319c-.728-.3-1.864-.682-2.068-.727s-.5-.523-.682-.614a3.1,3.1,0,0,1-.637-.932c-.031-.071.041-.217.156-.382-.223-.209-.334-.267-.483-.168-.192.128-.511.161-.575.032a.92.92,0,0,1,.032-.862,6.547,6.547,0,0,0,.511-.735,22.983,22.983,0,0,0-2.172-2.108c-.224-.032-.862.064-1.022,0s-.128-.16-.448,0-.447-.1-.638-.255-.383-.192-.48.127-.16.479-.32.319a1.93,1.93,0,0,0-.857-.045l0,.008c.063.444-.381.951-.381,1.2a.543.543,0,0,1-.443.508c-.191,0-.38.507-.634.759s-.063.824-.317,1.014-.634.253-.444.443-.317.57-.317.95a4.322,4.322,0,0,1-.127,1.141c-.063.064-.823-.126-.823.191s-.318.317-.19.57.823.19.951.506" transform="translate(-48.802 -24.018)" fill="#f0f0f0"/>
          <path id="Trazado_7415" data-name="Trazado 7415" d="M100.522,56.8c.126.318.7.634.886,1.141a1.188,1.188,0,0,0,.951.761c.189,0,.061.318-.017.9a3.248,3.248,0,0,1,.335.141c.159.09.818,0,1.045.2a3.527,3.527,0,0,0,1.182.682,4.581,4.581,0,0,1,1.182.2c.137.092.318-.341.682-.545s.818-.34.886-.181a.406.406,0,0,0,.5.2,3.006,3.006,0,0,1,.511-.144,4.149,4.149,0,0,1,.83-.129c.182.022.682-.7,1.341-.7s.841.114,1.137-.2,2.523-2.568,2.727-2.727-.136-.227-.363-.227a3.621,3.621,0,0,1-1.409-.319c-.728-.3-1.864-.682-2.068-.727s-.5-.523-.682-.614a3.1,3.1,0,0,1-.637-.932c-.031-.071.041-.217.156-.382-.223-.209-.334-.267-.483-.168-.192.128-.511.161-.575.032a.92.92,0,0,1,.032-.862,6.547,6.547,0,0,0,.511-.735,22.983,22.983,0,0,0-2.172-2.108c-.224-.032-.862.064-1.022,0s-.128-.16-.448,0-.447-.1-.638-.255-.383-.192-.48.127-.16.479-.32.319a1.93,1.93,0,0,0-.857-.045l0,.008c.063.444-.381.951-.381,1.2a.543.543,0,0,1-.443.508c-.191,0-.38.507-.634.759s-.063.824-.317,1.014-.634.253-.444.443-.317.57-.317.95a4.322,4.322,0,0,1-.127,1.141c-.063.064-.823-.126-.823.191s-.318.317-.19.57S100.394,56.487,100.522,56.8Z" transform="translate(-48.802 -24.018)" fill="#f0f0f0"/>
          <path id="Trazado_7416" data-name="Trazado 7416" d="M108.551,71.58l.472-.734.489-.717a3.06,3.06,0,0,0-.511.144.407.407,0,0,1-.5-.2c-.068-.159-.523-.023-.886.181s-.545.637-.682.545a4.577,4.577,0,0,0-1.182-.2,3.532,3.532,0,0,1-1.182-.682c-.227-.2-.886-.114-1.045-.2s-.477-.159-.59-.3-.386-.113-.615-.068-.772.363-.818.546a.367.367,0,0,1-.131.167l.467.425.1.734.419.368a7.9,7.9,0,0,1-.051.84,2.51,2.51,0,0,1-.683,1.206,2.446,2.446,0,0,0-.3.637c.4.1.7.253.678.374-.045.25-.726.137-.726.659,0,.035,0,.069-.006.1l3.872,2.055-.052.631s.87.636,1.719,1.221a21.848,21.848,0,0,1,1-2.23c.227-.348.454-.287.651-.53s.257.122.561-.364c.024-.037.054-.08.088-.124l-.508-.8Z" transform="translate(-49.649 -33.979)" fill="#f0f0f0"/>
          <path id="Trazado_7417" data-name="Trazado 7417" d="M108.551,71.58l.472-.734.489-.717a3.06,3.06,0,0,0-.511.144.407.407,0,0,1-.5-.2c-.068-.159-.523-.023-.886.181s-.545.637-.682.545a4.577,4.577,0,0,0-1.182-.2,3.532,3.532,0,0,1-1.182-.682c-.227-.2-.886-.114-1.045-.2s-.477-.159-.59-.3-.386-.113-.615-.068-.772.363-.818.546a.367.367,0,0,1-.131.167l.467.425.1.734.419.368a7.9,7.9,0,0,1-.051.84,2.51,2.51,0,0,1-.683,1.206,2.446,2.446,0,0,0-.3.637c.4.1.7.253.678.374-.045.25-.726.137-.726.659,0,.035,0,.069-.006.1l3.872,2.055-.052.631s.87.636,1.719,1.221a21.848,21.848,0,0,1,1-2.23c.227-.348.454-.287.651-.53s.257.122.561-.364c.024-.037.054-.08.088-.124l-.508-.8Z" transform="translate(-49.649 -33.979)" fill="#f0f0f0"/>
          <path id="Trazado_7418" data-name="Trazado 7418" d="M97.608,71.933l-.1-.734-.467-.425c-.138.115-.331.224-.347.332-.023.159-.454.136-.636.045a.9.9,0,0,0-.75.25c-.091.137-.409-.25-.637-.227a4.861,4.861,0,0,0-.772.227s-.091.636-.091.886.341.3.341.5-.273.386-.3.522-.2.227-.432.3-.2.432-.386.568-.136.478-.25.728a2.292,2.292,0,0,0-.181.885,1.319,1.319,0,0,1-.17.745.714.714,0,0,0,.511-.089,9.89,9.89,0,0,1,1.049-.315l.855-.069c.19-.535.47-1.021.778-1.112a2.849,2.849,0,0,1,1.367.035,2.446,2.446,0,0,1,.3-.637,2.512,2.512,0,0,0,.683-1.206,7.885,7.885,0,0,0,.051-.84Z" transform="translate(-45.315 -34.699)" fill="#f0f0f0"/>
          <path id="Trazado_7419" data-name="Trazado 7419" d="M97.608,71.933l-.1-.734-.467-.425c-.138.115-.331.224-.347.332-.023.159-.454.136-.636.045a.9.9,0,0,0-.75.25c-.091.137-.409-.25-.637-.227a4.861,4.861,0,0,0-.772.227s-.091.636-.091.886.341.3.341.5-.273.386-.3.522-.2.227-.432.3-.2.432-.386.568-.136.478-.25.728a2.292,2.292,0,0,0-.181.885,1.319,1.319,0,0,1-.17.745.714.714,0,0,0,.511-.089,9.89,9.89,0,0,1,1.049-.315l.855-.069c.19-.535.47-1.021.778-1.112a2.849,2.849,0,0,1,1.367.035,2.446,2.446,0,0,1,.3-.637,2.512,2.512,0,0,0,.683-1.206,7.885,7.885,0,0,0,.051-.84Z" transform="translate(-45.315 -34.699)" fill="#f0f0f0"/>
          <path id="Trazado_7420" data-name="Trazado 7420" d="M126.257,103.787c-.136-.5-.243.181-.363.3a1.1,1.1,0,0,0-.152.727c.031.243-.363.485-.605.455s-.637.121-.515.455-.181.273-.031.545-.333.607-.758.637-.969.789-1.424.727-.909.3-1.3.243-.121.819-.424,1.364a2.116,2.116,0,0,0,.121,1.847,1.69,1.69,0,0,1-.243,2.091,2.329,2.329,0,0,0-.394,2.454c.273.607.273,1.515.667,1.94s1.485.788,1.818.454.684.045,1.06-.394a30.017,30.017,0,0,0,1.485-4.3,21.763,21.763,0,0,0,1.121-4c-.06-.425.364-.7.182-1.152s.06-1,.272-.636.515.364.606-.12-.364-1.243-.394-1.94-.636-1.364-.727-1.7" transform="translate(-58.821 -50.796)" fill="#f0f0f0"/>
          <path id="Trazado_7421" data-name="Trazado 7421" d="M126.257,103.787c-.136-.5-.243.181-.363.3a1.1,1.1,0,0,0-.152.727c.031.243-.363.485-.605.455s-.637.121-.515.455-.181.273-.031.545-.333.607-.758.637-.969.789-1.424.727-.909.3-1.3.243-.121.819-.424,1.364a2.116,2.116,0,0,0,.121,1.847,1.69,1.69,0,0,1-.243,2.091,2.329,2.329,0,0,0-.394,2.454c.273.607.273,1.515.667,1.94s1.485.788,1.818.454.684.045,1.06-.394a30.017,30.017,0,0,0,1.485-4.3,21.763,21.763,0,0,0,1.121-4c-.06-.425.364-.7.182-1.152s.06-1,.272-.636.515.364.606-.12-.364-1.243-.394-1.94S126.348,104.12,126.257,103.787Z" transform="translate(-58.821 -50.796)" fill="#f0f0f0"/>
          <path id="Trazado_7422" data-name="Trazado 7422" d="M76.134,81.237c-.5-.273-.7-3.7-.455-3.795.033-.012.064.024.1.1l-.05-.777a.4.4,0,0,1-.068-.021.306.306,0,0,1-.2-.3.27.27,0,0,1,.227-.3s-.044-.568.205-.659a.293.293,0,0,0,.125-.1,1.32,1.32,0,0,0,.17-.745,2.291,2.291,0,0,1,.181-.885c.114-.25.068-.591.25-.728s.16-.5.386-.568.409-.159.432-.3.3-.318.3-.522-.341-.25-.341-.5.091-.886.091-.886l.015-.005c-.49-.448-1.055-.913-1.184-1-.189-.126-.507.127-.507.127s-.317-.318-.57-.064-.634,0-.634,0a1.192,1.192,0,0,1-.443-.507.517.517,0,0,0-.265-.268l.016.041-.758.127s-.948-.506-1.137-.127-.379.127-.822.127a2.41,2.41,0,0,0-1.074.316c-.253.127-.632-.126-.822,0s-.316.7-.316.7l-1.959-.379s-.379-.569-.822-.569-1.075.822-1.075.822v.687a1.675,1.675,0,0,1-.152,1.063,1.546,1.546,0,0,0-.381,1.077c0,.634-.76,1.647-.76,2.154s-.887.824-.887,1.14-.063,1.014-.063,1.711-.38.126-.38.76-.317.254-.633.571-.443.38-.443.064-.443-.381-.824-.064-.507,0-.7-.064a2.651,2.651,0,0,0-.96.509,5.043,5.043,0,0,1,.364,1.13c.007.033.016.068.026.1a1.84,1.84,0,0,1,.579-.316c.319-.045,3.318,0,3.318,0a1.381,1.381,0,0,1,.181.865c-.091.408.182.227.409.772s.409.773.863.636a3.352,3.352,0,0,1,1.183-.181c.181.045.136-.773.408-.909a1.562,1.562,0,0,1,.819,0s.045.227.5.227.682-.182.682.137a1.363,1.363,0,0,0,.182.818c.136.137-.363,1.273-.137,1.455s.545.591.5.818-.182.773,0,.819.227-.273.545-.273a2.078,2.078,0,0,0,.909-.091.322.322,0,0,1,.277.01.739.739,0,0,1,.269.263s.091.319.273.227.682-.227.636-.046.136.592.319.5.636.273.863.273.455,0,.455-.137.272-.363.363-.181.318.591.545.591.772,0,.772.182a1.509,1.509,0,0,0,.409.863c.227.182.727,0,.727,0a.57.57,0,0,0,.181-.454c0-.319,0-.727-.136-.727s-.363.318-.682.227-.546-.727-.682-.819.227-.682.227-.954.227-1.045.045-1.136-.091-.363.137-.545-.091-.682.273-.682c.342,0,1.036.037,1.234-.184a.213.213,0,0,0,.039-.044,1.225,1.225,0,0,0,.066-.158c-.233-.383-.466-.893-.748-1.047" transform="translate(-28.895 -33.557)" fill="#f0f0f0"/>
          <path id="Trazado_7423" data-name="Trazado 7423" d="M76.134,81.237c-.5-.273-.7-3.7-.455-3.795.033-.012.064.024.1.1l-.05-.777a.4.4,0,0,1-.068-.021.306.306,0,0,1-.2-.3.27.27,0,0,1,.227-.3s-.044-.568.205-.659a.293.293,0,0,0,.125-.1,1.32,1.32,0,0,0,.17-.745,2.291,2.291,0,0,1,.181-.885c.114-.25.068-.591.25-.728s.16-.5.386-.568.409-.159.432-.3.3-.318.3-.522-.341-.25-.341-.5.091-.886.091-.886l.015-.005c-.49-.448-1.055-.913-1.184-1-.189-.126-.507.127-.507.127s-.317-.318-.57-.064-.634,0-.634,0a1.192,1.192,0,0,1-.443-.507.517.517,0,0,0-.265-.268l.016.041-.758.127s-.948-.506-1.137-.127-.379.127-.822.127a2.41,2.41,0,0,0-1.074.316c-.253.127-.632-.126-.822,0s-.316.7-.316.7l-1.959-.379s-.379-.569-.822-.569-1.075.822-1.075.822v.687a1.675,1.675,0,0,1-.152,1.063,1.546,1.546,0,0,0-.381,1.077c0,.634-.76,1.647-.76,2.154s-.887.824-.887,1.14-.063,1.014-.063,1.711-.38.126-.38.76-.317.254-.633.571-.443.38-.443.064-.443-.381-.824-.064-.507,0-.7-.064a2.651,2.651,0,0,0-.96.509,5.043,5.043,0,0,1,.364,1.13c.007.033.016.068.026.1a1.84,1.84,0,0,1,.579-.316c.319-.045,3.318,0,3.318,0a1.381,1.381,0,0,1,.181.865c-.091.408.182.227.409.772s.409.773.863.636a3.352,3.352,0,0,1,1.183-.181c.181.045.136-.773.408-.909a1.562,1.562,0,0,1,.819,0s.045.227.5.227.682-.182.682.137a1.363,1.363,0,0,0,.182.818c.136.137-.363,1.273-.137,1.455s.545.591.5.818-.182.773,0,.819.227-.273.545-.273a2.078,2.078,0,0,0,.909-.091.322.322,0,0,1,.277.01.739.739,0,0,1,.269.263s.091.319.273.227.682-.227.636-.046.136.592.319.5.636.273.863.273.455,0,.455-.137.272-.363.363-.181.318.591.545.591.772,0,.772.182a1.509,1.509,0,0,0,.409.863c.227.182.727,0,.727,0a.57.57,0,0,0,.181-.454c0-.319,0-.727-.136-.727s-.363.318-.682.227-.546-.727-.682-.819.227-.682.227-.954.227-1.045.045-1.136-.091-.363.137-.545-.091-.682.273-.682c.342,0,1.036.037,1.234-.184a.213.213,0,0,0,.039-.044,1.225,1.225,0,0,0,.066-.158C76.648,81.9,76.415,81.391,76.134,81.237Z" transform="translate(-28.895 -33.557)" fill="#f0f0f0"/>
          <path id="Trazado_7424" data-name="Trazado 7424" d="M91.856,85.229a7.173,7.173,0,0,1,.255,1.065,4.052,4.052,0,0,1,.438-.259c.263-.1.84-1.206.84-1.206l-.263-.158a1.724,1.724,0,0,0-.041-.538,3.238,3.238,0,0,1-.483.014s.053.42-.525.315a2.556,2.556,0,0,0-.338-.032.389.389,0,0,0,.067.021Z" transform="translate(-44.977 -41.249)" fill="#f0f0f0"/>
          <path id="Trazado_7425" data-name="Trazado 7425" d="M91.856,85.229a7.173,7.173,0,0,1,.255,1.065,4.052,4.052,0,0,1,.438-.259c.263-.1.84-1.206.84-1.206l-.263-.158a1.724,1.724,0,0,0-.041-.538,3.238,3.238,0,0,1-.483.014s.053.42-.525.315a2.556,2.556,0,0,0-.338-.032.389.389,0,0,0,.067.021Z" transform="translate(-44.977 -41.249)" fill="#f0f0f0"/>
          <path id="Trazado_7426" data-name="Trazado 7426" d="M104.608,105.226a7.005,7.005,0,0,1-.258-2c.061-.5-.091-1.818-.091-2.454,0-.015,0-.026,0-.039a4.8,4.8,0,0,0-1.088.584c-.091.182-.485-.03-.728.182s-.394.031-.606-.03-.3.212-.333.394-.455.091-.607.061-.636.121-.879.121-.061-.212-.333-.3-.455.12-.607.12c-.091,0-.374-.033-.581-.06a1.1,1.1,0,0,1-.055.355c-.2.513.41,1.676.44,2.167a5.913,5.913,0,0,1,.621.6c.273.333,0,.3.03,1.03s-.3.425-.575.666-.03.788-.091.94-.879-1.061-.939-1.243.3-.909.213-1.333-.636-.151-.818-.122-.607-.484-.7-.484-2.848,1.03-2.848,1.03l.212.758-.06,0,.151.331a3.424,3.424,0,0,1,1.318.318,6.116,6.116,0,0,0,1.182.409c.137.091,0,1.091.045,1.591s-.545.636-.273.909.136.728.319.773-.319.636-.546.773,0,.637-.273,1c-.174.233-.684.69-1.04,1.036a.093.093,0,0,1,.04.033c.091.159.363,1.75.636,1.909s.114,1.727.091,1.864.114,1.182.114,1.182a5.5,5.5,0,0,1,.764-.058c.024-.207.039-.387.047-.51.03-.484-.3-.09-.409-.394s.742-.863,1.605-1.181,1.2-.5,1.289-.8-.015-1.151.107-1.485-.076-.53-.182-1.287-.38-.879-.5-1.3-.091-.757.166-.773.257-.137.47-.545.454-.242.864-.545.424-.682,1.075-1.182,1.364-.484,2-.864,1.727-1.864,1.621-2.136" transform="translate(-45.975 -49.387)" fill="#f0f0f0"/>
          <path id="Trazado_7427" data-name="Trazado 7427" d="M104.608,105.226a7.005,7.005,0,0,1-.258-2c.061-.5-.091-1.818-.091-2.454,0-.015,0-.026,0-.039a4.8,4.8,0,0,0-1.088.584c-.091.182-.485-.03-.728.182s-.394.031-.606-.03-.3.212-.333.394-.455.091-.607.061-.636.121-.879.121-.061-.212-.333-.3-.455.12-.607.12c-.091,0-.374-.033-.581-.06a1.1,1.1,0,0,1-.055.355c-.2.513.41,1.676.44,2.167a5.913,5.913,0,0,1,.621.6c.273.333,0,.3.03,1.03s-.3.425-.575.666-.03.788-.091.94-.879-1.061-.939-1.243.3-.909.213-1.333-.636-.151-.818-.122-.607-.484-.7-.484-2.848,1.03-2.848,1.03l.212.758-.06,0,.151.331a3.424,3.424,0,0,1,1.318.318,6.116,6.116,0,0,0,1.182.409c.137.091,0,1.091.045,1.591s-.545.636-.273.909.136.728.319.773-.319.636-.546.773,0,.637-.273,1c-.174.233-.684.69-1.04,1.036a.093.093,0,0,1,.04.033c.091.159.363,1.75.636,1.909s.114,1.727.091,1.864.114,1.182.114,1.182a5.5,5.5,0,0,1,.764-.058c.024-.207.039-.387.047-.51.03-.484-.3-.09-.409-.394s.742-.863,1.605-1.181,1.2-.5,1.289-.8-.015-1.151.107-1.485-.076-.53-.182-1.287-.38-.879-.5-1.3-.091-.757.166-.773.257-.137.47-.545.454-.242.864-.545.424-.682,1.075-1.182,1.364-.484,2-.864S104.714,105.5,104.608,105.226Z" transform="translate(-45.975 -49.387)" fill="#f0f0f0"/>
          <path id="Trazado_7428" data-name="Trazado 7428" d="M102.891,90.2c-.031-.621-.394-.621-.379-1.046s.046-.8-.106-.848-.061-.409.181-.773-.438-.409-.545-.863a4.88,4.88,0,0,1,.452-1.558c-.849-.585-1.719-1.221-1.719-1.221l.051-.63L96.955,81.2a1.087,1.087,0,0,1-.495.964c-.3.136.409.568.068.636s-1.114-.318-1.659-.091c-.366.153-.291-.764-.006-1.569l-.855.07s-.232.058-.483.128l.168.449a1.4,1.4,0,0,1,.158.681c-.024.119-.212.172-.409.2a1.724,1.724,0,0,1,.041.538l.263.158s-.577,1.1-.84,1.206a3.948,3.948,0,0,0-.438.259,4.924,4.924,0,0,0,.627,1.953c.523.477.432,1.023.545,1.341s.568.682.25.818c-.205.088-.388-.132-.57-.431a1.23,1.23,0,0,1-.066.158.226.226,0,0,1-.039.044,2.166,2.166,0,0,0,.74.422c.261,0,.682.314.944.367a4.555,4.555,0,0,1,1.312.577,1.063,1.063,0,0,1,.066.1,4.845,4.845,0,0,1,.691,0,.211.211,0,0,1,.15-.058c.346,0,.754,1.313.737,2.077.207.027.49.06.582.06.152,0,.334-.212.607-.12s.091.3.333.3.726-.151.878-.121.576.121.607-.061.121-.454.333-.394.363.242.605.03.637,0,.728-.181a4.8,4.8,0,0,1,1.088-.584c-.029-.583-.695-.324-.724-.931" transform="translate(-45.335 -39.782)" fill="#f0f0f0"/>
          <path id="Trazado_7429" data-name="Trazado 7429" d="M102.891,90.2c-.031-.621-.394-.621-.379-1.046s.046-.8-.106-.848-.061-.409.181-.773-.438-.409-.545-.863a4.88,4.88,0,0,1,.452-1.558c-.849-.585-1.719-1.221-1.719-1.221l.051-.63L96.955,81.2a1.087,1.087,0,0,1-.495.964c-.3.136.409.568.068.636s-1.114-.318-1.659-.091c-.366.153-.291-.764-.006-1.569l-.855.07s-.232.058-.483.128l.168.449a1.4,1.4,0,0,1,.158.681c-.024.119-.212.172-.409.2a1.724,1.724,0,0,1,.041.538l.263.158s-.577,1.1-.84,1.206a3.948,3.948,0,0,0-.438.259,4.924,4.924,0,0,0,.627,1.953c.523.477.432,1.023.545,1.341s.568.682.25.818c-.205.088-.388-.132-.57-.431a1.23,1.23,0,0,1-.066.158.226.226,0,0,1-.039.044,2.166,2.166,0,0,0,.74.422c.261,0,.682.314.944.367a4.555,4.555,0,0,1,1.312.577,1.063,1.063,0,0,1,.066.1,4.845,4.845,0,0,1,.691,0,.211.211,0,0,1,.15-.058c.346,0,.754,1.313.737,2.077.207.027.49.06.582.06.152,0,.334-.212.607-.12s.091.3.333.3.726-.151.878-.121.576.121.607-.061.121-.454.333-.394.363.242.605.03.637,0,.728-.181a4.8,4.8,0,0,1,1.088-.584C103.587,90.546,102.921,90.8,102.891,90.2Z" transform="translate(-45.335 -39.782)" fill="#f0f0f0"/>
          <path id="Trazado_7430" data-name="Trazado 7430" d="M102.043,104a5.922,5.922,0,0,0-.621-.6.275.275,0,0,1-.031.173c-.267.386-1.023-.818-1.113-1.568s.432-1.114.114-1.819c-.266-.589-.432-1.156-.242-1.328a4.913,4.913,0,0,0-.69,0,3.255,3.255,0,0,1,.405,1c0,.209-.262-.053-.367.209a3.04,3.04,0,0,0,.052,1.678c.21.211-.42.053-.42.264s-.052.944-.156,1c-.059.029.063.208.181.45l.009,0c.091,0,.515.515.7.484s.726-.3.818.122-.273,1.151-.213,1.332.879,1.395.94,1.243-.182-.7.091-.94.606.061.575-.666.243-.7-.03-1.03" transform="translate(-48.517 -48.461)" fill="#f0f0f0"/>
          <path id="Trazado_7431" data-name="Trazado 7431" d="M102.043,104a5.922,5.922,0,0,0-.621-.6.275.275,0,0,1-.031.173c-.267.386-1.023-.818-1.113-1.568s.432-1.114.114-1.819c-.266-.589-.432-1.156-.242-1.328a4.913,4.913,0,0,0-.69,0,3.255,3.255,0,0,1,.405,1c0,.209-.262-.053-.367.209a3.04,3.04,0,0,0,.052,1.678c.21.211-.42.053-.42.264s-.052.944-.156,1c-.059.029.063.208.181.45l.009,0c.091,0,.515.515.7.484s.726-.3.818.122-.273,1.151-.213,1.332.879,1.395.94,1.243-.182-.7.091-.94.606.061.575-.666S102.316,104.331,102.043,104Z" transform="translate(-48.517 -48.461)" fill="#f0f0f0"/>
        </g>
      </g>
    </g>
  </g>
</svg>
