<svg xmlns="http://www.w3.org/2000/svg" width="130" height="78.983" viewBox="0 0 130 78.983">
  <g id="Grupo_9020" data-name="Grupo 9020" transform="translate(-568 -7036)">
    <g id="Grupo_9015" data-name="Grupo 9015" transform="translate(428)">
      <rect id="Bandera-Alemania" width="130" height="78" transform="translate(140 7036)" fill="none"/>
      <g id="Grupo_9008" data-name="Grupo 9008" transform="translate(-283.241 -677.725)">
        <path id="Trazado_7500" data-name="Trazado 7500" d="M49.7,97.492a1.875,1.875,0,0,1-.024,1.165c-.173.272-.1.347.074.445a.639.639,0,0,1,.248.546c0,.2.124.173.149.595a1.514,1.514,0,0,0,.272.892.5.5,0,0,1,.034.5,2.741,2.741,0,0,0,.646.375c.516.185.7.332.737.517s.48.516.591.258.406-.111.627-.111.259.258.294.406.554.074.74.184.257.516.516.664.48-.184.665-.074a1.375,1.375,0,0,0,.959.111c.294-.111.479.111.848.074a1.584,1.584,0,0,1,.959.221,2.109,2.109,0,0,0,.655.158c.073-.152-.069-.618-.047-.733a13.617,13.617,0,0,1,1.04-1.065c.148-.173.372-.173.5-.4s-.347-.942-.445-1.09a1.847,1.847,0,0,1-.074-.991c.074-.248-.372-.4-.372-.57s.421-.471.644-.57.149-.793-.049-.967a.763.763,0,0,1-.173-.842c.123-.347-.743-.619-.867-.619-.021,0-.032-.022-.041-.052a12.008,12.008,0,0,1-2.9-.123c-.1-.039-.349-.129-.565-.206a.688.688,0,0,1-.611.314c-.478,0-.512-.479-.528-.693s-1.933.182-2.445.693-1.7.314-1.733.595c-.025.2-.2.309-.319.253a.274.274,0,0,0,.005.136" transform="translate(438.144 7668.68)" fill="#f0f0f0"/>
        <path id="Trazado_7501" data-name="Trazado 7501" d="M49.7,97.492a1.875,1.875,0,0,1-.024,1.165c-.173.272-.1.347.074.445a.639.639,0,0,1,.248.546c0,.2.124.173.149.595a1.514,1.514,0,0,0,.272.892.5.5,0,0,1,.034.5,2.741,2.741,0,0,0,.646.375c.516.185.7.332.737.517s.48.516.591.258.406-.111.627-.111.259.258.294.406.554.074.74.184.257.516.516.664.48-.184.665-.074a1.375,1.375,0,0,0,.959.111c.294-.111.479.111.848.074a1.584,1.584,0,0,1,.959.221,2.109,2.109,0,0,0,.655.158c.073-.152-.069-.618-.047-.733a13.617,13.617,0,0,1,1.04-1.065c.148-.173.372-.173.5-.4s-.347-.942-.445-1.09a1.847,1.847,0,0,1-.074-.991c.074-.248-.372-.4-.372-.57s.421-.471.644-.57.149-.793-.049-.967a.763.763,0,0,1-.173-.842c.123-.347-.743-.619-.867-.619-.021,0-.032-.022-.041-.052a12.008,12.008,0,0,1-2.9-.123c-.1-.039-.349-.129-.565-.206a.688.688,0,0,1-.611.314c-.478,0-.512-.479-.528-.693s-1.933.182-2.445.693-1.7.314-1.733.595c-.025.2-.2.309-.319.253A.274.274,0,0,0,49.7,97.492Z" transform="translate(438.144 7668.68)" fill="#f0f0f0"/>
        <path id="Trazado_7502" data-name="Trazado 7502" d="M55.3,124.821a2.5,2.5,0,0,1,.843-1.243c.148,0,.2-.981.141-1.491a3.817,3.817,0,0,0-1.008-.51,13.414,13.414,0,0,1-1.726-.172c-.247-.1-.493.321-.715.148a.314.314,0,0,0-.493.3c.049.247.517.4.517.765s.938.913.913,1.11c-.017.138.562.514.908,1.021a6.575,6.575,0,0,1,.573.424,1.085,1.085,0,0,0,.046-.346" transform="translate(436.915 7657.29)" fill="#f0f0f0"/>
        <path id="Trazado_7503" data-name="Trazado 7503" d="M55.3,124.821a2.5,2.5,0,0,1,.843-1.243c.148,0,.2-.981.141-1.491a3.817,3.817,0,0,0-1.008-.51,13.414,13.414,0,0,1-1.726-.172c-.247-.1-.493.321-.715.148a.314.314,0,0,0-.493.3c.049.247.517.4.517.765s.938.913.913,1.11c-.017.138.562.514.908,1.021a6.575,6.575,0,0,1,.573.424A1.085,1.085,0,0,0,55.3,124.821Z" transform="translate(436.915 7657.29)" fill="#f0f0f0"/>
        <path id="Trazado_7504" data-name="Trazado 7504" d="M52.153,122.238c.025-.2-.913-.74-.913-1.11s-.468-.518-.517-.765a.314.314,0,0,1,.493-.3c.222.172.468-.247.715-.149a13.332,13.332,0,0,0,1.726.173,3.8,3.8,0,0,1,1.008.51.914.914,0,0,0-.052-.24c-.133-.312,0-.666-.355-.8-.183-.068-.259-.385-.291-.676-.167.051-.309.093-.386.112a1.289,1.289,0,0,1-1.144-.259,4.175,4.175,0,0,0-.929-.692,2.274,2.274,0,0,1-.668.447c-.2.025-.074.545-.273.545s-.347.347-.4.5-.5-.1-.693-.025a5.847,5.847,0,0,1-.787.152c.034.226.021.476.2.476.3,0,.842-.033.859.363a4.42,4.42,0,0,0,.99,1.569c.264.3.86.232.892.479s.462.479.958.512a1.13,1.13,0,0,1,.47.2c-.346-.507-.925-.883-.908-1.021" transform="translate(438.536 7658.774)" fill="#f0f0f0"/>
        <path id="Trazado_7505" data-name="Trazado 7505" d="M52.153,122.238c.025-.2-.913-.74-.913-1.11s-.468-.518-.517-.765a.314.314,0,0,1,.493-.3c.222.172.468-.247.715-.149a13.332,13.332,0,0,0,1.726.173,3.8,3.8,0,0,1,1.008.51.914.914,0,0,0-.052-.24c-.133-.312,0-.666-.355-.8-.183-.068-.259-.385-.291-.676-.167.051-.309.093-.386.112a1.289,1.289,0,0,1-1.144-.259,4.175,4.175,0,0,0-.929-.692,2.274,2.274,0,0,1-.668.447c-.2.025-.074.545-.273.545s-.347.347-.4.5-.5-.1-.693-.025a5.847,5.847,0,0,1-.787.152c.034.226.021.476.2.476.3,0,.842-.033.859.363a4.42,4.42,0,0,0,.99,1.569c.264.3.86.232.892.479s.462.479.958.512a1.13,1.13,0,0,1,.47.2C52.715,122.752,52.136,122.376,52.153,122.238Z" transform="translate(438.536 7658.774)" fill="#f0f0f0"/>
        <path id="Trazado_7506" data-name="Trazado 7506" d="M60.453,131.354c.247-.049.1-.247.272-.421a1.9,1.9,0,0,0,.4-.643.053.053,0,0,1,.024-.031c-.336-.253-.572-.434-.646-.693a2.519,2.519,0,0,1,.121-1.16,3.582,3.582,0,0,0-.968-.544c-.184,0-.466.408-.536.8.433.231.6.4.3.7a1.5,1.5,0,0,0-.033,1.651c.33.267.425.8.745.95.09-.267.158-.57.321-.6" transform="translate(433.903 7654.415)" fill="#f0f0f0"/>
        <path id="Trazado_7507" data-name="Trazado 7507" d="M60.453,131.354c.247-.049.1-.247.272-.421a1.9,1.9,0,0,0,.4-.643.053.053,0,0,1,.024-.031c-.336-.253-.572-.434-.646-.693a2.519,2.519,0,0,1,.121-1.16,3.582,3.582,0,0,0-.968-.544c-.184,0-.466.408-.536.8.433.231.6.4.3.7a1.5,1.5,0,0,0-.033,1.651c.33.267.425.8.745.95C60.222,131.69,60.29,131.388,60.453,131.354Z" transform="translate(433.903 7654.415)" fill="#f0f0f0"/>
        <path id="Trazado_7508" data-name="Trazado 7508" d="M47.5,111.925a1.658,1.658,0,0,0-1.032-.333,2.2,2.2,0,0,1-.185.517c-.093.154-.629.152-.972.06-.1.127-.544.227-.606.412-.074.223-.619.1-.446.693s-.272.4-.446.322a1.756,1.756,0,0,0-1.139.222.526.526,0,0,1-.645.05.5.5,0,0,0-.669.1c-.149.248-.421-.2-.644-.173s-.124.5-.124.6.347.4.57.3a.793.793,0,0,1,.694.148c.2.124.57-.1.693-.223s.818-.124.892-.124.1.4.223.471a3.643,3.643,0,0,0,1.016.149c.421.024,1.04.223,1.239.223s.52-.347.966-.347.694-.272.768-.247l0,0c.032-.139.084-.25.181-.263.182-.026.052-.337.182-.491s-.1-.465.129-.44.491.052.491-.284a.416.416,0,0,1,.149-.3,4.067,4.067,0,0,1-.439-.93s-.553.222-.85-.11" transform="translate(442.144 7661.644)" fill="#f0f0f0"/>
        <path id="Trazado_7509" data-name="Trazado 7509" d="M47.5,111.925a1.658,1.658,0,0,0-1.032-.333,2.2,2.2,0,0,1-.185.517c-.093.154-.629.152-.972.06-.1.127-.544.227-.606.412-.074.223-.619.1-.446.693s-.272.4-.446.322a1.756,1.756,0,0,0-1.139.222.526.526,0,0,1-.645.05.5.5,0,0,0-.669.1c-.149.248-.421-.2-.644-.173s-.124.5-.124.6.347.4.57.3a.793.793,0,0,1,.694.148c.2.124.57-.1.693-.223s.818-.124.892-.124.1.4.223.471a3.643,3.643,0,0,0,1.016.149c.421.024,1.04.223,1.239.223s.52-.347.966-.347.694-.272.768-.247l0,0c.032-.139.084-.25.181-.263.182-.026.052-.337.182-.491s-.1-.465.129-.44.491.052.491-.284a.416.416,0,0,1,.149-.3,4.067,4.067,0,0,1-.439-.93S47.8,112.257,47.5,111.925Z" transform="translate(442.144 7661.644)" fill="#f0f0f0"/>
        <path id="Trazado_7510" data-name="Trazado 7510" d="M60.332,113.265a.8.8,0,0,1-.262-.16,1.888,1.888,0,0,1-.7-.252,3.346,3.346,0,0,0-1.033-.332c-.11-.037-.812.664-1.033.664s-1.181.111-1.181.369-1.18.3-1.512,0a1.1,1.1,0,0,1-.151-.177.417.417,0,0,0-.15.3c0,.336-.258.31-.491.284s0,.285-.129.44,0,.466-.181.491c-.1.013-.149.124-.181.263a1.8,1.8,0,0,1,.268.417l-.026.023a4.177,4.177,0,0,1,.929.692,1.289,1.289,0,0,0,1.144.258c.3-.073,1.55-.48,1.55-.48a4.089,4.089,0,0,0,.48.147c.043.009.161.028.314.052a4.38,4.38,0,0,0,.663-.47c.347-.347.867-1.586,1.016-1.684s.545-.322.743-.471.148-.3-.075-.372" transform="translate(436.476 7661.231)" fill="#f0f0f0"/>
        <path id="Trazado_7511" data-name="Trazado 7511" d="M60.332,113.265a.8.8,0,0,1-.262-.16,1.888,1.888,0,0,1-.7-.252,3.346,3.346,0,0,0-1.033-.332c-.11-.037-.812.664-1.033.664s-1.181.111-1.181.369-1.18.3-1.512,0a1.1,1.1,0,0,1-.151-.177.417.417,0,0,0-.15.3c0,.336-.258.31-.491.284s0,.285-.129.44,0,.466-.181.491c-.1.013-.149.124-.181.263a1.8,1.8,0,0,1,.268.417l-.026.023a4.177,4.177,0,0,1,.929.692,1.289,1.289,0,0,0,1.144.258c.3-.073,1.55-.48,1.55-.48a4.089,4.089,0,0,0,.48.147c.043.009.161.028.314.052a4.38,4.38,0,0,0,.663-.47c.347-.347.867-1.586,1.016-1.684s.545-.322.743-.471S60.555,113.339,60.332,113.265Z" transform="translate(436.476 7661.231)" fill="#f0f0f0"/>
        <path id="Trazado_7512" data-name="Trazado 7512" d="M52.478,107.964c-.186-.11-.7-.037-.739-.184s-.073-.406-.294-.406-.517-.147-.627.111-.554-.074-.592-.258-.221-.332-.737-.517a2.733,2.733,0,0,1-.646-.375.592.592,0,0,1-.058.119c-.1.149-.446-.123-.6.025s-.644.173-.916.421a2.921,2.921,0,0,1-1.165.446c-.322.075-.049.372.074.595s.124.768.372.941a7.877,7.877,0,0,1,1.165.867.071.071,0,0,1-.014.083c.343.093.88.1.972-.059a2.2,2.2,0,0,0,.185-.517,1.661,1.661,0,0,1,1.032.333c.3.332.85.11.85.11s.031.094.08.225c.08-.182.184-.342.311-.361a1.373,1.373,0,0,0,1.066-.532,1.972,1.972,0,0,1,.647-.533c-.149-.183-.226-.447-.369-.533" transform="translate(439.751 7663.98)" fill="#f0f0f0"/>
        <path id="Trazado_7513" data-name="Trazado 7513" d="M52.478,107.964c-.186-.11-.7-.037-.739-.184s-.073-.406-.294-.406-.517-.147-.627.111-.554-.074-.592-.258-.221-.332-.737-.517a2.733,2.733,0,0,1-.646-.375.592.592,0,0,1-.058.119c-.1.149-.446-.123-.6.025s-.644.173-.916.421a2.921,2.921,0,0,1-1.165.446c-.322.075-.049.372.074.595s.124.768.372.941a7.877,7.877,0,0,1,1.165.867.071.071,0,0,1-.014.083c.343.093.88.1.972-.059a2.2,2.2,0,0,0,.185-.517,1.661,1.661,0,0,1,1.032.333c.3.332.85.11.85.11s.031.094.08.225c.08-.182.184-.342.311-.361a1.373,1.373,0,0,0,1.066-.532,1.972,1.972,0,0,1,.647-.533C52.7,108.314,52.621,108.05,52.478,107.964Z" transform="translate(439.751 7663.98)" fill="#f0f0f0"/>
        <path id="Trazado_7514" data-name="Trazado 7514" d="M59.357,110.469c-.369.036-.554-.185-.848-.074a1.379,1.379,0,0,1-.96-.111c-.186-.111-.406.221-.665.074a.526.526,0,0,1-.147-.132,1.972,1.972,0,0,0-.647.533,1.372,1.372,0,0,1-1.066.532c-.126.019-.231.179-.311.362a2.555,2.555,0,0,0,.51.881c.332.3,1.512.259,1.512,0s.96-.368,1.181-.368.923-.7,1.034-.665a3.342,3.342,0,0,1,1.032.332,1.889,1.889,0,0,0,.7.252.6.6,0,0,1-.233-.385,1.98,1.98,0,0,1,.5-.817.1.1,0,0,0,.022-.034,2.1,2.1,0,0,1-.655-.159,1.591,1.591,0,0,0-.959-.221" transform="translate(435.859 7662.25)" fill="#f0f0f0"/>
        <path id="Trazado_7515" data-name="Trazado 7515" d="M59.357,110.469c-.369.036-.554-.185-.848-.074a1.379,1.379,0,0,1-.96-.111c-.186-.111-.406.221-.665.074a.526.526,0,0,1-.147-.132,1.972,1.972,0,0,0-.647.533,1.372,1.372,0,0,1-1.066.532c-.126.019-.231.179-.311.362a2.555,2.555,0,0,0,.51.881c.332.3,1.512.259,1.512,0s.96-.368,1.181-.368.923-.7,1.034-.665a3.342,3.342,0,0,1,1.032.332,1.889,1.889,0,0,0,.7.252.6.6,0,0,1-.233-.385,1.98,1.98,0,0,1,.5-.817.1.1,0,0,0,.022-.034,2.1,2.1,0,0,1-.655-.159A1.591,1.591,0,0,0,59.357,110.469Z" transform="translate(435.859 7662.25)" fill="#f0f0f0"/>
        <path id="Trazado_7516" data-name="Trazado 7516" d="M4.553,134.7c.442-.081-.121-.442-.242-.563s.041-.6.282-.6,0-.281-.322-.6,0-.442.282-.442-.081-.482.2-.763-.081-.8-.081-1.045.4-.321.725-.643-.282-.2-.282-.442-.4-.322-.683-.12-.2,0-.442,0-.684.08-.684-.161-.2-.281-.4-.041a.438.438,0,0,1-.3.127,1.482,1.482,0,0,0,.031.758,4.429,4.429,0,0,1-.694,2.676c-.43.5-.016.627.43.975s.149,1.6.149,1.9.4.214.858.214a5.927,5.927,0,0,0,.892-.176.834.834,0,0,1-.162-.363c0-.242,0-.6.442-.683" transform="translate(459.389 7653.857)" fill="#f0f0f0"/>
        <path id="Trazado_7517" data-name="Trazado 7517" d="M4.553,134.7c.442-.081-.121-.442-.242-.563s.041-.6.282-.6,0-.281-.322-.6,0-.442.282-.442-.081-.482.2-.763-.081-.8-.081-1.045.4-.321.725-.643-.282-.2-.282-.442-.4-.322-.683-.12-.2,0-.442,0-.684.08-.684-.161-.2-.281-.4-.041a.438.438,0,0,1-.3.127,1.482,1.482,0,0,0,.031.758,4.429,4.429,0,0,1-.694,2.676c-.43.5-.016.627.43.975s.149,1.6.149,1.9.4.214.858.214a5.927,5.927,0,0,0,.892-.176.834.834,0,0,1-.162-.363C4.11,135.144,4.11,134.783,4.553,134.7Z" transform="translate(459.389 7653.857)" fill="#f0f0f0"/>
        <path id="Trazado_7518" data-name="Trazado 7518" d="M28.974,102.88a.559.559,0,0,1,.757.1c.2.2.505.252.808.555a2.375,2.375,0,0,0,.244.211,3.928,3.928,0,0,1,.128-.856c.1-.231-.1-.528.066-.528s.627,0,.627-.3.132-.2.232-.364-.3-.5-.364-.595.3-.132.562-.528A1.086,1.086,0,0,0,32,99.822c-.044.118-.132.2-.282.113-.248-.148-.627-.066-1.123.033s-.644.578-.463.776-.478.3-.528.034-.545-.083-.513.263-.545.48-.511.908-.529.827-.892,1.041c-.056.034-.115.068-.174.1a1.35,1.35,0,0,0,.4.141,1.9,1.9,0,0,0,1.061-.353" transform="translate(447.946 7666.874)" fill="#f0f0f0"/>
        <path id="Trazado_7519" data-name="Trazado 7519" d="M28.974,102.88a.559.559,0,0,1,.757.1c.2.2.505.252.808.555a2.375,2.375,0,0,0,.244.211,3.928,3.928,0,0,1,.128-.856c.1-.231-.1-.528.066-.528s.627,0,.627-.3.132-.2.232-.364-.3-.5-.364-.595.3-.132.562-.528A1.086,1.086,0,0,0,32,99.822c-.044.118-.132.2-.282.113-.248-.148-.627-.066-1.123.033s-.644.578-.463.776-.478.3-.528.034-.545-.083-.513.263-.545.48-.511.908-.529.827-.892,1.041c-.056.034-.115.068-.174.1a1.35,1.35,0,0,0,.4.141A1.9,1.9,0,0,0,28.974,102.88Z" transform="translate(447.946 7666.874)" fill="#f0f0f0"/>
        <path id="Trazado_7520" data-name="Trazado 7520" d="M33.205,108.781a.919.919,0,0,0-.391.948,2.646,2.646,0,0,1,.737.083,1.647,1.647,0,0,0-.353-.926.109.109,0,0,1,.007-.106" transform="translate(445.592 7662.893)" fill="#f0f0f0"/>
        <path id="Trazado_7521" data-name="Trazado 7521" d="M33.205,108.781a.919.919,0,0,0-.391.948,2.646,2.646,0,0,1,.737.083,1.647,1.647,0,0,0-.353-.926A.109.109,0,0,1,33.205,108.781Z" transform="translate(445.592 7662.893)" fill="#f0f0f0"/>
        <path id="Trazado_7522" data-name="Trazado 7522" d="M26.317,105.916c.024.173.3.595.4.422s.347.223.57.347.668.272.693.421.1.471.322.372.5-.446.5-.248.074.571.322.521.322.421.57.371a1.244,1.244,0,0,1,.178-.016.918.918,0,0,1,.391-.948c.051-.1.2-.2.224-.323.033-.164-.33-.5-.3-.693,0-.01,0-.024,0-.036a2.316,2.316,0,0,1-.244-.212c-.3-.3-.606-.353-.808-.555a.56.56,0,0,0-.757-.1,1.9,1.9,0,0,1-1.061.353,1.333,1.333,0,0,1-.4-.141,2.576,2.576,0,0,1-.746.319c.051.069.128.033.144.148" transform="translate(448.542 7664.517)" fill="#f0f0f0"/>
        <path id="Trazado_7523" data-name="Trazado 7523" d="M26.317,105.916c.024.173.3.595.4.422s.347.223.57.347.668.272.693.421.1.471.322.372.5-.446.5-.248.074.571.322.521.322.421.57.371a1.244,1.244,0,0,1,.178-.016.918.918,0,0,1,.391-.948c.051-.1.2-.2.224-.323.033-.164-.33-.5-.3-.693,0-.01,0-.024,0-.036a2.316,2.316,0,0,1-.244-.212c-.3-.3-.606-.353-.808-.555a.56.56,0,0,0-.757-.1,1.9,1.9,0,0,1-1.061.353,1.333,1.333,0,0,1-.4-.141,2.576,2.576,0,0,1-.746.319C26.224,105.837,26.3,105.8,26.317,105.916Z" transform="translate(448.542 7664.517)" fill="#f0f0f0"/>
        <path id="Trazado_7524" data-name="Trazado 7524" d="M70.688,117.711c-.231-.033-.529-.131-.43-.264.006-.008.019-.025.029-.038a1.183,1.183,0,0,1-.193-1.259c.252-.252-.405-1.211-.707-1.565a10.66,10.66,0,0,1-.736-1.26,1.349,1.349,0,0,0-.54.256.912.912,0,0,1-.628.331c-.2,0-.4-.1-.561.066s-.4.231-.5.132a1.205,1.205,0,0,0-.661-.2c-.23,0-.957-.2-1.122-.2a3.608,3.608,0,0,0-.43.037c.037.072.008.157-.107.244-.2.148-.595.371-.743.471s-.67,1.337-1.016,1.684-.669.4-.694.52.4.447.4.645a.356.356,0,0,0,.372.4c.272,0-.025.645.148.694s1.239.124,1.239.372c0,.193.118.355.066.488.3.051.52.457.637.428.132-.032,1.025.166,1.189.133a7.428,7.428,0,0,1,1.189.033,1,1,0,0,0,.792-.33A2.307,2.307,0,0,1,69,119.3c.263.033.792.1.891.265a1.89,1.89,0,0,0,.678.321,4.128,4.128,0,0,0,0-.586c.016-.347.214-.875.561-.908s.628-.033.578-.611c0-.02,0-.034,0-.053a1.351,1.351,0,0,0-.393-.277c-.132,0-.529.278-.627.264" transform="translate(432.777 7660.873)" fill="#f0f0f0"/>
        <path id="Trazado_7525" data-name="Trazado 7525" d="M70.688,117.711c-.231-.033-.529-.131-.43-.264.006-.008.019-.025.029-.038a1.183,1.183,0,0,1-.193-1.259c.252-.252-.405-1.211-.707-1.565a10.66,10.66,0,0,1-.736-1.26,1.349,1.349,0,0,0-.54.256.912.912,0,0,1-.628.331c-.2,0-.4-.1-.561.066s-.4.231-.5.132a1.205,1.205,0,0,0-.661-.2c-.23,0-.957-.2-1.122-.2a3.608,3.608,0,0,0-.43.037c.037.072.008.157-.107.244-.2.148-.595.371-.743.471s-.67,1.337-1.016,1.684-.669.4-.694.52.4.447.4.645a.356.356,0,0,0,.372.4c.272,0-.025.645.148.694s1.239.124,1.239.372c0,.193.118.355.066.488.3.051.52.457.637.428.132-.032,1.025.166,1.189.133a7.428,7.428,0,0,1,1.189.033,1,1,0,0,0,.792-.33A2.307,2.307,0,0,1,69,119.3c.263.033.792.1.891.265a1.89,1.89,0,0,0,.678.321,4.128,4.128,0,0,0,0-.586c.016-.347.214-.875.561-.908s.628-.033.578-.611c0-.02,0-.034,0-.053a1.351,1.351,0,0,0-.393-.277C71.184,117.447,70.787,117.724,70.688,117.711Z" transform="translate(432.777 7660.873)" fill="#f0f0f0"/>
        <path id="Trazado_7526" data-name="Trazado 7526" d="M76.748,114.043a.876.876,0,0,0-.793-.595c-.231,0-.627-.528-.891-.5a5.783,5.783,0,0,0-.815.207,10.663,10.663,0,0,0,.736,1.26c.3.353.959,1.312.707,1.565a1.183,1.183,0,0,0,.193,1.259,3.8,3.8,0,0,0,.631-.987c0-.2.034-.595.429-.5s.76.264.76.132a1.4,1.4,0,0,0-.264-.727,3.457,3.457,0,0,1-.693-1.123" transform="translate(427.179 7661.04)" fill="#f0f0f0"/>
        <path id="Trazado_7527" data-name="Trazado 7527" d="M76.748,114.043a.876.876,0,0,0-.793-.595c-.231,0-.627-.528-.891-.5a5.783,5.783,0,0,0-.815.207,10.663,10.663,0,0,0,.736,1.26c.3.353.959,1.312.707,1.565a1.183,1.183,0,0,0,.193,1.259,3.8,3.8,0,0,0,.631-.987c0-.2.034-.595.429-.5s.76.264.76.132a1.4,1.4,0,0,0-.264-.727A3.457,3.457,0,0,1,76.748,114.043Z" transform="translate(427.179 7661.04)" fill="#f0f0f0"/>
        <path id="Trazado_7528" data-name="Trazado 7528" d="M70.568,124.046a2.307,2.307,0,0,0-1.322.232,1,1,0,0,1-.792.331,7.431,7.431,0,0,0-1.189-.033c-.164.033-1.057-.165-1.189-.132s-.337-.378-.636-.428a.222.222,0,0,1-.091.106.505.505,0,0,0,0,.768c.248.223.57.718.347.718a.445.445,0,0,0-.372.445c.024.149-.074.471,0,.546s.595.57.619.718c.022.131.235.2.219.313a5.563,5.563,0,0,1,1.5.018,5.4,5.4,0,0,0,1.19.2c.263,0,.5-.1.429-.264-.056-.139.288-.232.536-.257-.043-.152-.072-.278-.008-.3a2.192,2.192,0,0,1,1.14,0,.457.457,0,0,0,.451-.084c-.039-.139-.078-.248-.154-.262-.182-.033-.462-.793-.231-.843s.528-.842.892-.957a.314.314,0,0,0,.232-.239,1.891,1.891,0,0,1-.677-.321c-.1-.166-.628-.232-.892-.266" transform="translate(431.213 7656.124)" fill="#f0f0f0"/>
        <path id="Trazado_7529" data-name="Trazado 7529" d="M70.568,124.046a2.307,2.307,0,0,0-1.322.232,1,1,0,0,1-.792.331,7.431,7.431,0,0,0-1.189-.033c-.164.033-1.057-.165-1.189-.132s-.337-.378-.636-.428a.222.222,0,0,1-.091.106.505.505,0,0,0,0,.768c.248.223.57.718.347.718a.445.445,0,0,0-.372.445c.024.149-.074.471,0,.546s.595.57.619.718c.022.131.235.2.219.313a5.563,5.563,0,0,1,1.5.018,5.4,5.4,0,0,0,1.19.2c.263,0,.5-.1.429-.264-.056-.139.288-.232.536-.257-.043-.152-.072-.278-.008-.3a2.192,2.192,0,0,1,1.14,0,.457.457,0,0,0,.451-.084c-.039-.139-.078-.248-.154-.262-.182-.033-.462-.793-.231-.843s.528-.842.892-.957a.314.314,0,0,0,.232-.239,1.891,1.891,0,0,1-.677-.321C71.36,124.146,70.831,124.08,70.568,124.046Z" transform="translate(431.213 7656.124)" fill="#f0f0f0"/>
        <path id="Trazado_7530" data-name="Trazado 7530" d="M62.228,130.449h0a.124.124,0,0,1,.042-.019l.009,0a.558.558,0,0,1,.062-.009h.009c.1-.008.226,0,.358-.006h.027l.088-.006.035,0a.911.911,0,0,0,.112-.02c.3-.074.371-.4.52-.322s.942-.33,1.041-.478a.111.111,0,0,0,.021-.051c.016-.114-.2-.182-.219-.313-.024-.148-.544-.644-.619-.718a.126.126,0,0,1-.025-.076v-.009a.771.771,0,0,1,0-.121c-.775.112-1.924.352-1.924.352L61.7,128.6a2.518,2.518,0,0,0-.121,1.16c.074.259.31.441.646.693" transform="translate(432.821 7654.223)" fill="#f0f0f0"/>
        <path id="Trazado_7531" data-name="Trazado 7531" d="M62.228,130.449h0a.124.124,0,0,1,.042-.019l.009,0a.558.558,0,0,1,.062-.009h.009c.1-.008.226,0,.358-.006h.027l.088-.006.035,0a.911.911,0,0,0,.112-.02c.3-.074.371-.4.52-.322s.942-.33,1.041-.478a.111.111,0,0,0,.021-.051c.016-.114-.2-.182-.219-.313-.024-.148-.544-.644-.619-.718a.126.126,0,0,1-.025-.076v-.009a.771.771,0,0,1,0-.121c-.775.112-1.924.352-1.924.352L61.7,128.6a2.518,2.518,0,0,0-.121,1.16C61.657,130.015,61.892,130.2,62.228,130.449Z" transform="translate(432.821 7654.223)" fill="#f0f0f0"/>
        <path id="Trazado_7532" data-name="Trazado 7532" d="M82.757,109.825c.173-.024.693-.595.867-.595s.916.148.916.025.248-.545.2-.67-.3-.3-.247-.421.4-.124.4-.273-.272-.223-.272-.322.347-.272.322-.47-.322-.223-.643-.4-.645-.1-.942-.248-.916-.049-.916-.148-.4-.421-.5-.595-.421-.074-.619.049a.487.487,0,0,1-.57.049c-.2-.124-.372-.322-.545-.248s-.5.025-.422-.223-.322-.792-.5-.867-.694.049-.817-.2-.347-.446-.248-.62a1.173,1.173,0,0,0-.149-.842c-.124-.2-.743-.173-.916-.1s-.571-.074-.743.024-.272.272-.521.272a.315.315,0,0,1-.305-.127,2.505,2.505,0,0,1-.718.145s-.662.528-.662.726-.032.529-.2.364a1.381,1.381,0,0,0-1.023-.067c-.166.1-.43-.4-.727-.231s-.693-.232-.727-.067-.462.034-.76-.1-.826.067-1.023-.165-1.486-.231-1.915-.231-.529.231-.727.43a.687.687,0,0,1-.6.133,1.007,1.007,0,0,0,.094.378c.1.148.57.867.445,1.09s-.347.223-.5.4a13.61,13.61,0,0,0-1.04,1.065c-.025.124.148.669.024.768a1.974,1.974,0,0,0-.5.817c0,.2.272.471.5.546a.3.3,0,0,1,.182.128,3.608,3.608,0,0,1,.43-.037c.165,0,.892.2,1.122.2a1.2,1.2,0,0,1,.661.2c.1.1.331.032.5-.133s.363-.066.561-.066a.912.912,0,0,0,.628-.331,3.867,3.867,0,0,1,1.354-.463c.264-.032.66.5.891.5a.877.877,0,0,1,.793.595,3.461,3.461,0,0,0,.693,1.123,1.406,1.406,0,0,1,.264.727c0,.133-.363-.033-.76-.132s-.429.3-.429.5a4.2,4.2,0,0,1-.66,1.024c-.1.133.2.232.429.264.1.014.5-.264.627-.264a1.351,1.351,0,0,1,.393.277c-.037-.516.069-.487.531-.838.479-.363.528-1.041.958-1.124a2.518,2.518,0,0,1,1.239-.182c.628.1-.313.5.115.727s1.752-.066,1.818.264-1.52.662-1.487.827.843.33,1.123.511-.082.695.05.86.561.033.908-.214.627-.166,1.073-.462,1.371-.034,1.487-.214-.265-.363-1.124-.3a.828.828,0,0,1-.908-.91,2.481,2.481,0,0,1,1.4-.891,4.158,4.158,0,0,0,1.42-.43,4.4,4.4,0,0,1,.908-.256c-.054-.234-.123-.508.025-.53" transform="translate(431.27 7665.612)" fill="#f0f0f0"/>
        <path id="Trazado_7533" data-name="Trazado 7533" d="M82.757,109.825c.173-.024.693-.595.867-.595s.916.148.916.025.248-.545.2-.67-.3-.3-.247-.421.4-.124.4-.273-.272-.223-.272-.322.347-.272.322-.47-.322-.223-.643-.4-.645-.1-.942-.248-.916-.049-.916-.148-.4-.421-.5-.595-.421-.074-.619.049a.487.487,0,0,1-.57.049c-.2-.124-.372-.322-.545-.248s-.5.025-.422-.223-.322-.792-.5-.867-.694.049-.817-.2-.347-.446-.248-.62a1.173,1.173,0,0,0-.149-.842c-.124-.2-.743-.173-.916-.1s-.571-.074-.743.024-.272.272-.521.272a.315.315,0,0,1-.305-.127,2.505,2.505,0,0,1-.718.145s-.662.528-.662.726-.032.529-.2.364a1.381,1.381,0,0,0-1.023-.067c-.166.1-.43-.4-.727-.231s-.693-.232-.727-.067-.462.034-.76-.1-.826.067-1.023-.165-1.486-.231-1.915-.231-.529.231-.727.43a.687.687,0,0,1-.6.133,1.007,1.007,0,0,0,.094.378c.1.148.57.867.445,1.09s-.347.223-.5.4a13.61,13.61,0,0,0-1.04,1.065c-.025.124.148.669.024.768a1.974,1.974,0,0,0-.5.817c0,.2.272.471.5.546a.3.3,0,0,1,.182.128,3.608,3.608,0,0,1,.43-.037c.165,0,.892.2,1.122.2a1.2,1.2,0,0,1,.661.2c.1.1.331.032.5-.133s.363-.066.561-.066a.912.912,0,0,0,.628-.331,3.867,3.867,0,0,1,1.354-.463c.264-.032.66.5.891.5a.877.877,0,0,1,.793.595,3.461,3.461,0,0,0,.693,1.123,1.406,1.406,0,0,1,.264.727c0,.133-.363-.033-.76-.132s-.429.3-.429.5a4.2,4.2,0,0,1-.66,1.024c-.1.133.2.232.429.264.1.014.5-.264.627-.264a1.351,1.351,0,0,1,.393.277c-.037-.516.069-.487.531-.838.479-.363.528-1.041.958-1.124a2.518,2.518,0,0,1,1.239-.182c.628.1-.313.5.115.727s1.752-.066,1.818.264-1.52.662-1.487.827.843.33,1.123.511-.082.695.05.86.561.033.908-.214.627-.166,1.073-.462,1.371-.034,1.487-.214-.265-.363-1.124-.3a.828.828,0,0,1-.908-.91,2.481,2.481,0,0,1,1.4-.891,4.158,4.158,0,0,0,1.42-.43,4.4,4.4,0,0,1,.908-.256C82.678,110.121,82.608,109.847,82.757,109.825Z" transform="translate(431.27 7665.612)" fill="#f0f0f0"/>
        <path id="Trazado_7534" data-name="Trazado 7534" d="M76.885,95.655c-.2-.05-.322-.5-.645-.62s-.247-.521-.52-.693-.1-.521-.124-.793.05-.693-.1-.768-.768-.421-1.04-.3-.471.222-.6,0a.462.462,0,0,0-.57-.273.607.607,0,0,1-.6-.174.254.254,0,0,1-.057-.081.872.872,0,0,0-.347.139c-.166.132-.2.4-.43.4s-.5-.1-.76.1a.615.615,0,0,0-.3.595c.032.164.066.43-.133.43s-.164.232-.363.3a1.109,1.109,0,0,0-.562.527c-.032.166-.032.53-.165.53a1.258,1.258,0,0,0-.726.231.533.533,0,0,1-.561.264,5.527,5.527,0,0,0-.819-.058.2.2,0,0,1-.007.1.764.764,0,0,0,.173.842c.2.173.272.867.049.966s-.644.4-.644.57.446.322.372.569a1.844,1.844,0,0,0-.019.613c.211.009.418.047.6-.134.2-.2.3-.43.727-.43s1.717,0,1.916.231.727.034,1.023.166.727.264.76.1.43.232.727.067.562.329.727.231a1.375,1.375,0,0,1,1.023.067c.166.165.2-.166.2-.364s.662-.726.662-.726a2.505,2.505,0,0,0,.718-.145,1.388,1.388,0,0,1-.166-.467c-.123-.545-.322-.867-.173-1.041s.57.223.792.124.62-.3.57-.52a1.075,1.075,0,0,0-.619-.57" transform="translate(430.378 7670.369)" fill="#f0f0f0"/>
        <path id="Trazado_7535" data-name="Trazado 7535" d="M76.885,95.655c-.2-.05-.322-.5-.645-.62s-.247-.521-.52-.693-.1-.521-.124-.793.05-.693-.1-.768-.768-.421-1.04-.3-.471.222-.6,0a.462.462,0,0,0-.57-.273.607.607,0,0,1-.6-.174.254.254,0,0,1-.057-.081.872.872,0,0,0-.347.139c-.166.132-.2.4-.43.4s-.5-.1-.76.1a.615.615,0,0,0-.3.595c.032.164.066.43-.133.43s-.164.232-.363.3a1.109,1.109,0,0,0-.562.527c-.032.166-.032.53-.165.53a1.258,1.258,0,0,0-.726.231.533.533,0,0,1-.561.264,5.527,5.527,0,0,0-.819-.058.2.2,0,0,1-.007.1.764.764,0,0,0,.173.842c.2.173.272.867.049.966s-.644.4-.644.57.446.322.372.569a1.844,1.844,0,0,0-.019.613c.211.009.418.047.6-.134.2-.2.3-.43.727-.43s1.717,0,1.916.231.727.034,1.023.166.727.264.76.1.43.232.727.067.562.329.727.231a1.375,1.375,0,0,1,1.023.067c.166.165.2-.166.2-.364s.662-.726.662-.726a2.505,2.505,0,0,0,.718-.145,1.388,1.388,0,0,1-.166-.467c-.123-.545-.322-.867-.173-1.041s.57.223.792.124.62-.3.57-.52A1.075,1.075,0,0,0,76.885,95.655Z" transform="translate(430.378 7670.369)" fill="#f0f0f0"/>
        <path id="Trazado_7536" data-name="Trazado 7536" d="M65.176,89.258a4.41,4.41,0,0,0,1.414,0c.4-.151.4.3.657.252s.757.3,1.06.556a4.019,4.019,0,0,0,.565.365.79.79,0,0,1,.217-.241c.264-.2.528-.1.76-.1s.264-.264.43-.4a.869.869,0,0,1,.347-.139c-.089-.183-.093-.539-.241-.686-.173-.173-.421-.471-.347-.644a.552.552,0,0,0-.124-.62.81.81,0,0,1-.188-.285,4.968,4.968,0,0,0-1.066-.069c-.2.066-.991-.562-1.123-.661a4.207,4.207,0,0,0-1.2.018c-.305.338-.085.586-.1,1.105s-.595.43-.907.43-.827-.941-.991-1.157-.7.265-1.074.5-.182.677-.446.892a.778.778,0,0,0-.166,1.058c.011.019.018.039.028.058a1.917,1.917,0,0,0,.885-.231c.353-.252,1.313,0,1.615,0" transform="translate(432.393 7672.77)" fill="#f0f0f0"/>
        <path id="Trazado_7537" data-name="Trazado 7537" d="M65.176,89.258a4.41,4.41,0,0,0,1.414,0c.4-.151.4.3.657.252s.757.3,1.06.556a4.019,4.019,0,0,0,.565.365.79.79,0,0,1,.217-.241c.264-.2.528-.1.76-.1s.264-.264.43-.4a.869.869,0,0,1,.347-.139c-.089-.183-.093-.539-.241-.686-.173-.173-.421-.471-.347-.644a.552.552,0,0,0-.124-.62.81.81,0,0,1-.188-.285,4.968,4.968,0,0,0-1.066-.069c-.2.066-.991-.562-1.123-.661a4.207,4.207,0,0,0-1.2.018c-.305.338-.085.586-.1,1.105s-.595.43-.907.43-.827-.941-.991-1.157-.7.265-1.074.5-.182.677-.446.892a.778.778,0,0,0-.166,1.058c.011.019.018.039.028.058a1.917,1.917,0,0,0,.885-.231C63.914,89.006,64.874,89.258,65.176,89.258Z" transform="translate(432.393 7672.77)" fill="#f0f0f0"/>
        <path id="Trazado_7538" data-name="Trazado 7538" d="M63.265,93.147a.746.746,0,0,0,.669.248c.148-.074.619.173.619.371s-.123.793,0,.793.826.221.875.52a5.509,5.509,0,0,1,.818.058.532.532,0,0,0,.561-.264,1.258,1.258,0,0,1,.727-.231c.132,0,.132-.363.164-.529a1.107,1.107,0,0,1,.562-.527c.2-.066.165-.3.363-.3s.165-.265.133-.43a.51.51,0,0,1,.08-.352,4.037,4.037,0,0,1-.565-.365c-.3-.253-.808-.607-1.06-.557s-.253-.4-.657-.252a4.394,4.394,0,0,1-1.414,0c-.3,0-1.262-.252-1.615,0a1.917,1.917,0,0,1-.885.231,1.09,1.09,0,0,1-.11,1.213c-.18.2-.076.231.056.311.272-.026.579-.078.678.061" transform="translate(432.429 7670.697)" fill="#f0f0f0"/>
        <path id="Trazado_7539" data-name="Trazado 7539" d="M63.265,93.147a.746.746,0,0,0,.669.248c.148-.074.619.173.619.371s-.123.793,0,.793.826.221.875.52a5.509,5.509,0,0,1,.818.058.532.532,0,0,0,.561-.264,1.258,1.258,0,0,1,.727-.231c.132,0,.132-.363.164-.529a1.107,1.107,0,0,1,.562-.527c.2-.066.165-.3.363-.3s.165-.265.133-.43a.51.51,0,0,1,.08-.352,4.037,4.037,0,0,1-.565-.365c-.3-.253-.808-.607-1.06-.557s-.253-.4-.657-.252a4.394,4.394,0,0,1-1.414,0c-.3,0-1.262-.252-1.615,0a1.917,1.917,0,0,1-.885.231,1.09,1.09,0,0,1-.11,1.213c-.18.2-.076.231.056.311C62.858,93.06,63.165,93.008,63.265,93.147Z" transform="translate(432.429 7670.697)" fill="#f0f0f0"/>
        <path id="Trazado_7540" data-name="Trazado 7540" d="M38.087,116.265c-.223.1-.57-.2-.57-.3a1.561,1.561,0,0,1,0-.47,4.331,4.331,0,0,0-.645-.282.871.871,0,0,0-.76.033,2.567,2.567,0,0,1-.947.033c-.028.1-.072.164-.151.164a.66.66,0,0,0-.57.471c-.049.247-.57.446-.719.891s-.074.645.149.372.5-.173.5.049.3.248.2.546a.147.147,0,0,0,0,.018c.339-.03.81-.068.953-.068.231,0,.462-.726.561-.793s.364.529.628.761.3-.2.3-.4.231-.264.4-.231.529.1.529-.133.2-.131.329-.131.166-.265.166-.265l.216-.2a.662.662,0,0,0-.555-.072" transform="translate(445.22 7660.064)" fill="#f0f0f0"/>
        <path id="Trazado_7541" data-name="Trazado 7541" d="M38.087,116.265c-.223.1-.57-.2-.57-.3a1.561,1.561,0,0,1,0-.47,4.331,4.331,0,0,0-.645-.282.871.871,0,0,0-.76.033,2.567,2.567,0,0,1-.947.033c-.028.1-.072.164-.151.164a.66.66,0,0,0-.57.471c-.049.247-.57.446-.719.891s-.074.645.149.372.5-.173.5.049.3.248.2.546a.147.147,0,0,0,0,.018c.339-.03.81-.068.953-.068.231,0,.462-.726.561-.793s.364.529.628.761.3-.2.3-.4.231-.264.4-.231.529.1.529-.133.2-.131.329-.131.166-.265.166-.265l.216-.2A.662.662,0,0,0,38.087,116.265Z" transform="translate(445.22 7660.064)" fill="#f0f0f0"/>
        <path id="Trazado_7542" data-name="Trazado 7542" d="M34.642,98.833c-.264.4-.627.428-.562.527s.463.43.363.6-.232.067-.232.364-.463.3-.627.3.033.3-.066.528a4.518,4.518,0,0,0-.132.892c-.032.2.331.528.3.693s-.3.3-.231.429a1.65,1.65,0,0,1,.354.926.5.5,0,0,1,.248.131.88.88,0,0,0,.718.347c.322,0,.446.223.595.2s.545.1.223.372a1.457,1.457,0,0,0-.446.916c-.048.208-.045.5-.1.677a2.546,2.546,0,0,0,.948-.033.869.869,0,0,1,.76-.032,4.267,4.267,0,0,1,.645.282c.021-.067.056-.117.123-.126.223-.024.5.421.644.173a.5.5,0,0,1,.669-.1.527.527,0,0,0,.645-.05,1.756,1.756,0,0,1,1.14-.222c.173.074.619.272.446-.322s.371-.471.446-.693.718-.322.62-.5a7.844,7.844,0,0,0-1.164-.867c-.248-.173-.248-.719-.372-.941s-.4-.52-.074-.595a2.924,2.924,0,0,0,1.165-.446c.272-.248.768-.272.916-.421s.5.124.595-.025a.561.561,0,0,0,.025-.619,1.517,1.517,0,0,1-.272-.891c-.025-.421-.148-.4-.148-.6a.637.637,0,0,0-.248-.545c-.173-.1-.247-.173-.074-.446a1.875,1.875,0,0,0,.024-1.165.269.269,0,0,1,0-.136.178.178,0,0,1-.094-.137c-.05-.264-.231-.363-.661-.363s.264-.43.1-.644-.595.4-.99.263-.908.463-1.255.727-.843-.049-.579-.43,0-.347-.4-.2-.876-.033-.826-.4a.391.391,0,0,0-.066-.257,1.144,1.144,0,0,1-.413.009,4.523,4.523,0,0,0-1.02-.1c.132.193.273.381.194.53-.149.281.083.546.3.958s-.462.182-.48.446-.627-.017-.825-.116-.859-.033-.842.133a.568.568,0,0,1-.032.234,1.089,1.089,0,0,1,.032.757" transform="translate(445.338 7668.621)" fill="#f0f0f0"/>
        <path id="Trazado_7543" data-name="Trazado 7543" d="M34.642,98.833c-.264.4-.627.428-.562.527s.463.43.363.6-.232.067-.232.364-.463.3-.627.3.033.3-.066.528a4.518,4.518,0,0,0-.132.892c-.032.2.331.528.3.693s-.3.3-.231.429a1.65,1.65,0,0,1,.354.926.5.5,0,0,1,.248.131.88.88,0,0,0,.718.347c.322,0,.446.223.595.2s.545.1.223.372a1.457,1.457,0,0,0-.446.916c-.048.208-.045.5-.1.677a2.546,2.546,0,0,0,.948-.033.869.869,0,0,1,.76-.032,4.267,4.267,0,0,1,.645.282c.021-.067.056-.117.123-.126.223-.024.5.421.644.173a.5.5,0,0,1,.669-.1.527.527,0,0,0,.645-.05,1.756,1.756,0,0,1,1.14-.222c.173.074.619.272.446-.322s.371-.471.446-.693.718-.322.62-.5a7.844,7.844,0,0,0-1.164-.867c-.248-.173-.248-.719-.372-.941s-.4-.52-.074-.595a2.924,2.924,0,0,0,1.165-.446c.272-.248.768-.272.916-.421s.5.124.595-.025a.561.561,0,0,0,.025-.619,1.517,1.517,0,0,1-.272-.891c-.025-.421-.148-.4-.148-.6a.637.637,0,0,0-.248-.545c-.173-.1-.247-.173-.074-.446a1.875,1.875,0,0,0,.024-1.165.269.269,0,0,1,0-.136.178.178,0,0,1-.094-.137c-.05-.264-.231-.363-.661-.363s.264-.43.1-.644-.595.4-.99.263-.908.463-1.255.727-.843-.049-.579-.43,0-.347-.4-.2-.876-.033-.826-.4a.391.391,0,0,0-.066-.257,1.144,1.144,0,0,1-.413.009,4.523,4.523,0,0,0-1.02-.1c.132.193.273.381.194.53-.149.281.083.546.3.958s-.462.182-.48.446-.627-.017-.825-.116-.859-.033-.842.133a.568.568,0,0,1-.032.234A1.089,1.089,0,0,1,34.642,98.833Z" transform="translate(445.338 7668.621)" fill="#f0f0f0"/>
        <path id="Trazado_7544" data-name="Trazado 7544" d="M72.671,62.882c.265-.594,1.452-1.053,1.652-1.586.1-.264.132-.4-.3-.892s-1.387-.826-1.421-1.09.727-.3.693-.628-.429-.329-.595-.594.2-.431.165-.562-.528-.2-.561-.364.331-.131.263-.329-.4-.562-.164-.86.727,0,.363-.66-.925-1.486-1.057-1.685.133-.53.331-.66.693-.628.693-.826-.628-.727-.793-.826-.528-.066-.693-.4-.33-.429-.166-.627a.822.822,0,0,0,.166-.6c0-.2.363-.033.428-.33a.9.9,0,0,1,.247-.407,4.8,4.8,0,0,0,0-.622c-.054-.319-.956-.425-1.167-.8s-.743-.212-.9,0-1.115-.052-1.115.266-.69.372-.69.743.318,1.008-.212.956-.159.212-.478.636-.319-.266-.637-.159-.69-.318-.849-.053-.69.053-1.221-.053-.8-.848-1.221-.9a.793.793,0,0,0-.741.545,8.291,8.291,0,0,0,1.218.888c.584.265,1.645.583,1.593.955s-.213.9.052,1.062-.052.848.266,1.008.212.955-.054.955.054.424.213.583a1.1,1.1,0,0,1,.157.551,5.22,5.22,0,0,1,.9.37c.446.2.379.512.4.858s.033.545-.2.4-.48,0-.612.5a1.785,1.785,0,0,1-1.14,1.123c-.38.032-.347.429-.661.512s-.611.264-.594.611-.462.38-.777.38-.247.561-.5.71-.2.347.033.645.033.562.115.777a1.454,1.454,0,0,1,.2,1.254c-.247.546-.511,1.224-.3,1.157s.711.446,1.041.413.365.462.677.363.314.3,1.222.265,2.741-.793,3.469-.793a4.129,4.129,0,0,0,1-.114,4.653,4.653,0,0,1,.535-.679c.463-.463,1.454-.793,1.717-1.387" transform="translate(432.313 7690.202)" fill="#f0f0f0"/>
        <path id="Trazado_7545" data-name="Trazado 7545" d="M72.671,62.882c.265-.594,1.452-1.053,1.652-1.586.1-.264.132-.4-.3-.892s-1.387-.826-1.421-1.09.727-.3.693-.628-.429-.329-.595-.594.2-.431.165-.562-.528-.2-.561-.364.331-.131.263-.329-.4-.562-.164-.86.727,0,.363-.66-.925-1.486-1.057-1.685.133-.53.331-.66.693-.628.693-.826-.628-.727-.793-.826-.528-.066-.693-.4-.33-.429-.166-.627a.822.822,0,0,0,.166-.6c0-.2.363-.033.428-.33a.9.9,0,0,1,.247-.407,4.8,4.8,0,0,0,0-.622c-.054-.319-.956-.425-1.167-.8s-.743-.212-.9,0-1.115-.052-1.115.266-.69.372-.69.743.318,1.008-.212.956-.159.212-.478.636-.319-.266-.637-.159-.69-.318-.849-.053-.69.053-1.221-.053-.8-.848-1.221-.9a.793.793,0,0,0-.741.545,8.291,8.291,0,0,0,1.218.888c.584.265,1.645.583,1.593.955s-.213.9.052,1.062-.052.848.266,1.008.212.955-.054.955.054.424.213.583a1.1,1.1,0,0,1,.157.551,5.22,5.22,0,0,1,.9.37c.446.2.379.512.4.858s.033.545-.2.4-.48,0-.612.5a1.785,1.785,0,0,1-1.14,1.123c-.38.032-.347.429-.661.512s-.611.264-.594.611-.462.38-.777.38-.247.561-.5.71-.2.347.033.645.033.562.115.777a1.454,1.454,0,0,1,.2,1.254c-.247.546-.511,1.224-.3,1.157s.711.446,1.041.413.365.462.677.363.314.3,1.222.265,2.741-.793,3.469-.793a4.129,4.129,0,0,0,1-.114,4.653,4.653,0,0,1,.535-.679C71.416,63.806,72.407,63.477,72.671,62.882Z" transform="translate(432.313 7690.202)" fill="#f0f0f0"/>
        <path id="Trazado_7546" data-name="Trazado 7546" d="M25.6,109.378c-.149.026-.273-.2-.595-.2a.881.881,0,0,1-.718-.347c-.149-.2-.917-.248-1.165-.2s-.322-.421-.57-.371-.322-.322-.322-.52-.272.148-.5.248-.3-.223-.322-.372-.471-.3-.694-.421-.471-.52-.57-.347-.372-.248-.4-.422c-.016-.115-.093-.078-.143-.147a1.008,1.008,0,0,1-.253.024c-.4-.017-.743.3-.677.958s-.48.726-1.156.776-.446.578-.726.793a1.344,1.344,0,0,1-1.4-.478c-.132-.363-1.023,0-.644.429s.363,1.024.149,1.189-.678-.264-.975-.049-.313-.2-.677-.329-.512.164-1.09.115-.909.281-.694.528-.033.478.132.694.925.181,1.487.478.693.049.975.265.346.082.363.5a1.089,1.089,0,0,0,.876.957c.545.149.132.512.3.875s-.248.892-.165,1.339a3.543,3.543,0,0,1-.528,2.014.317.317,0,0,1-.066.013c.248.123.508.231.635.315.242.161.764.321,1.086.523s.884.161.884-.081.321-.079.522.121.965.242,1.326.321a7.117,7.117,0,0,0,1.148.034,2.255,2.255,0,0,0-.068-.287c-.2-.645.379-1.025.925-1.107a4.574,4.574,0,0,1,2.048.446c.314.2.743.148,1.289-.43a1.479,1.479,0,0,1,.7-.456,1.709,1.709,0,0,1,.126-.378c.074-.2-.272-.149-.52-.173a.337.337,0,0,1-.248-.546c.173-.272-.148-.3-.322-.57s.075-.2.223-.272.347-.372.223-.446-.223-.248-.124-.546-.2-.322-.2-.545-.273-.322-.5-.049-.3.074-.149-.372.669-.644.718-.891a.66.66,0,0,1,.57-.471c.223,0,.173-.52.247-.842a1.461,1.461,0,0,1,.446-.916c.322-.272-.074-.4-.223-.372m1.767,8.407c-.182-.016-.232.313-.694.595s0,1.549.462,1.486c.48-.066.413-2.065.232-2.081" transform="translate(455.11 7664.003)" fill="#f0f0f0"/>
        <path id="Trazado_7547" data-name="Trazado 7547" d="M25.6,109.378c-.149.026-.273-.2-.595-.2a.881.881,0,0,1-.718-.347c-.149-.2-.917-.248-1.165-.2s-.322-.421-.57-.371-.322-.322-.322-.52-.272.148-.5.248-.3-.223-.322-.372-.471-.3-.694-.421-.471-.52-.57-.347-.372-.248-.4-.422c-.016-.115-.093-.078-.143-.147a1.008,1.008,0,0,1-.253.024c-.4-.017-.743.3-.677.958s-.48.726-1.156.776-.446.578-.726.793a1.344,1.344,0,0,1-1.4-.478c-.132-.363-1.023,0-.644.429s.363,1.024.149,1.189-.678-.264-.975-.049-.313-.2-.677-.329-.512.164-1.09.115-.909.281-.694.528-.033.478.132.694.925.181,1.487.478.693.049.975.265.346.082.363.5a1.089,1.089,0,0,0,.876.957c.545.149.132.512.3.875s-.248.892-.165,1.339a3.543,3.543,0,0,1-.528,2.014.317.317,0,0,1-.066.013c.248.123.508.231.635.315.242.161.764.321,1.086.523s.884.161.884-.081.321-.079.522.121.965.242,1.326.321a7.117,7.117,0,0,0,1.148.034,2.255,2.255,0,0,0-.068-.287c-.2-.645.379-1.025.925-1.107a4.574,4.574,0,0,1,2.048.446c.314.2.743.148,1.289-.43a1.479,1.479,0,0,1,.7-.456,1.709,1.709,0,0,1,.126-.378c.074-.2-.272-.149-.52-.173a.337.337,0,0,1-.248-.546c.173-.272-.148-.3-.322-.57s.075-.2.223-.272.347-.372.223-.446-.223-.248-.124-.546-.2-.322-.2-.545-.273-.322-.5-.049-.3.074-.149-.372.669-.644.718-.891a.66.66,0,0,1,.57-.471c.223,0,.173-.52.247-.842a1.461,1.461,0,0,1,.446-.916C26.141,109.478,25.744,109.354,25.6,109.378Zm1.767,8.407c-.182-.016-.232.313-.694.595s0,1.549.462,1.486C27.611,119.8,27.544,117.8,27.363,117.786Z" transform="translate(455.11 7664.003)" fill="#f0f0f0"/>
        <path id="Trazado_7548" data-name="Trazado 7548" d="M16.415,127a7.121,7.121,0,0,1-1.148-.034c-.361-.079-1.125-.119-1.326-.321s-.523-.361-.523-.121-.563.282-.884.081-.843-.361-1.085-.522c-.127-.084-.387-.192-.635-.316-.335.065-1.3-.288-1.932-.211-.678.083-2.842-.1-3.684-.032s-.892-.347-1.354-.347-.264.56-.925.577-.726.43-.248.81c.273.216.24.673.2,1.091a.44.44,0,0,0,.3-.127c.2-.241.4-.2.4.041s.442.161.684.161.16.2.442,0,.683-.121.683.121.6.12.282.442-.725.4-.725.642.362.763.081,1.045.081.763-.2.763-.6.121-.282.442.563.6.322.6-.4.482-.282.6.683.482.242.563-.442.442-.442.683a.838.838,0,0,0,.162.364.967.967,0,0,1,.595.044c.462.214.73,1.365,1.354,1.287.265-.033.133-.231.265-.363s.379-.033.644-.033.4-.379,1.023-.4,1.025-.067,1.421-.05.71-.116.809-.4a1.06,1.06,0,0,1,.876-.595c.446-.066.38-.529.413-.793s.776-.661.826-.858-.43-.958.016-1.636.925-.71.925-1.09c0-.348.462-.478,1.025-.545s.743-.446,1.222-.643a.745.745,0,0,0,.464-.935m.1,3.61c-.083-.562-1.218.168-.975.331.5.33,1.057.231.975-.331" transform="translate(459.124 7655.609)" fill="#f0f0f0"/>
        <path id="Trazado_7549" data-name="Trazado 7549" d="M16.415,127a7.121,7.121,0,0,1-1.148-.034c-.361-.079-1.125-.119-1.326-.321s-.523-.361-.523-.121-.563.282-.884.081-.843-.361-1.085-.522c-.127-.084-.387-.192-.635-.316-.335.065-1.3-.288-1.932-.211-.678.083-2.842-.1-3.684-.032s-.892-.347-1.354-.347-.264.56-.925.577-.726.43-.248.81c.273.216.24.673.2,1.091a.44.44,0,0,0,.3-.127c.2-.241.4-.2.4.041s.442.161.684.161.16.2.442,0,.683-.121.683.121.6.12.282.442-.725.4-.725.642.362.763.081,1.045.081.763-.2.763-.6.121-.282.442.563.6.322.6-.4.482-.282.6.683.482.242.563-.442.442-.442.683a.838.838,0,0,0,.162.364.967.967,0,0,1,.595.044c.462.214.73,1.365,1.354,1.287.265-.033.133-.231.265-.363s.379-.033.644-.033.4-.379,1.023-.4,1.025-.067,1.421-.05.71-.116.809-.4a1.06,1.06,0,0,1,.876-.595c.446-.066.38-.529.413-.793s.776-.661.826-.858-.43-.958.016-1.636.925-.71.925-1.09c0-.348.462-.478,1.025-.545s.743-.446,1.222-.643A.745.745,0,0,0,16.415,127Zm.1,3.61c-.083-.562-1.218.168-.975.331C16.033,131.267,16.594,131.168,16.512,130.606Z" transform="translate(459.124 7655.609)" fill="#f0f0f0"/>
        <path id="Trazado_7550" data-name="Trazado 7550" d="M47.05,119.066a1.155,1.155,0,0,1,.713-.091c.129.052.172.187.2.333a5.843,5.843,0,0,0,.787-.152c.2-.074.644.174.693.025s.2-.5.4-.5.074-.521.273-.546a2.53,2.53,0,0,0,.693-.471s-.2-.4-.272-.421-.322.247-.768.247-.767.347-.965.347-.818-.2-1.239-.223c-.148-.008-.3-.021-.448-.036a9.877,9.877,0,0,0-.058,1.481" transform="translate(439.269 7659.131)" fill="#f0f0f0"/>
        <path id="Trazado_7551" data-name="Trazado 7551" d="M47.05,119.066a1.155,1.155,0,0,1,.713-.091c.129.052.172.187.2.333a5.843,5.843,0,0,0,.787-.152c.2-.074.644.174.693.025s.2-.5.4-.5.074-.521.273-.546a2.53,2.53,0,0,0,.693-.471s-.2-.4-.272-.421-.322.247-.768.247-.767.347-.965.347-.818-.2-1.239-.223c-.148-.008-.3-.021-.448-.036A9.877,9.877,0,0,0,47.05,119.066Z" transform="translate(439.269 7659.131)" fill="#f0f0f0"/>
        <path id="Trazado_7552" data-name="Trazado 7552" d="M67.938,129.97c-.249.026-.593.118-.537.257.066.165-.166.263-.43.263a5.4,5.4,0,0,1-1.19-.2,5.538,5.538,0,0,0-1.5-.018.111.111,0,0,1-.021.051c-.1.148-.892.553-1.041.478s-.223.248-.52.322-.743-.025-.768.1a1.905,1.905,0,0,1-.4.643c-.173.173-.025.372-.272.421-.163.033-.231.336-.321.6a.327.327,0,0,0,.048.024.931.931,0,0,1,.595.958c-.049.413.528.562.793.265s1.007.166,1.007.363-.76-.214-1.19.1.331.611.232.941a.639.639,0,0,0,.578.777c.38-.017.809.611,1.04.495s-.281-.99-.2-1.122.545.231.776-.034-.165-.462-.512-.446-.016-.463.4-.215.611-.066.808-.1.248-.743-.363-.908-.529.446-.926.032.364-.248.364-.595-.611-.842-.908-1.255.413-.611.578-.313.611.248.892.132-.3-.645.214-.842.513.148.678.215.313-.414.842-.414a1.356,1.356,0,0,1,.754.359c.144-.158.262-.249.262-.383,0-.173.322-.248.322-.52a1.881,1.881,0,0,0-.091-.438M67,138.3c-.265-.148-1.454.1-1.767-.2s-.954.234-.677.281a8.451,8.451,0,0,0,1.635.43c.645.017,1.519-.3,1.5-.462s-.429.1-.694-.049" transform="translate(433.091 7653.477)" fill="#f0f0f0"/>
        <path id="Trazado_7553" data-name="Trazado 7553" d="M67.938,129.97c-.249.026-.593.118-.537.257.066.165-.166.263-.43.263a5.4,5.4,0,0,1-1.19-.2,5.538,5.538,0,0,0-1.5-.018.111.111,0,0,1-.021.051c-.1.148-.892.553-1.041.478s-.223.248-.52.322-.743-.025-.768.1a1.905,1.905,0,0,1-.4.643c-.173.173-.025.372-.272.421-.163.033-.231.336-.321.6a.327.327,0,0,0,.048.024.931.931,0,0,1,.595.958c-.049.413.528.562.793.265s1.007.166,1.007.363-.76-.214-1.19.1.331.611.232.941a.639.639,0,0,0,.578.777c.38-.017.809.611,1.04.495s-.281-.99-.2-1.122.545.231.776-.034-.165-.462-.512-.446-.016-.463.4-.215.611-.066.808-.1.248-.743-.363-.908-.529.446-.926.032.364-.248.364-.595-.611-.842-.908-1.255.413-.611.578-.313.611.248.892.132-.3-.645.214-.842.513.148.678.215.313-.414.842-.414a1.356,1.356,0,0,1,.754.359c.144-.158.262-.249.262-.383,0-.173.322-.248.322-.52A1.881,1.881,0,0,0,67.938,129.97ZM67,138.3c-.265-.148-1.454.1-1.767-.2s-.954.234-.677.281a8.451,8.451,0,0,0,1.635.43c.645.017,1.519-.3,1.5-.462S67.269,138.452,67,138.3Z" transform="translate(433.091 7653.477)" fill="#f0f0f0"/>
        <path id="Trazado_7554" data-name="Trazado 7554" d="M86.763,145c-.033-.182.215-.562.595-.71s.231-.43-.016-.215a2.845,2.845,0,0,1-1.585.479c-.743.033-.976.523-.512.793.595.347,1.552-.165,1.519-.347" transform="translate(422.399 7647.245)" fill="#f0f0f0"/>
        <path id="Trazado_7555" data-name="Trazado 7555" d="M86.763,145c-.033-.182.215-.562.595-.71s.231-.43-.016-.215a2.845,2.845,0,0,1-1.585.479c-.743.033-.976.523-.512.793C85.839,145.691,86.8,145.18,86.763,145Z" transform="translate(422.399 7647.245)" fill="#f0f0f0"/>
        <path id="Trazado_7556" data-name="Trazado 7556" d="M4.532,96.831a2.231,2.231,0,0,1-.369-.336c-.424-.5-.6-.1-.648.2s-.45-.1-.7-.149.074-.524.249-.65a1.135,1.135,0,0,0,.3-.636.38.38,0,0,1-.138-.024c-.462-.181-1.107-.181-1.123.232s.512.264.528.528-.528.2-.908.463-.793-.181-1.189.016.429.431.132.843.016.4.512.793-.3.5-.3.941-.611.43-.743.727.529.892,1.107.892a3.4,3.4,0,0,0,1.932-.793c.562-.528.858-.017,1.371-.28s.2-2.2,0-2.593a.222.222,0,0,1-.019-.173" transform="translate(460.117 7668.963)" fill="#f0f0f0"/>
        <path id="Trazado_7557" data-name="Trazado 7557" d="M4.532,96.831a2.231,2.231,0,0,1-.369-.336c-.424-.5-.6-.1-.648.2s-.45-.1-.7-.149.074-.524.249-.65a1.135,1.135,0,0,0,.3-.636.38.38,0,0,1-.138-.024c-.462-.181-1.107-.181-1.123.232s.512.264.528.528-.528.2-.908.463-.793-.181-1.189.016.429.431.132.843.016.4.512.793-.3.5-.3.941-.611.43-.743.727.529.892,1.107.892a3.4,3.4,0,0,0,1.932-.793c.562-.528.858-.017,1.371-.28s.2-2.2,0-2.593A.222.222,0,0,1,4.532,96.831Z" transform="translate(460.117 7668.963)" fill="#f0f0f0"/>
        <path id="Trazado_7558" data-name="Trazado 7558" d="M6.846,87.753c-.417-.4-.956.229-1.4.222a1.139,1.139,0,0,1-.3.637c-.175.125-.5.6-.25.65s.648.448.7.149.224-.7.648-.2a2.206,2.206,0,0,0,.369.335c.068-.226.591-.265.861-.537.331-.331-.164-.81-.627-1.255m9.033,4.1c.034-.5-1.057-.842-1.172-.578s-.363.232-.545-.065.166-.579-.016-.612a.682.682,0,0,1-.363-.611c.049-.165-.281-1.223-.842-1.355S12.3,87.7,12.2,87.274s-.463-.2-.743-.562-.76-.182-1.008-.165,0-.463.4-.727a4.155,4.155,0,0,0,.859-1.949c0-.281-1.734-.265-2.064-.1s-.661-.247-.381-.363.876-.693.843-.925.413-.446.166-.661-.281.281-.5.446a1.8,1.8,0,0,1-1.206.017c-.512-.1-.71.627-.693.941s-.595.5-.5.76-.116.462-.281.313-.347-.512-.677-.247.379.611.808.661-.329.363-.412.825.561.265.595.595-.925.38-.925.693.545-.148.793-.28-.132.776.463.677.429-.908.644-.875-.1.429.083.776-.43.876-.4,1.124,1.222.247,1.6-.149.561.033.3.331a.393.393,0,0,0,.182.694c.33.115.446.148.3.412s-.017.76-.1,1.007-1.106.215-1.139.05-.463-.05-.347.181-.364.48-.331.694.643.165.66.43-.446.577-1.073.76.132.677.429.462.232.149.661.149.694.347,1.172.166.463,0,.1.28-.908-.016-1.239.166-1.674,1.441-1.42,1.751c.149.181.346-.264.825-.463s.561.132.826.165.28-.545.5-.5.412-.182.808-.115a1.044,1.044,0,0,0,.876-.248c.2-.165.726.329.892.214a3.276,3.276,0,0,1,1.255-.232,3.479,3.479,0,0,0,1.552-.644c.248-.231-.149-.28-.478-.231s-.265-.331.082-.661.892-.578.925-1.073M5.955,83.557c.446-.016.957-.776.743-.991s-1.075,1-.743.991m6.391-3.584c.281-.28.611-1.354.182-1.239s-.3,1.361-.182,1.239" transform="translate(458.038 7676.248)" fill="#f0f0f0"/>
        <path id="Trazado_7559" data-name="Trazado 7559" d="M6.846,87.753c-.417-.4-.956.229-1.4.222a1.139,1.139,0,0,1-.3.637c-.175.125-.5.6-.25.65s.648.448.7.149.224-.7.648-.2a2.206,2.206,0,0,0,.369.335c.068-.226.591-.265.861-.537C7.8,88.678,7.309,88.2,6.846,87.753Zm9.033,4.1c.034-.5-1.057-.842-1.172-.578s-.363.232-.545-.065.166-.579-.016-.612a.682.682,0,0,1-.363-.611c.049-.165-.281-1.223-.842-1.355S12.3,87.7,12.2,87.274s-.463-.2-.743-.562-.76-.182-1.008-.165,0-.463.4-.727a4.155,4.155,0,0,0,.859-1.949c0-.281-1.734-.265-2.064-.1s-.661-.247-.381-.363.876-.693.843-.925.413-.446.166-.661-.281.281-.5.446a1.8,1.8,0,0,1-1.206.017c-.512-.1-.71.627-.693.941s-.595.5-.5.76-.116.462-.281.313-.347-.512-.677-.247.379.611.808.661-.329.363-.412.825.561.265.595.595-.925.38-.925.693.545-.148.793-.28-.132.776.463.677.429-.908.644-.875-.1.429.083.776-.43.876-.4,1.124,1.222.247,1.6-.149.561.033.3.331a.393.393,0,0,0,.182.694c.33.115.446.148.3.412s-.017.76-.1,1.007-1.106.215-1.139.05-.463-.05-.347.181-.364.48-.331.694.643.165.66.43-.446.577-1.073.76.132.677.429.462.232.149.661.149.694.347,1.172.166.463,0,.1.28-.908-.016-1.239.166-1.674,1.441-1.42,1.751c.149.181.346-.264.825-.463s.561.132.826.165.28-.545.5-.5.412-.182.808-.115a1.044,1.044,0,0,0,.876-.248c.2-.165.726.329.892.214a3.276,3.276,0,0,1,1.255-.232,3.479,3.479,0,0,0,1.552-.644c.248-.231-.149-.28-.478-.231s-.265-.331.082-.661S15.847,92.344,15.88,91.849ZM5.955,83.557c.446-.016.957-.776.743-.991S5.622,83.57,5.955,83.557Zm6.391-3.584c.281-.28.611-1.354.182-1.239S12.224,80.1,12.346,79.974Z" transform="translate(458.038 7676.248)" fill="#f0f0f0"/>
        <path id="Trazado_7560" data-name="Trazado 7560" d="M6.846,87.753c-.417-.4-.956.229-1.4.222a1.139,1.139,0,0,1-.3.637c-.175.125-.5.6-.25.65s.648.448.7.149.224-.7.648-.2a2.206,2.206,0,0,0,.369.335c.068-.226.591-.265.861-.537.331-.331-.164-.81-.627-1.255m9.033,4.1c.034-.5-1.057-.842-1.172-.578s-.363.232-.545-.065.166-.579-.016-.612a.682.682,0,0,1-.363-.611c.049-.165-.281-1.223-.842-1.355S12.3,87.7,12.2,87.274s-.463-.2-.743-.562-.76-.182-1.008-.165,0-.463.4-.727a4.155,4.155,0,0,0,.859-1.949c0-.281-1.734-.265-2.064-.1s-.661-.247-.381-.363.876-.693.843-.925.413-.446.166-.661-.281.281-.5.446a1.8,1.8,0,0,1-1.206.017c-.512-.1-.71.627-.693.941s-.595.5-.5.76-.116.462-.281.313-.347-.512-.677-.247.379.611.808.661-.329.363-.412.825.561.265.595.595-.925.38-.925.693.545-.148.793-.28-.132.776.463.677.429-.908.644-.875-.1.429.083.776-.43.876-.4,1.124,1.222.247,1.6-.149.561.033.3.331a.393.393,0,0,0,.182.694c.33.115.446.148.3.412s-.017.76-.1,1.007-1.106.215-1.139.05-.463-.05-.347.181-.364.48-.331.694.643.165.66.43-.446.577-1.073.76.132.677.429.462.232.149.661.149.694.347,1.172.166.463,0,.1.28-.908-.016-1.239.166-1.674,1.441-1.42,1.751c.149.181.346-.264.825-.463s.561.132.826.165.28-.545.5-.5.412-.182.808-.115a1.044,1.044,0,0,0,.876-.248c.2-.165.726.329.892.214a3.276,3.276,0,0,1,1.255-.232,3.479,3.479,0,0,0,1.552-.644c.248-.231-.149-.28-.478-.231s-.265-.331.082-.661.892-.578.925-1.073M5.955,83.557c.446-.016.957-.776.743-.991s-1.075,1-.743.991m6.391-3.584c.281-.28.611-1.354.182-1.239s-.3,1.361-.182,1.239" transform="translate(458.038 7676.248)" fill="#f0f0f0"/>
        <path id="Trazado_7561" data-name="Trazado 7561" d="M6.846,87.753c-.417-.4-.956.229-1.4.222a1.139,1.139,0,0,1-.3.637c-.175.125-.5.6-.25.65s.648.448.7.149.224-.7.648-.2a2.206,2.206,0,0,0,.369.335c.068-.226.591-.265.861-.537C7.8,88.678,7.309,88.2,6.846,87.753Zm9.033,4.1c.034-.5-1.057-.842-1.172-.578s-.363.232-.545-.065.166-.579-.016-.612a.682.682,0,0,1-.363-.611c.049-.165-.281-1.223-.842-1.355S12.3,87.7,12.2,87.274s-.463-.2-.743-.562-.76-.182-1.008-.165,0-.463.4-.727a4.155,4.155,0,0,0,.859-1.949c0-.281-1.734-.265-2.064-.1s-.661-.247-.381-.363.876-.693.843-.925.413-.446.166-.661-.281.281-.5.446a1.8,1.8,0,0,1-1.206.017c-.512-.1-.71.627-.693.941s-.595.5-.5.76-.116.462-.281.313-.347-.512-.677-.247.379.611.808.661-.329.363-.412.825.561.265.595.595-.925.38-.925.693.545-.148.793-.28-.132.776.463.677.429-.908.644-.875-.1.429.083.776-.43.876-.4,1.124,1.222.247,1.6-.149.561.033.3.331a.393.393,0,0,0,.182.694c.33.115.446.148.3.412s-.017.76-.1,1.007-1.106.215-1.139.05-.463-.05-.347.181-.364.48-.331.694.643.165.66.43-.446.577-1.073.76.132.677.429.462.232.149.661.149.694.347,1.172.166.463,0,.1.28-.908-.016-1.239.166-1.674,1.441-1.42,1.751c.149.181.346-.264.825-.463s.561.132.826.165.28-.545.5-.5.412-.182.808-.115a1.044,1.044,0,0,0,.876-.248c.2-.165.726.329.892.214a3.276,3.276,0,0,1,1.255-.232,3.479,3.479,0,0,0,1.552-.644c.248-.231-.149-.28-.478-.231s-.265-.331.082-.661S15.847,92.344,15.88,91.849ZM5.955,83.557c.446-.016.957-.776.743-.991S5.622,83.57,5.955,83.557Zm6.391-3.584c.281-.28.611-1.354.182-1.239S12.224,80.1,12.346,79.974Z" transform="translate(458.038 7676.248)" fill="#f0f0f0"/>
        <path id="Trazado_7562" data-name="Trazado 7562" d="M40.015,89.462a.615.615,0,0,1-.034-.776.928.928,0,0,0,.116-.959c-.164-.164-.76,0-.81.446s-.528.248-.661.347.264.3.05.5-.3-.3-.645-.329-.38.527-.561.808a2.21,2.21,0,0,0,0,1.272c.066.4.545.643.429.974-.053.153.055.326.171.495a4.535,4.535,0,0,1,1.02.1,1.139,1.139,0,0,0,.413-.009c-.146-.237-.472-.429-.447-.6.033-.231.347-.084.578.115s.743.232.792-.017c.031-.152-.083-.858-.4-.693s-.4.1-.512-.066.231-.429.314-.693.626-.166.71-.38-.364-.446-.528-.528m2.494,1.008c-.132-.083-.232.231-.381.264s-.313-.628-.379-.264-.4-.149-.727.313.2.876.43,1.025-.017.363-.314.3-.116.429.3.5.859-.727.81-.925.421-1.108.265-1.205" transform="translate(443.565 7672.276)" fill="#f0f0f0"/>
        <path id="Trazado_7563" data-name="Trazado 7563" d="M40.015,89.462a.615.615,0,0,1-.034-.776.928.928,0,0,0,.116-.959c-.164-.164-.76,0-.81.446s-.528.248-.661.347.264.3.05.5-.3-.3-.645-.329-.38.527-.561.808a2.21,2.21,0,0,0,0,1.272c.066.4.545.643.429.974-.053.153.055.326.171.495a4.535,4.535,0,0,1,1.02.1,1.139,1.139,0,0,0,.413-.009c-.146-.237-.472-.429-.447-.6.033-.231.347-.084.578.115s.743.232.792-.017c.031-.152-.083-.858-.4-.693s-.4.1-.512-.066.231-.429.314-.693.626-.166.71-.38S40.179,89.545,40.015,89.462Zm2.494,1.008c-.132-.083-.232.231-.381.264s-.313-.628-.379-.264-.4-.149-.727.313.2.876.43,1.025-.017.363-.314.3-.116.429.3.5.859-.727.81-.925S42.665,90.567,42.509,90.47Z" transform="translate(443.565 7672.276)" fill="#f0f0f0"/>
        <path id="Trazado_7564" data-name="Trazado 7564" d="M57.6,56.635c-.159-.159-.478-.583-.213-.583s.372-.8.054-.956,0-.849-.266-1.007-.106-.691-.052-1.062-1.009-.69-1.593-.956-.848-.69-1.326-.955-.637.423-.637.849-.424.477-.743.212-.69,0-1.168-.212-.264.477-.264.8-.531.318-.849.318-.85.266-.85.637-.477.583-.318.8-.053.425-.265.583-.425.69-.584.849.106.424-.212.637-.69.052-.848.212,0,.531-.053,1.009a3.4,3.4,0,0,1-.743,1.432c-.318.425.106.531.266.583s.159.319,0,.637-.531.106-.743.054a1.412,1.412,0,0,0-1.115.742,1.087,1.087,0,0,0-.107,1.115c.106.265-.264.584,0,1.115s-.106.637-.052,1.061.69.372.742.8-.212.583-.424.583-.159.424.054.531.158.849.052,1.062-.8,0-.743.264-.159.69-.159.9-.053.9-.265.742a.5.5,0,0,0-.349-.049c0,.033,0,.066,0,.105a1.348,1.348,0,0,0,.5,1.122c.363.3.083.743.4,1.156s.214.711.561,1.008.381.462.232.842.3.281.313.512-.1.71.018.942.347,0,.875-.017.4-.347.412-.661.282-.165.347-.363.546-.248.925-.083.577-.115.644-.512.28.084.4.165.463-.611.627-1.056-.016-.363-.4.066-.165-.429-.016-.776a9.961,9.961,0,0,0,.182-1.585.765.765,0,0,1,.627-.677c.479-.1,1.107-.693,1.008-.941s.661-.661.661-.908-.793-1.008-1.057-1.172-.842-.034-.793-.215a5.519,5.519,0,0,0-.132-1.256c-.067-.363.412-.743.412-1.09s-.017-.743.3-.859.116-.412.529-.511.331-.694.776-.876.478-.331,1.057-.61a5.146,5.146,0,0,0,1.718-1.289c.164-.347-.6-.711-.116-1.073s.082-.777.429-.909a1.771,1.771,0,0,0,.727-.577c.247-.264.577-.016,1.172-.116a1.486,1.486,0,0,1,.6.027,1.1,1.1,0,0,0-.157-.551M52.012,71.163c-.627.017-.921,1.252-.76,1.454.132.165,1.387-1.47.76-1.454" transform="translate(440.701 7688.543)" fill="#f0f0f0"/>
        <path id="Trazado_7565" data-name="Trazado 7565" d="M57.6,56.635c-.159-.159-.478-.583-.213-.583s.372-.8.054-.956,0-.849-.266-1.007-.106-.691-.052-1.062-1.009-.69-1.593-.956-.848-.69-1.326-.955-.637.423-.637.849-.424.477-.743.212-.69,0-1.168-.212-.264.477-.264.8-.531.318-.849.318-.85.266-.85.637-.477.583-.318.8-.053.425-.265.583-.425.69-.584.849.106.424-.212.637-.69.052-.848.212,0,.531-.053,1.009a3.4,3.4,0,0,1-.743,1.432c-.318.425.106.531.266.583s.159.319,0,.637-.531.106-.743.054a1.412,1.412,0,0,0-1.115.742,1.087,1.087,0,0,0-.107,1.115c.106.265-.264.584,0,1.115s-.106.637-.052,1.061.69.372.742.8-.212.583-.424.583-.159.424.054.531.158.849.052,1.062-.8,0-.743.264-.159.69-.159.9-.053.9-.265.742a.5.5,0,0,0-.349-.049c0,.033,0,.066,0,.105a1.348,1.348,0,0,0,.5,1.122c.363.3.083.743.4,1.156s.214.711.561,1.008.381.462.232.842.3.281.313.512-.1.71.018.942.347,0,.875-.017.4-.347.412-.661.282-.165.347-.363.546-.248.925-.083.577-.115.644-.512.28.084.4.165.463-.611.627-1.056-.016-.363-.4.066-.165-.429-.016-.776a9.961,9.961,0,0,0,.182-1.585.765.765,0,0,1,.627-.677c.479-.1,1.107-.693,1.008-.941s.661-.661.661-.908-.793-1.008-1.057-1.172-.842-.034-.793-.215a5.519,5.519,0,0,0-.132-1.256c-.067-.363.412-.743.412-1.09s-.017-.743.3-.859.116-.412.529-.511.331-.694.776-.876.478-.331,1.057-.61a5.146,5.146,0,0,0,1.718-1.289c.164-.347-.6-.711-.116-1.073s.082-.777.429-.909a1.771,1.771,0,0,0,.727-.577c.247-.264.577-.016,1.172-.116a1.486,1.486,0,0,1,.6.027A1.1,1.1,0,0,0,57.6,56.635ZM52.012,71.163c-.627.017-.921,1.252-.76,1.454C51.384,72.782,52.639,71.147,52.012,71.163Z" transform="translate(440.701 7688.543)" fill="#f0f0f0"/>
        <path id="Trazado_7566" data-name="Trazado 7566" d="M71.061,82.771c.137-.3.5-.345.227-.733a.634.634,0,0,1-.244.114c-.479.132-1.52-.33-2.114-.214s-1.8.115-2.081.412-.991.38-.677.644,0,.4.231.711.347.446.661.379.562.1.231.446a.159.159,0,0,1-.014.018,4.185,4.185,0,0,1,1.2-.018c.132.1.925.727,1.123.661a5.006,5.006,0,0,1,1.066.069.262.262,0,0,1,.04-.309c.148-.124.471-.124.3-.372a.913.913,0,0,1-.247-.6,3.6,3.6,0,0,1-.074-.644c.024-.2.223-.248.372-.57m-5.847.8c-.594.166-.682.988-.445.975a3.22,3.22,0,0,0,1.156-.761c.181-.181-.116-.379-.711-.214m.5-.48c.133-.247-.954-.139-.71.083a.487.487,0,0,0,.71-.083" transform="translate(431.446 7674.829)" fill="#f0f0f0"/>
        <path id="Trazado_7567" data-name="Trazado 7567" d="M71.061,82.771c.137-.3.5-.345.227-.733a.634.634,0,0,1-.244.114c-.479.132-1.52-.33-2.114-.214s-1.8.115-2.081.412-.991.38-.677.644,0,.4.231.711.347.446.661.379.562.1.231.446a.159.159,0,0,1-.014.018,4.185,4.185,0,0,1,1.2-.018c.132.1.925.727,1.123.661a5.006,5.006,0,0,1,1.066.069.262.262,0,0,1,.04-.309c.148-.124.471-.124.3-.372a.913.913,0,0,1-.247-.6,3.6,3.6,0,0,1-.074-.644C70.714,83.143,70.912,83.093,71.061,82.771Zm-5.847.8c-.594.166-.682.988-.445.975a3.22,3.22,0,0,0,1.156-.761C66.106,83.606,65.809,83.408,65.214,83.573Zm.5-.48c.133-.247-.954-.139-.71.083A.487.487,0,0,0,65.709,83.093Z" transform="translate(431.446 7674.829)" fill="#f0f0f0"/>
        <path id="Trazado_7568" data-name="Trazado 7568" d="M59.119,28.883c-.067.248-.512.2-.5-.049s-.693-.446-.727-.562.3-.1.562.049.446.05.743-.231.71-.049.76-.3-.48-.413-.578-.562a.948.948,0,0,0-.842-.281c-.363.066-.38-.083-.6-.281s-.874.132-.874.595-.413.347-.266.1-.2-.545.133-.628.148-.578-.463-.627-.842.462-.693.627-.413.876-.662.876.034-.611.017-.941-.248-.149-.711.38-.808,1.007-1.072,1.057-.232-.479.2-.71.446-.859.726-.859.281-.33-.132-.429-.479.363-.611.5-.808-.232-.792-.1-.363.182-.2.429-.082.463-.247.166-.578-.067-.776.264-.463.313-.265.43a.381.381,0,0,1-.115.644c-.3.083-.182-.81-.413-.727s-.083-.43.231-.43a.753.753,0,0,0,.595-.578c-.055-.193-.4-.148-.4.1s-.5.2-.908.181-.4.48.066.743-.083.43-.314.232a.812.812,0,0,0-.842.016c-.248.116.595.413.628.562s-.43-.182-.53-.066-.561-.083-.594-.364-.777.116-.363.214.263.364.263.727-.479.083-.379-.231-.3-.248-.627-.05.05-.363-.083-.644-.43,0-.777.067-.528.082-.313.313.182.561-.1.512-.4,0-.363.265-.363.279-.4.049-.595-.165-.76.1-.627.462-.578.76.413-.149.711-.05-.017.248.149.4.132.512-.1.3-.529-.282-.578.066-.3-.049-.5-.3-.4.463-.611.3.43-.677.264-.925-.281.148-.66.528-.891.363-.71.545-.38.281-.479.595-.876.43-1.372.761.1.347.381.032.38-.132.826-.413.925-.512,1.09-.4a.441.441,0,0,0,.66-.1.426.426,0,0,1,.693-.049c.215.182-.363.33-.1.595s-.313.412-.313.181-.33-.429-.446-.215-.314.446-.528.463-.446.413-.446.809-.381,0-.413.347a3.472,3.472,0,0,1-1.024,1.4c-.462.446-.033.545-.182.826s-.694.033-.875.148.1.81-.148,1.025,0,.512,0,.76-.644-.149-.693.1-.612.183-.777.248.33.462.628.693-.281.413-.347.148-.479.165-.991.4-.3.693-.694.71-.281.644-.545.842-.2-.462-.611-.478-.38.281-.132.627-.379.083-.611.38-.892.149-1.073.4.5.248.595.446-.595.1-.958.016-.264.463-.595.4-.743.281-.512.513-.182.264-.413.115-.429.214-.512.5.446.43.43.561-.43.347-.133.415.083.329-.116.412-.2.282,0,.529-.347.3-.083.677.462-.1.578.181.429.033.793-.3.5.363.2.347-.645.164-.578.462-.462.247-.446-.116-.611.066-.38.33-.082.413-.082.661.446.2.627-.083a.317.317,0,0,1,.595.067c.116.281-.28.066-.28.445s-.248.05-.463.347.843.843,1.174.925.644.446,1.3.347a5.762,5.762,0,0,0,2.081-1.536c.166-.215.529.033.777-.165s.1-.71.281-.808.28.544.446.61c.149.059.258.177.264.507a.493.493,0,0,1,.349.049c.212.16.265-.53.265-.742s.212-.637.16-.9.636-.052.742-.264.159-.956-.052-1.062-.266-.531-.054-.531.477-.159.425-.584-.691-.371-.743-.8.318-.531.052-1.061.106-.85,0-1.115a1.089,1.089,0,0,1,.107-1.115,1.409,1.409,0,0,1,1.115-.742c.212.052.584.265.743-.054s.158-.583,0-.637-.584-.158-.266-.583a3.405,3.405,0,0,0,.743-1.432c.053-.478-.106-.85.053-1.009s.531,0,.848-.212.053-.478.212-.637.372-.691.584-.849.424-.372.265-.583.318-.426.318-.8.531-.637.85-.637.849,0,.849-.318-.213-1.008.265-.8.849-.054,1.167.211.743.213.743-.211.159-1.115.637-.85c.037.021.072.044.108.067a.793.793,0,0,1,.741-.545c.426.054.69.8,1.221.9s1.061.319,1.221.053.531.159.849.053.318.585.637.159-.053-.69.478-.636.213-.585.213-.956.689-.425.689-.743.956-.053,1.115-.266.69-.371.9,0,1.113.477,1.167.8a4.811,4.811,0,0,1,0,.622.782.782,0,0,1,.513-.254c.33,0,.627-.5.925-.429.247.055.492.013.568-.4-.267-.167-.772-.188-.832.037M39.143,7.71c.471.1-.5.62-.644,1.09s.743.892,1.115,1.239a1.655,1.655,0,0,0,1.586.1c.322-.2.223-.892.645-.867s.2-.372.545-.5.4.322.1.668.52.322.966-.1.546-.024.446.372-1.016.173-1.338.62-1.312.1-1.758.595.4.52,1.015.4a7.72,7.72,0,0,1,2.23-.1c.446.1-.273.248-1.016.248s-.99.223-.966.421-1.04-.222-1.09.223.991.62,1.115.892.817.025,1.09.124-.446.3-.545.421.768.3.917.545.768.124.743-.223a2.691,2.691,0,0,1,1.289-2.006c.743-.273.322-.521.421-.941s.693-.074.52-.421-.074-.5.4-.941.768-.124,1.339-.4.842.2.223.248c-.544.044-.273.669.173.842s.049.322.4.4.248.595-.2,1.066.124.57,1.066.223.347.3.619.57,1.016-.2,1.412-.668.99-.393.966-.645c-.024-.272-.445-.347-.792-.2s-1.214.049-.917-.223.248-.5-.2-.446-1.239-.173-.867-.322-.273-.644-.62-.619-.247-.372-.223-.645-.991-.4-.793-.5-.421-.322-.57-.124a.239.239,0,0,1-.446-.149c0-.3-.743-.223-1.041-.2S46.3,7.14,46,6.917s-.694.446-.916.4.173-.5.3-.792-1.04-.694-1.165-.4-.347-.446-.594-.52-.049.5-.273.545-.52.273-.148.52A3.034,3.034,0,0,1,43.9,8.353c-.049.2-1.189-.891-1.239-1.412s-.619-.941-.768-.57-.57.52-.446.892-.3.5-.3.2-.62-.645-.843-.669.57-.174.942-.347-.322-.421-.644-.223-.743-.124-.941.149-.446,0-.793-.074-.645.5-.892.4-.4.5,0,1.115.694-.2,1.164-.1M38.127,9.716c.3.074.52.57.793.545.123-.011-.421-.62-.743-.966s-.3-.693-.743-.57.4.917.693.991M46,5.7c.223.173-.367.178-.124.421.743.743,3.667-.1,4.063.124s-2.452.5-2.329.793a4.793,4.793,0,0,0,2.626.347c.173-.2.57.4,1.338.446s.693-.3,1.264-.322,1.412-.3,1.437-.62,1.685-.718,1.536-1.263-1.759-.173-2.2-.4-1.486-.52-1.66-.173-.47.446-.619.3.074-.941-.644-.718-.049.991-.2,1.09-.842-.148-.892-.5-.818.372-.917-.049-1.016-.718-1.214-.694.2.3.074.5-.62-.2-.817-.223.124.421.025.619-.5-.595-.842-.595-.223.4-.471.421.347.322.57.5" transform="translate(446.294 7709.237)" fill="#f0f0f0"/>
        <path id="Trazado_7569" data-name="Trazado 7569" d="M59.119,28.883c-.067.248-.512.2-.5-.049s-.693-.446-.727-.562.3-.1.562.049.446.05.743-.231.71-.049.76-.3-.48-.413-.578-.562a.948.948,0,0,0-.842-.281c-.363.066-.38-.083-.6-.281s-.874.132-.874.595-.413.347-.266.1-.2-.545.133-.628.148-.578-.463-.627-.842.462-.693.627-.413.876-.662.876.034-.611.017-.941-.248-.149-.711.38-.808,1.007-1.072,1.057-.232-.479.2-.71.446-.859.726-.859.281-.33-.132-.429-.479.363-.611.5-.808-.232-.792-.1-.363.182-.2.429-.082.463-.247.166-.578-.067-.776.264-.463.313-.265.43a.381.381,0,0,1-.115.644c-.3.083-.182-.81-.413-.727s-.083-.43.231-.43a.753.753,0,0,0,.595-.578c-.055-.193-.4-.148-.4.1s-.5.2-.908.181-.4.48.066.743-.083.43-.314.232a.812.812,0,0,0-.842.016c-.248.116.595.413.628.562s-.43-.182-.53-.066-.561-.083-.594-.364-.777.116-.363.214.263.364.263.727-.479.083-.379-.231-.3-.248-.627-.05.05-.363-.083-.644-.43,0-.777.067-.528.082-.313.313.182.561-.1.512-.4,0-.363.265-.363.279-.4.049-.595-.165-.76.1-.627.462-.578.76.413-.149.711-.05-.017.248.149.4.132.512-.1.3-.529-.282-.578.066-.3-.049-.5-.3-.4.463-.611.3.43-.677.264-.925-.281.148-.66.528-.891.363-.71.545-.38.281-.479.595-.876.43-1.372.761.1.347.381.032.38-.132.826-.413.925-.512,1.09-.4a.441.441,0,0,0,.66-.1.426.426,0,0,1,.693-.049c.215.182-.363.33-.1.595s-.313.412-.313.181-.33-.429-.446-.215-.314.446-.528.463-.446.413-.446.809-.381,0-.413.347a3.472,3.472,0,0,1-1.024,1.4c-.462.446-.033.545-.182.826s-.694.033-.875.148.1.81-.148,1.025,0,.512,0,.76-.644-.149-.693.1-.612.183-.777.248.33.462.628.693-.281.413-.347.148-.479.165-.991.4-.3.693-.694.71-.281.644-.545.842-.2-.462-.611-.478-.38.281-.132.627-.379.083-.611.38-.892.149-1.073.4.5.248.595.446-.595.1-.958.016-.264.463-.595.4-.743.281-.512.513-.182.264-.413.115-.429.214-.512.5.446.43.43.561-.43.347-.133.415.083.329-.116.412-.2.282,0,.529-.347.3-.083.677.462-.1.578.181.429.033.793-.3.5.363.2.347-.645.164-.578.462-.462.247-.446-.116-.611.066-.38.33-.082.413-.082.661.446.2.627-.083a.317.317,0,0,1,.595.067c.116.281-.28.066-.28.445s-.248.05-.463.347.843.843,1.174.925.644.446,1.3.347a5.762,5.762,0,0,0,2.081-1.536c.166-.215.529.033.777-.165s.1-.71.281-.808.28.544.446.61c.149.059.258.177.264.507a.493.493,0,0,1,.349.049c.212.16.265-.53.265-.742s.212-.637.16-.9.636-.052.742-.264.159-.956-.052-1.062-.266-.531-.054-.531.477-.159.425-.584-.691-.371-.743-.8.318-.531.052-1.061.106-.85,0-1.115a1.089,1.089,0,0,1,.107-1.115,1.409,1.409,0,0,1,1.115-.742c.212.052.584.265.743-.054s.158-.583,0-.637-.584-.158-.266-.583a3.405,3.405,0,0,0,.743-1.432c.053-.478-.106-.85.053-1.009s.531,0,.848-.212.053-.478.212-.637.372-.691.584-.849.424-.372.265-.583.318-.426.318-.8.531-.637.85-.637.849,0,.849-.318-.213-1.008.265-.8.849-.054,1.167.211.743.213.743-.211.159-1.115.637-.85c.037.021.072.044.108.067a.793.793,0,0,1,.741-.545c.426.054.69.8,1.221.9s1.061.319,1.221.053.531.159.849.053.318.585.637.159-.053-.69.478-.636.213-.585.213-.956.689-.425.689-.743.956-.053,1.115-.266.69-.371.9,0,1.113.477,1.167.8a4.811,4.811,0,0,1,0,.622.782.782,0,0,1,.513-.254c.33,0,.627-.5.925-.429.247.055.492.013.568-.4C59.685,28.68,59.179,28.658,59.119,28.883ZM39.143,7.71c.471.1-.5.62-.644,1.09s.743.892,1.115,1.239a1.655,1.655,0,0,0,1.586.1c.322-.2.223-.892.645-.867s.2-.372.545-.5.4.322.1.668.52.322.966-.1.546-.024.446.372-1.016.173-1.338.62-1.312.1-1.758.595.4.52,1.015.4a7.72,7.72,0,0,1,2.23-.1c.446.1-.273.248-1.016.248s-.99.223-.966.421-1.04-.222-1.09.223.991.62,1.115.892.817.025,1.09.124-.446.3-.545.421.768.3.917.545.768.124.743-.223a2.691,2.691,0,0,1,1.289-2.006c.743-.273.322-.521.421-.941s.693-.074.52-.421-.074-.5.4-.941.768-.124,1.339-.4.842.2.223.248c-.544.044-.273.669.173.842s.049.322.4.4.248.595-.2,1.066.124.57,1.066.223.347.3.619.57,1.016-.2,1.412-.668.99-.393.966-.645c-.024-.272-.445-.347-.792-.2s-1.214.049-.917-.223.248-.5-.2-.446-1.239-.173-.867-.322-.273-.644-.62-.619-.247-.372-.223-.645-.991-.4-.793-.5-.421-.322-.57-.124a.239.239,0,0,1-.446-.149c0-.3-.743-.223-1.041-.2S46.3,7.14,46,6.917s-.694.446-.916.4.173-.5.3-.792-1.04-.694-1.165-.4-.347-.446-.594-.52-.049.5-.273.545-.52.273-.148.52A3.034,3.034,0,0,1,43.9,8.353c-.049.2-1.189-.891-1.239-1.412s-.619-.941-.768-.57-.57.52-.446.892-.3.5-.3.2-.62-.645-.843-.669.57-.174.942-.347-.322-.421-.644-.223-.743-.124-.941.149-.446,0-.793-.074-.645.5-.892.4-.4.5,0,1.115S38.673,7.61,39.143,7.71ZM38.127,9.716c.3.074.52.57.793.545.123-.011-.421-.62-.743-.966s-.3-.693-.743-.57S37.83,9.642,38.127,9.716ZM46,5.7c.223.173-.367.178-.124.421.743.743,3.667-.1,4.063.124s-2.452.5-2.329.793a4.793,4.793,0,0,0,2.626.347c.173-.2.57.4,1.338.446s.693-.3,1.264-.322,1.412-.3,1.437-.62,1.685-.718,1.536-1.263-1.759-.173-2.2-.4-1.486-.52-1.66-.173-.47.446-.619.3.074-.941-.644-.718-.049.991-.2,1.09-.842-.148-.892-.5-.818.372-.917-.049-1.016-.718-1.214-.694.2.3.074.5-.62-.2-.817-.223.124.421.025.619-.5-.595-.842-.595-.223.4-.471.421S45.782,5.53,46,5.7Z" transform="translate(446.294 7709.237)" fill="#f0f0f0"/>
        <path id="Trazado_7574" data-name="Trazado 7574" d="M43.447,128.951c-.677.149-.957.2-1.354,0s-1.038.181-.941.446c.066.182.33.413,1.156.628s.925.775,1.272.793.379-.315.3-.761.412-.957.462-1.041-.215-.214-.892-.066M37.056,125.2c-.363.314-.662-.054-.809.2-.182.314.561.792.413,1.437s.083,1.454.462,1.073.562-.2.776-.479.033-1.321.182-1.816-.661-.727-1.024-.413m8.093-.528c-.429-.264-.149-.694-.826-.662s-1.486-.808-1.734-1.783-1.3-1.023-1.57-1.6.248-.644.018-1.123c-.129-.266.156-.5.492-.635a9.94,9.94,0,0,1,.059-1.481,1.943,1.943,0,0,1-.568-.113c-.124-.074-.148-.471-.223-.471s-.768,0-.892.124-.5.347-.693.223a1.548,1.548,0,0,0-.138-.077l-.216.2s-.033.264-.166.264-.329-.1-.329.131-.364.166-.53.133-.4.032-.4.231-.034.628-.3.4-.529-.827-.627-.761-.33.793-.562.793c-.143,0-.613.038-.953.068-.089.284.006.455.127.527s-.074.371-.223.446-.4,0-.223.273.5.3.322.57a.337.337,0,0,0,.248.545c.247.024.594-.025.521.174a1.646,1.646,0,0,0-.126.378,2.76,2.76,0,0,0,.539-.156c.347-.181.2-.5.776-.66a1.7,1.7,0,0,1,1.569.66c.232.347.3.381.347.662a2.144,2.144,0,0,0,1.057,1.354c.793.513,1.108,1.09,1.52,1.3s.826.166,1.073.463a2.582,2.582,0,0,0,.975.644c.4.182.412.611.792.661s.132.38.363.661a1.1,1.1,0,0,1,.05,1.206c-.248.331-.116.891.049.891s.512-.595.562-.925.379-.313.643-.66-.4-.43-.511-.876.5-.842,1.073-.479.81.612.842.05-1.784-1.3-2.213-1.569" transform="translate(444.789 7659.328)" fill="#f0f0f0"/>
        <path id="Trazado_7575" data-name="Trazado 7575" d="M43.447,128.951c-.677.149-.957.2-1.354,0s-1.038.181-.941.446c.066.182.33.413,1.156.628s.925.775,1.272.793.379-.315.3-.761.412-.957.462-1.041S44.124,128.8,43.447,128.951ZM37.056,125.2c-.363.314-.662-.054-.809.2-.182.314.561.792.413,1.437s.083,1.454.462,1.073.562-.2.776-.479.033-1.321.182-1.816S37.419,124.888,37.056,125.2Zm8.093-.528c-.429-.264-.149-.694-.826-.662s-1.486-.808-1.734-1.783-1.3-1.023-1.57-1.6.248-.644.018-1.123c-.129-.266.156-.5.492-.635a9.94,9.94,0,0,1,.059-1.481,1.943,1.943,0,0,1-.568-.113c-.124-.074-.148-.471-.223-.471s-.768,0-.892.124-.5.347-.693.223a1.548,1.548,0,0,0-.138-.077l-.216.2s-.033.264-.166.264-.329-.1-.329.131-.364.166-.53.133-.4.032-.4.231-.034.628-.3.4-.529-.827-.627-.761-.33.793-.562.793c-.143,0-.613.038-.953.068-.089.284.006.455.127.527s-.074.371-.223.446-.4,0-.223.273.5.3.322.57a.337.337,0,0,0,.248.545c.247.024.594-.025.521.174a1.646,1.646,0,0,0-.126.378,2.76,2.76,0,0,0,.539-.156c.347-.181.2-.5.776-.66a1.7,1.7,0,0,1,1.569.66c.232.347.3.381.347.662a2.144,2.144,0,0,0,1.057,1.354c.793.513,1.108,1.09,1.52,1.3s.826.166,1.073.463a2.582,2.582,0,0,0,.975.644c.4.182.412.611.792.661s.132.38.363.661a1.1,1.1,0,0,1,.05,1.206c-.248.331-.116.891.049.891s.512-.595.562-.925.379-.313.643-.66-.4-.43-.511-.876.5-.842,1.073-.479.81.612.842.05S45.578,124.938,45.149,124.674Z" transform="translate(444.789 7659.328)" fill="#f0f0f0"/>
        <path id="Trazado_7576" data-name="Trazado 7576" d="M58.063,126.074a1.966,1.966,0,0,0-.428.829,1.079,1.079,0,0,1-.046.346,5.914,5.914,0,0,0,.789.586l.059.032c.066-.367.318-.746.5-.79-.257-.315-.634-.759-.877-1" transform="translate(434.582 7655.208)" fill="#f0f0f0"/>
        <path id="Trazado_7577" data-name="Trazado 7577" d="M58.063,126.074a1.966,1.966,0,0,0-.428.829,1.079,1.079,0,0,1-.046.346,5.914,5.914,0,0,0,.789.586l.059.032c.066-.367.318-.746.5-.79C58.683,126.762,58.306,126.318,58.063,126.074Z" transform="translate(434.582 7655.208)" fill="#f0f0f0"/>
        <path id="Trazado_7578" data-name="Trazado 7578" d="M62.245,122.614a.5.5,0,0,1,0-.768c.222-.148.024-.347.024-.594s-1.065-.322-1.239-.372.124-.694-.148-.694a.356.356,0,0,1-.372-.4c0-.2-.421-.521-.4-.645a.112.112,0,0,1,.031-.05c-.153-.023-.271-.042-.314-.052a3.981,3.981,0,0,1-.48-.147s-.687.222-1.164.367c.032.291.108.607.292.676.354.133.222.487.354.8s.09,1.731-.088,1.731c-.076,0-.248.185-.416.415.243.244.62.688.877,1a.141.141,0,0,1,.034-.01,4.278,4.278,0,0,1,1.034.591s1.148-.239,1.924-.352a1.64,1.64,0,0,0,.022-.338.447.447,0,0,1,.372-.446c.223,0-.1-.5-.346-.718" transform="translate(434.316 7658.397)" fill="#f0f0f0"/>
        <path id="Trazado_7579" data-name="Trazado 7579" d="M62.245,122.614a.5.5,0,0,1,0-.768c.222-.148.024-.347.024-.594s-1.065-.322-1.239-.372.124-.694-.148-.694a.356.356,0,0,1-.372-.4c0-.2-.421-.521-.4-.645a.112.112,0,0,1,.031-.05c-.153-.023-.271-.042-.314-.052a3.981,3.981,0,0,1-.48-.147s-.687.222-1.164.367c.032.291.108.607.292.676.354.133.222.487.354.8s.09,1.731-.088,1.731c-.076,0-.248.185-.416.415.243.244.62.688.877,1a.141.141,0,0,1,.034-.01,4.278,4.278,0,0,1,1.034.591s1.148-.239,1.924-.352a1.64,1.64,0,0,0,.022-.338.447.447,0,0,1,.372-.446C62.814,123.333,62.492,122.837,62.245,122.614Z" transform="translate(434.316 7658.397)" fill="#f0f0f0"/>
      </g>
    </g>
  </g>
</svg>
